<?xml version="1.0" encoding="utf-8"?>
<!-- Generator: Adobe Illustrator 16.0.0, SVG Export Plug-In . SVG Version: 6.00 Build 0)  -->
<!DOCTYPE svg PUBLIC "-//W3C//DTD SVG 1.1//EN" "http://www.w3.org/Graphics/SVG/1.1/DTD/svg11.dtd">
<svg version="1.1" id="Layer_1" xmlns="http://www.w3.org/2000/svg" xmlns:xlink="http://www.w3.org/1999/xlink" x="0px" y="0px"
	 width="258px" height="136px" viewBox="0 0 258 136" enable-background="new 0 0 258 136" xml:space="preserve">
<rect x="7" y="7" fill="#FFFFFF" stroke="#CCCCCC" stroke-miterlimit="10" width="244" height="122"/>
<g id="Layer_2">
	<path fill="#FFFFFF" stroke="#FFCACF" stroke-width="3.0122" stroke-miterlimit="10" d="M7,113.366
		c24.954,0,45.183-20.229,45.183-45.183C52.183,43.229,31.954,23,7,23"/>
	<path fill="#FFFFFF" stroke="#CAE6FF" stroke-width="3.0102" stroke-miterlimit="10" d="M251.502,23.002
		c-24.938,0-45.152,20.215-45.152,45.152s20.217,45.153,45.152,45.153"/>
	<line fill="none" stroke="#CCCCCC" stroke-miterlimit="10" x1="129" y1="7" x2="129" y2="127.441"/>
</g>
<g>
	<polygon id="static-wallB" fill="#C69C6D" points="251,113 251,129 7,129 7,113 -7,113 -7,143 7,143 251,143 265,143 265,113 	"/>
	<polygon id="static-wallA" fill="#C69C6D" points="251,-7 7,-7 -7,-7 -7,23 7,23 7,7 251,7 251,23 265,23 265,-7 	"/>
</g>
<circle id="pallet-palletB" fill="#D94600" cx="50.682" cy="67.221" r="9.289"/>
<circle id="pallet-palletA" fill="#0024F7" cx="206.35" cy="68.184" r="10.184"/>
<circle id="puck-puck" cx="129" cy="68" r="3.175"/>
</svg>
