<?xml version="1.0" encoding="utf-8"?>
<!-- Generator: Adobe Illustrator 16.0.0, SVG Export Plug-In . SVG Version: 6.00 Build 0)  -->
<!DOCTYPE svg PUBLIC "-//W3C//DTD SVG 1.1//EN" "http://www.w3.org/Graphics/SVG/1.1/DTD/svg11.dtd">
<svg version="1.1" id="Layer_1" xmlns="http://www.w3.org/2000/svg" xmlns:xlink="http://www.w3.org/1999/xlink" x="0px" y="0px"
	 width="1000px" height="500px" viewBox="0 0 1000 500" enable-background="new 0 0 1000 500" xml:space="preserve">
<rect id="ghost" x="-6.359" width="1006.359" height="520.077"/>
<g>
	<linearGradient id="SVGID_1_" gradientUnits="userSpaceOnUse" x1="586.1152" y1="399.3594" x2="684.5762" y2="399.3594">
		<stop  offset="0" style="stop-color:#94FAFF"/>
		<stop  offset="0.0901" style="stop-color:#15C1FF"/>
		<stop  offset="1" style="stop-color:#00566A"/>
	</linearGradient>
	
		<polyline fill="none" stroke="url(#SVGID_1_)" stroke-width="17" stroke-linecap="round" stroke-linejoin="round" stroke-miterlimit="10" points="
		594.615,399.359 604.798,399.359 614.98,399.359 625.163,399.359 635.346,399.359 645.528,399.359 655.711,399.359 
		665.894,399.359 676.076,399.359 	"/>
	<linearGradient id="SVGID_2_" gradientUnits="userSpaceOnUse" x1="569.9922" y1="360.7031" x2="665.6758" y2="360.7031">
		<stop  offset="0" style="stop-color:#94FAFF"/>
		<stop  offset="0.0901" style="stop-color:#15C1FF"/>
		<stop  offset="1" style="stop-color:#00566A"/>
	</linearGradient>
	
		<polyline fill="none" stroke="url(#SVGID_2_)" stroke-width="17" stroke-linecap="round" stroke-linejoin="round" stroke-miterlimit="10" points="
		578.492,399.359 588.328,389.695 598.163,380.031 607.998,370.367 617.834,360.703 627.67,351.039 637.505,341.375 647.34,331.711 
		657.176,322.047 	"/>
	<linearGradient id="SVGID_3_" gradientUnits="userSpaceOnUse" x1="556.5488" y1="324.6797" x2="644.0957" y2="324.6797">
		<stop  offset="0" style="stop-color:#94FAFF"/>
		<stop  offset="0.0901" style="stop-color:#15C1FF"/>
		<stop  offset="1" style="stop-color:#00566A"/>
	</linearGradient>
	
		<polyline fill="none" stroke="url(#SVGID_3_)" stroke-width="17" stroke-linecap="round" stroke-linejoin="round" stroke-miterlimit="10" points="
		565.049,399.359 573.867,380.689 582.686,362.02 591.504,343.35 600.322,324.68 609.141,306.01 617.959,287.34 626.777,268.67 
		635.596,250 	"/>
	<linearGradient id="SVGID_4_" gradientUnits="userSpaceOnUse" x1="545.5098" y1="293.7461" x2="620.1113" y2="293.7461">
		<stop  offset="0" style="stop-color:#94FAFF"/>
		<stop  offset="0.0901" style="stop-color:#15C1FF"/>
		<stop  offset="1" style="stop-color:#00566A"/>
	</linearGradient>
	
		<polyline fill="none" stroke="url(#SVGID_4_)" stroke-width="17" stroke-linecap="round" stroke-linejoin="round" stroke-miterlimit="10" points="
		554.01,399.359 561.21,372.956 568.41,346.553 575.61,320.149 582.811,293.746 590.011,267.343 597.211,240.939 604.411,214.536 
		611.611,188.133 	"/>
	<linearGradient id="SVGID_5_" gradientUnits="userSpaceOnUse" x1="536.4336" y1="270.0098" x2="594.1641" y2="270.0098">
		<stop  offset="0" style="stop-color:#94FAFF"/>
		<stop  offset="0.0901" style="stop-color:#15C1FF"/>
		<stop  offset="1" style="stop-color:#00566A"/>
	</linearGradient>
	
		<polyline fill="none" stroke="url(#SVGID_5_)" stroke-width="17" stroke-linecap="round" stroke-linejoin="round" stroke-miterlimit="10" points="
		544.934,399.359 550.025,367.021 555.116,334.685 560.207,302.348 565.299,270.01 570.391,237.672 575.481,205.335 
		580.572,172.998 585.664,140.661 	"/>
	<linearGradient id="SVGID_6_" gradientUnits="userSpaceOnUse" x1="528.7461" y1="255.0898" x2="566.8301" y2="255.0898">
		<stop  offset="0" style="stop-color:#94FAFF"/>
		<stop  offset="0.0901" style="stop-color:#15C1FF"/>
		<stop  offset="1" style="stop-color:#00566A"/>
	</linearGradient>
	
		<polyline fill="none" stroke="url(#SVGID_6_)" stroke-width="17" stroke-linecap="round" stroke-linejoin="round" stroke-miterlimit="10" points="
		537.246,399.359 539.882,363.292 542.518,327.225 545.152,291.157 547.788,255.09 550.424,219.022 553.059,182.955 
		555.694,146.888 558.33,110.82 	"/>
	<linearGradient id="SVGID_7_" gradientUnits="userSpaceOnUse" x1="521.7754" y1="250" x2="538.7754" y2="250">
		<stop  offset="0" style="stop-color:#94FAFF"/>
		<stop  offset="0.0901" style="stop-color:#15C1FF"/>
		<stop  offset="1" style="stop-color:#00566A"/>
	</linearGradient>
	
		<polyline fill="none" stroke="url(#SVGID_7_)" stroke-width="17" stroke-linecap="round" stroke-linejoin="round" stroke-miterlimit="10" points="
		530.275,399.359 530.275,362.02 530.275,324.68 530.275,287.34 530.275,250 530.275,212.66 530.275,175.32 530.275,137.98 
		530.275,100.641 	"/>
	<linearGradient id="SVGID_8_" gradientUnits="userSpaceOnUse" x1="493.7227" y1="255.0898" x2="531.8066" y2="255.0898">
		<stop  offset="0" style="stop-color:#94FAFF"/>
		<stop  offset="0.0901" style="stop-color:#15C1FF"/>
		<stop  offset="1" style="stop-color:#00566A"/>
	</linearGradient>
	
		<polyline fill="none" stroke="url(#SVGID_8_)" stroke-width="17" stroke-linecap="round" stroke-linejoin="round" stroke-miterlimit="10" points="
		523.307,399.359 520.671,363.292 518.035,327.225 515.4,291.157 512.765,255.09 510.129,219.022 507.494,182.955 504.858,146.888 
		502.223,110.82 	"/>
	<linearGradient id="SVGID_9_" gradientUnits="userSpaceOnUse" x1="466.3877" y1="270.0098" x2="524.1172" y2="270.0098">
		<stop  offset="0" style="stop-color:#94FAFF"/>
		<stop  offset="0.0901" style="stop-color:#15C1FF"/>
		<stop  offset="1" style="stop-color:#00566A"/>
	</linearGradient>
	
		<polyline fill="none" stroke="url(#SVGID_9_)" stroke-width="17" stroke-linecap="round" stroke-linejoin="round" stroke-miterlimit="10" points="
		515.617,399.359 510.525,367.021 505.435,334.685 500.344,302.348 495.252,270.01 490.161,237.673 485.07,205.335 479.979,172.998 
		474.888,140.661 	"/>
	<linearGradient id="SVGID_10_" gradientUnits="userSpaceOnUse" x1="440.4404" y1="293.7461" x2="515.043" y2="293.7461">
		<stop  offset="0" style="stop-color:#94FAFF"/>
		<stop  offset="0.0901" style="stop-color:#15C1FF"/>
		<stop  offset="1" style="stop-color:#00566A"/>
	</linearGradient>
	
		<polyline fill="none" stroke="url(#SVGID_10_)" stroke-width="17" stroke-linecap="round" stroke-linejoin="round" stroke-miterlimit="10" points="
		506.543,399.359 499.343,372.956 492.143,346.553 484.942,320.149 477.742,293.746 470.541,267.343 463.341,240.939 
		456.141,214.536 448.94,188.133 	"/>
	<linearGradient id="SVGID_11_" gradientUnits="userSpaceOnUse" x1="416.4561" y1="324.6797" x2="504.0039" y2="324.6797">
		<stop  offset="0" style="stop-color:#94FAFF"/>
		<stop  offset="0.0901" style="stop-color:#15C1FF"/>
		<stop  offset="1" style="stop-color:#00566A"/>
	</linearGradient>
	
		<polyline fill="none" stroke="url(#SVGID_11_)" stroke-width="17" stroke-linecap="round" stroke-linejoin="round" stroke-miterlimit="10" points="
		495.503,399.359 486.685,380.689 477.866,362.02 469.048,343.35 460.229,324.68 451.411,306.01 442.593,287.34 433.774,268.67 
		424.956,250 	"/>
	<linearGradient id="SVGID_12_" gradientUnits="userSpaceOnUse" x1="394.8755" y1="360.7012" x2="490.561" y2="360.7012">
		<stop  offset="0" style="stop-color:#94FAFF"/>
		<stop  offset="0.0901" style="stop-color:#15C1FF"/>
		<stop  offset="1" style="stop-color:#00566A"/>
	</linearGradient>
	
		<polyline fill="none" stroke="url(#SVGID_12_)" stroke-width="17" stroke-linecap="round" stroke-linejoin="round" stroke-miterlimit="10" points="
		482.061,399.359 472.226,389.695 462.39,380.03 452.554,370.365 442.718,360.701 432.883,351.037 423.047,341.372 413.211,331.707 
		403.375,322.043 	"/>
</g>
</svg>
