<?xml version="1.0" encoding="utf-8"?>
<!-- Generator: Adobe Illustrator 16.0.0, SVG Export Plug-In . SVG Version: 6.00 Build 0)  -->
<!DOCTYPE svg PUBLIC "-//W3C//DTD SVG 1.1//EN" "http://www.w3.org/Graphics/SVG/1.1/DTD/svg11.dtd">
<svg version="1.1" id="Layer_1" xmlns="http://www.w3.org/2000/svg" xmlns:xlink="http://www.w3.org/1999/xlink" x="0px" y="0px"
	 width="1000px" height="500px" viewBox="0 0 1000 500" enable-background="new 0 0 1000 500" xml:space="preserve">
<rect id="static" x="109.026" y="357.23" fill="#2FA900" stroke="#000000" stroke-miterlimit="10" width="714.102" height="73.074"/>
<g id="rectangle-hard">
	<rect x="401.5" y="196.5" fill="#2FA900" stroke="#000000" stroke-miterlimit="10" width="58" height="125.5"/>
</g>
<g id="ball-balloon_1_">
	<rect x="324.5" y="151.5" fill="#2FA900" stroke="#000000" stroke-miterlimit="10" width="33" height="33"/>
	<line id="constraint-rectangle" fill="none" stroke="#000000" stroke-miterlimit="10" x1="335.5" y1="168" x2="430.5" y2="263.5"/>
</g>
<g id="ball-balloon_2_">
	<rect x="326.5" y="105.5" fill="#2FA900" stroke="#000000" stroke-miterlimit="10" width="33" height="33"/>
	
		<line id="constraint-rectangle_1_" fill="none" stroke="#000000" stroke-miterlimit="10" x1="337.5" y1="122" x2="432.5" y2="217.5"/>
</g>
<g id="ball-balloon_3_">
	<rect x="268" y="112" fill="#2FA900" stroke="#000000" stroke-miterlimit="10" width="33" height="33"/>
	
		<line id="constraint-rectangle_2_" fill="none" stroke="#000000" stroke-miterlimit="10" x1="279" y1="128.5" x2="426" y2="242.75"/>
</g>
<g id="ball-balloon_6_">
	<rect x="395.75" y="89" fill="#2FA900" stroke="#000000" stroke-miterlimit="10" width="33" height="33"/>
	
		<line id="constraint-rectangle_5_" fill="none" stroke="#000000" stroke-miterlimit="10" x1="406.75" y1="105.5" x2="433.75" y2="273"/>
</g>
<g id="ball-balloon_5_">
	<rect x="397.75" y="43" fill="#2FA900" stroke="#000000" stroke-miterlimit="10" width="33" height="33"/>
	
		<line id="constraint-rectangle_4_" fill="none" stroke="#000000" stroke-miterlimit="10" x1="408.75" y1="59.5" x2="435.75" y2="227"/>
</g>
<g id="ball-balloon_8_">
	<rect x="459.5" y="89" fill="#2FA900" stroke="#000000" stroke-miterlimit="10" width="33" height="33"/>
	
		<line id="constraint-rectangle_7_" fill="none" stroke="#000000" stroke-miterlimit="10" x1="470.5" y1="105.5" x2="434.75" y2="265.75"/>
</g>
<g id="ball-balloon_4_">
	<rect x="339.25" y="49.5" fill="#2FA900" stroke="#000000" stroke-miterlimit="10" width="33" height="33"/>
	
		<line id="constraint-rectangle_3_" fill="none" stroke="#000000" stroke-miterlimit="10" x1="350.25" y1="66" x2="429.25" y2="252.25"/>
</g>
</svg>
