<?xml version="1.0" encoding="utf-8"?>
<!-- Generator: Adobe Illustrator 16.0.0, SVG Export Plug-In . SVG Version: 6.00 Build 0)  -->
<!DOCTYPE svg PUBLIC "-//W3C//DTD SVG 1.1//EN" "http://www.w3.org/Graphics/SVG/1.1/DTD/svg11.dtd">
<svg version="1.1" id="Layer_1" xmlns="http://www.w3.org/2000/svg" xmlns:xlink="http://www.w3.org/1999/xlink" x="0px" y="0px"
	 width="1200px" height="800px" viewBox="0 0 1200 800" enable-background="new 0 0 1200 800" xml:space="preserve">
<radialGradient id="ghost_4_" cx="841" cy="-203" r="894.1968" gradientTransform="matrix(1 0 0 1 358 206)" gradientUnits="userSpaceOnUse">
	<stop  offset="0" style="stop-color:#5C92BF"/>
	<stop  offset="1" style="stop-color:#497DDD"/>
</radialGradient>
<rect id="ghost_2_" fill="url(#ghost_4_)" width="1200.732" height="298.982"/>
<linearGradient id="ghost_5_" gradientUnits="userSpaceOnUse" x1="-19.5596" y1="793.4648" x2="503.5618" y2="-112.6082" gradientTransform="matrix(1 0 0 1 358 206)">
	<stop  offset="0" style="stop-color:#00A99D"/>
	<stop  offset="0.6" style="stop-color:#264D67"/>
	<stop  offset="1" style="stop-color:#294663"/>
</linearGradient>
<rect id="ghost_1_" x="-0.366" y="289.001" fill="url(#ghost_5_)" width="1200.732" height="514.854"/>
<g id="tree-trunk">
	<polygon fill="#4F4B48" stroke="#474444" stroke-width="3" stroke-miterlimit="10" points="276.661,653.658 350.009,618.773 
		332.119,587.467 307.968,570.472 313.335,531.114 328.541,489.968 340.169,464.028 383.104,455.978 398.311,455.978 
		426.934,455.978 441.246,445.244 453.77,433.317 486.249,426.46 514.594,410.34 550.373,391.575 583.469,379.041 611.197,368.318 
		643.399,368.318 700.646,379.041 731.953,385.222 784,358 777.571,351.323 759.682,358.479 737.319,368.318 715.852,369.213 
		701.54,367.424 719.43,351.323 739,337 733.742,328.067 708.696,348.64 689.912,357.584 669.339,352.218 650.555,347.745 
		634.454,342.378 616.564,348.64 592.414,346.851 635.349,328.067 655.027,313.755 680.967,307.494 708.696,307.494 
		736.425,301.232 745.37,301.232 767.732,291.393 794.566,265.453 811.562,256.508 838.396,256.508 876.857,236.83 914.427,213.573 
		937.684,188.527 951.102,151.854 951.102,136.647 939.473,136.647 929.633,168.849 917.11,188.527 899.221,209.101 
		879.542,220.729 867.914,220.729 872.387,199.261 870.598,175.11 858.074,160.798 849.13,169.743 852.708,185.844 856.286,200.156 
		851.812,222.518 823.189,235.041 806.194,240.407 789.199,243.985 765.943,269.031 742.688,286.026 714.062,286.026 
		721.219,255.614 730.164,236.83 726.586,223.412 730.164,213.573 734.636,189.422 768,161 760.5,151 730.164,176.899 
		712.274,157.221 683.65,144.698 674.706,159.01 697.622,167.955 712.274,186.738 714.062,203.734 705.118,236.83 697.622,256.508 
		684.545,274.398 668.444,288.709 631.771,302.127 613.881,307.495 590.625,319.122 573.629,331.645 558.423,334.328 
		540.534,356.69 524.433,367.424 524.433,335.223 531.255,301.232 543.217,277.081 542.322,253.825 562.896,219.834 
		582.574,182.266 591.519,158.115 598.675,136.647 613.881,109.813 604.042,94.171 597.78,104.446 592.414,119.652 584,138 
		578.996,156.326 568.263,172.427 550.373,209.995 537.85,234.146 519.066,243.985 499.387,228.779 486.249,222.518 
		464.502,211.784 453.77,197.472 436.773,183.161 420.673,158.115 417.989,142.014 404.572,140.226 408.15,163.482 419.778,191.211 
		427.829,204.628 409.044,198.367 394.733,196.578 368,170 354.481,177.793 367.898,204.628 390.261,218.94 409.044,218.045 
		429.618,222.518 447.507,230.568 469.87,237.724 486.249,245.774 496.704,261.875 502.071,282.448 497.598,303.916 
		486.249,331.645 479.708,363.846 453.77,385.222 429.618,388.892 394.733,396.941 374.16,395.153 350.009,396.941 333.014,385.222 
		338.38,354.007 337.486,335.223 335.697,299.443 336.592,269.925 325,249 325,219.5 314.5,191 317.811,168.849 328.541,149.17 
		313.335,144.698 299.918,168.849 297.5,192.5 307.074,222.518 307.648,241.576 291.5,221.5 269.505,197.472 239.987,184.055 
		210.47,176.899 192.58,166.166 178,137 169,140 192.58,180.477 172.007,190.316 145.172,178.688 125.494,158.115 111,130 
		99.554,132.175 109.393,168.849 125.494,189.422 132.649,200.156 99.554,203.734 83,202.5 60.196,189.422 40.518,177.793 
		27.119,167 19.05,148.276 11,165.271 37.834,199.261 57.513,209.101 66.458,218.94 86.137,227.885 112.077,223.412 138.911,218.94 
		164.851,214.467 190.791,209.101 205.997,204.628 230.148,208.206 248.932,220.729 267.175,230.601 290.079,263.664 
		310.651,278.87 311.546,315.544 308.863,341.484 307.968,363.846 305.285,379.041 290.973,395.153 283.817,410.34 265.033,437.193 
		240.882,462.239 219.415,490.862 196.158,508.752 162.167,522.169 147.856,554.371 208.681,595.517 	"/>
	<polygon id="constraint" opacity="0.1" fill="#00A980" enable-background="new    " points="214.11,420.59 502.096,400 
		487.923,437.688 422.821,600.581 272.607,680.763 89.5,530.085 	"/>
</g>
<g id="cloud">
	<rect id="constraint-trunk" x="155.75" y="128.125" fill="#FF00ED" width="31" height="16.75"/>
	<rect id="constraint-trunk_3_" x="305" y="136.5" fill="#FF00ED" width="31" height="16.75"/>
	<rect id="constraint-trunk_1_" x="89.5" y="122.625" fill="#FF00ED" width="31" height="16.75"/>
	<rect id="constraint-trunk_2_" x="2" y="139.375" fill="#FF00ED" width="20.708" height="29.125"/>
	<polygon fill="#425B1F" stroke="#627738" stroke-miterlimit="10" points="-5.5,172 -16.5,131 -5.5,106 23.5,70 94.5,70 
		118.5,82.171 143.5,59 197.5,49 333,52 354,56 376,64 390,104 377,120.278 365,130 349,148 333,153 309,157 284,151 274,150 
		264,151 219.5,136 206.5,148 183,158.317 165.5,161 144.5,162 135.5,154 125.5,153 119.472,157.07 97.839,163.169 77.5,172 
		70.5,172.153 34,179.5 6.5,182 	"/>
</g>
<g id="cloud_1_">
	
		<rect id="constraint-trunk_6_" x="350.333" y="168.333" fill="#FF3F98" stroke="#627738" stroke-miterlimit="10" width="26" height="13.667"/>
	
		<rect id="constraint-trunk_5_" x="399.666" y="129.666" fill="#FF3F98" stroke="#627738" stroke-miterlimit="10" width="24.667" height="20"/>
	<polygon id="constraint-trunk_4_" fill="#FF15F3" stroke="#627738" stroke-miterlimit="10" points="593.999,95.001 
		617.999,122.668 630.666,103.334 603.332,87.334 	"/>
	<polygon fill="#425B1F" stroke="#627738" stroke-miterlimit="10" points="338.5,199 372.5,199 385.5,182 398.5,167 
		422.173,158.115 437.5,158.115 455.5,148 470.5,128 478.5,114.445 494.5,125 517.5,128 541.5,125 631.5,127 644.5,121 652.5,107 
		658.5,73 646.5,46.89 609.5,40 557.5,40 519.5,55 482.55,68 435.5,81 421.5,94.171 418.5,101 391.5,104 361.5,105 331.5,130 
		317.345,163 317.345,182 	"/>
</g>
<g id="cloud_2_">
	<polygon id="constraint-trunk_9_" fill="#C800D4" stroke="#627738" stroke-miterlimit="10" points="671.25,159 675,161 
		691.25,141.25 682,139 	"/>
	<polygon id="constraint-trunk_8_" fill="#C800D4" stroke="#627738" stroke-miterlimit="10" points="756.75,150.125 772.5,168.125 
		775.625,160.125 760.125,145.875 	"/>
	<polygon id="constraint-trunk_7_" fill="#C800D4" stroke="#627738" stroke-miterlimit="10" points="842.625,167.75 847.25,175.375 
		872.125,160.875 859.125,154.5 	"/>
	<polygon id="constraint-trunk_12_" fill="#C800D4" stroke="#627738" stroke-miterlimit="10" points="929.999,132.002 
		928.666,142.669 962.999,141.335 961.333,130.669 	"/>
	<polygon fill="#425B1F" stroke="#627738" stroke-miterlimit="10" points="620.5,156 631.5,164 672.5,164 694.5,156 
		705.279,153.504 718.5,152.139 735.146,161.571 745.5,158.547 754.92,160.798 764.5,182 793.5,173 806.5,173 817.5,162.611 
		826.5,167 839.5,182 862.5,182 896.5,158 906.5,149.684 930.5,153 952.602,151.854 978.5,139 991.5,102 978.5,78 918.5,66 
		856.5,85 831.5,104 797.5,99 739.5,94.171 714.5,107 670.5,108 627.5,135 	"/>
</g>
<g id="cloud_3_">
	<polygon id="constraint-trunk_10_" fill="#FF15E2" stroke="#627738" stroke-miterlimit="10" points="725,324.333 737.666,342 
		751,329.667 	"/>
	<polygon id="constraint-trunk_11_" fill="#FF15E2" stroke="#627738" stroke-miterlimit="10" points="762,345.667 782.333,365 
		799,345.667 	"/>
	<polygon fill="#425B1F" stroke="#627738" stroke-miterlimit="10" points="813.5,383 768.5,375.173 698.5,348 688.5,322 711.5,301 
		801.5,311 823.5,337 835.5,366 	"/>
</g>
<polygon id="ghost" fill="#B5C0B0" stroke="#4C4C44" stroke-width="2" stroke-miterlimit="10" points="0.6,382.228 41.695,375.173 
	179.23,398.518 234.81,420.81 253.502,437.688 272.413,471.539 265.269,540.645 268.673,567.447 511.428,665.756 544.501,695.77 
	775.033,688.133 800.533,703.289 809.357,706.209 1023.252,676.516 1058.677,703.779 1066.011,706.035 1123.125,686.748 
	1132.219,661.344 1136.719,625.428 1156.763,588.309 1200.6,559.828 1200.732,794.229 1195,799.957 6.2,800 0.522,793.428 "/>
<g id="ghost_3_">
	<polygon fill="#8B9786" stroke="#5B5B53" stroke-miterlimit="10" points="-3.727,469.104 9.334,463.866 94.787,466.873 
		140.024,440.812 200.205,454.769 253.502,437.688 272.413,471.539 267.553,527.188 297,579 268.673,567.447 262.699,550.717 
		156.02,522.801 145.202,503.797 68.43,497.018 43.022,478.742 -3.727,472.268 	"/>
	<polygon fill="#8B9786" stroke="#5B5B53" stroke-miterlimit="10" points="1210.051,607.792 1186.817,631.701 1182.751,655.028 
		1174.831,663.221 1146.334,672.332 1123.125,686.748 1133.667,624.332 1144.524,603.492 1157.061,586.64 1174.334,600.998 	"/>
	<polygon fill="#8B9786" stroke="#5B5B53" stroke-miterlimit="10" points="422.821,687.655 483.5,679 511.428,665.756 
		531.666,676.333 539.666,686.333 544.501,695.77 	"/>
</g>
</svg>
