<?xml version="1.0" encoding="utf-8"?>
<!-- Generator: Adobe Illustrator 16.0.0, SVG Export Plug-In . SVG Version: 6.00 Build 0)  -->
<!DOCTYPE svg PUBLIC "-//W3C//DTD SVG 1.1//EN" "http://www.w3.org/Graphics/SVG/1.1/DTD/svg11.dtd">
<svg version="1.1" id="Layer_1" xmlns="http://www.w3.org/2000/svg" xmlns:xlink="http://www.w3.org/1999/xlink" x="0px" y="0px"
	 width="1200px" height="800px" viewBox="0 0 1200 800" enable-background="new 0 0 1200 800" xml:space="preserve">
<g id="Layer_1_1_">
	<g id="bg">
		
			<linearGradient id="ghost_4_" gradientUnits="userSpaceOnUse" x1="-922.3682" y1="228.7866" x2="-922.3682" y2="-70.1968" gradientTransform="matrix(0.9992 0 0 1.293 1525.2268 90.7639)">
			<stop  offset="0" style="stop-color:#A3D3FF"/>
			<stop  offset="0.1182" style="stop-color:#91C7F8"/>
			<stop  offset="0.3548" style="stop-color:#71B3EC"/>
			<stop  offset="0.5852" style="stop-color:#5BA4E4"/>
			<stop  offset="0.8042" style="stop-color:#4E9BDF"/>
			<stop  offset="1" style="stop-color:#4998DD"/>
		</linearGradient>
		<rect id="ghost_2_" x="3.728" fill="url(#ghost_4_)" width="1199.738" height="386.586"/>
		<rect x="-0.366" y="383" display="none" fill="#B5C0B0" width="1200.732" height="514.854"/>
		<g>
			
				<radialGradient id="ghost_5_" cx="-808.3618" cy="325.4785" r="723.312" gradientTransform="matrix(1 0 0 1 1526 70)" gradientUnits="userSpaceOnUse">
				<stop  offset="0" style="stop-color:#264D67"/>
				<stop  offset="1" style="stop-color:#00A99D"/>
			</radialGradient>
			<rect id="ghost_1_" x="0.261" y="385" fill="url(#ghost_5_)" width="1200.732" height="417"/>
			<path opacity="0.1" enable-background="new    " d="M837.408,626.475l-35.709-5.473l-19.971,0.486l-0.553-0.957l1.021-16.847
				l-6.896-9.431l-18.117-6.703l-40.33-1.506l-13.67-4.494L677.697,579l-35.709,5.473l-17.188,6.491l-1.207,0.375l-7.754,1.885
				l-17.258,3.364l-7.764,1.101L560,601.849l-27.604-4.391l-114.382-7.873l-60.932,13.583l-24.182-4.62l-54.503,2.688l-13.156,3.143
				l-5.234,1.342l-8.38,1.792l-4.031,0.739l-1.009,0.146l-15.522,1.988l-25.179,3.334l-8.586-2.048l-57.604-4.671l-29.789,3.341
				l-4.401-0.034l-0.593-0.01l-48.642-4.63l-22.284,4.806l-5.582,2.362L-2.3,609.002l-35.709,5.473L-52.8,627.688l36.747,28.786
				l36.087,3.488l37.53-4.12l11.246-2.663l60.378,2.644l18.594-4.52l7.041,3.164l38.877,5.904l35.709-5.473l10.724-6.02l4.255-0.736
				l32.498-4.199l11.587-1.738l6.347,13.688l5.416,6.947l-1.033,2.844l4.117,7.592l-95.151,22.545l-2.177,0.878l-2.608,0.133
				l-3.681,0.17l-35.709,5.473L149.2,715.688l3.229,6.741l-6.217,1.124l-23.208,11.167l-1.585,6.213L76.51,765.122l-28.81-0.12
				l-43.605,9.254l-6.895,9.433L11.991,796.9l21.062,5.759l26.174,17.119l-6.223,14.877l12.987,8.245l35.709,5.473l122.919-5.027
				l70.846,24.508l-36.289,12.416l-105.081,51.988l-5.091,14.397l23.208,11.167l38.913,1.884l30.181-8.587l41.362-24.107
				l80.672-31.642l38.609-12.159l7.46-2.311l6.422-2.855l35.475-18.926l6.896-9.431l-14.791-13.214l-108.873-31.928l-9.084-5.353
				l-22.264-9.644l-11.64-1.839l0.717-1.119l14.857-0.891l35.271-13.051l-3.356-13.084l-11.985-8.47l21.237-1.943l22.896-3.336
				l23.208-11.167l0.155-9.638l12.855-4.118l6.11-2.777l1.668-0.3l23.989-19.912l1.946-0.204l22.284-4.807l13.253-8.459
				l11.734,1.354l3.064,0.57l0.077,0.016l40.16,5.991l25.486-2.551L580.106,679l55.577-11.721l2.523,0.539l25.488,2.551
				l25.486-2.551l17.791-6.524l108.146-3.592l22.283-4.806l14.791-13.214L837.408,626.475L837.408,626.475z M278.895,671.627
				l-0.578,0.186L278.895,671.627L278.895,671.627z"/>
			
				<linearGradient id="SVGID_1_" gradientUnits="userSpaceOnUse" x1="398.5962" y1="424" x2="398.5962" y2="841" gradientTransform="matrix(1 0 0 1 205 -41)">
				<stop  offset="0" style="stop-color:#8ABDFF"/>
				<stop  offset="0.0163" style="stop-color:#549DE8"/>
				<stop  offset="0.1249" style="stop-color:#5EA6ED;stop-opacity:0.8896"/>
				<stop  offset="0.3877" style="stop-color:#6FB6F7;stop-opacity:0.6225"/>
				<stop  offset="0.6692" style="stop-color:#7ABFFD;stop-opacity:0.3363"/>
				<stop  offset="1" style="stop-color:#7DC2FF;stop-opacity:0"/>
			</linearGradient>
			<rect x="6.2" y="383" fill="url(#SVGID_1_)" width="1194.793" height="417"/>
		</g>
	</g>
	<g id="tree-trunk">
		<polygon fill="#3D3B39" stroke="#2D2625" stroke-miterlimit="10" points="276.661,653.658 350.009,618.773 332.119,587.467 
			307.968,570.472 313.335,531.114 328.541,489.968 340.169,464.028 383.104,455.978 398.311,455.978 426.934,455.978 
			441.246,445.244 453.77,433.317 486.249,426.46 514.594,410.34 550.373,391.575 583.469,379.041 611.197,368.318 643.398,368.318 
			700.646,379.041 731.953,385.222 784,358 777.571,351.323 759.682,358.479 737.319,368.318 730.5,371.25 701.54,367.424 
			719.43,351.323 739,337 733.742,328.067 708.696,348.64 689.912,357.584 669.339,352.218 650.555,347.745 634.454,342.378 
			616.564,348.64 592.414,346.851 635.349,328.067 655.027,313.755 680.967,307.494 708.696,307.494 736.425,301.232 
			745.37,301.232 767.732,291.393 794.566,265.453 811.562,256.508 838.396,256.508 876.857,236.83 914.427,213.573 
			943.967,171.354 951.102,151.854 951.102,136.647 939.473,136.647 929.633,168.849 917.11,188.527 899.221,209.101 
			879.542,220.729 864.502,229.167 872.387,199.261 870.598,175.11 858.074,160.798 849.13,169.743 852.708,185.844 
			856.286,200.156 842.625,237.5 822.502,237.167 806.194,240.407 789.199,243.985 765.943,269.031 742.688,286.026 704.5,284.833 
			718.834,265.832 725,239.165 726.586,223.412 730.164,213.573 734.636,189.422 768,161 760.5,151 730.164,176.899 
			712.273,157.221 683.65,144.698 674.706,159.01 697.622,167.955 712.273,186.738 714.062,203.734 705.118,236.83 697.622,256.508 
			684.545,274.398 668.444,288.709 631.771,302.127 613.881,307.495 590.625,319.122 573.629,331.645 558.423,334.328 
			540.534,356.69 524.433,367.424 524.433,335.223 531.255,301.232 543.217,277.081 542.322,253.825 562.896,219.834 
			582.574,182.266 591.52,158.115 598.675,136.647 613.881,109.813 604.042,94.171 597.78,104.446 592.414,119.652 584,138 
			578.996,156.326 568.263,172.427 550.373,209.995 537.85,234.146 519.066,243.985 499.387,228.779 486.249,222.518 
			464.502,211.784 453.77,197.472 436.773,183.161 420.673,158.115 417.989,142.014 404.572,140.226 408.15,163.482 
			419.778,191.211 427.829,204.628 409.044,198.367 386.5,197.5 364.474,172.033 354.481,177.793 367.898,204.628 390.261,218.94 
			409.044,218.045 429.618,222.518 447.507,230.568 469.87,237.724 486.249,245.774 496.704,261.875 502.071,282.448 
			497.598,303.916 486.249,331.645 479.708,363.846 453.77,385.222 429.618,388.892 394.733,396.941 374.16,395.153 
			350.009,396.941 333.014,385.222 338.38,354.007 337.486,335.223 335.697,299.443 336.592,269.925 325,249 325,219.5 314.5,191 
			317.811,168.849 328.541,149.17 313.335,144.698 299.918,168.849 297.5,192.5 307.074,222.518 307.648,241.576 291.5,221.5 
			269.505,197.472 239.987,184.055 210.47,176.899 192.58,166.166 178,137 169,140 178.499,164.167 192.58,180.477 176.167,189.5 
			155.75,193.47 132.833,176.167 119.472,157.07 111,130 99.554,132.175 109.393,168.849 125.494,189.422 132.649,200.156 
			99.554,203.734 83,202.5 60.196,189.422 40.518,177.793 27.119,167 19.05,148.276 11,165.271 37.834,199.261 57.513,209.101 
			66.458,218.94 86.137,227.885 112.077,223.412 138.911,218.94 164.851,214.467 190.791,209.101 205.997,204.628 230.148,208.206 
			248.932,220.729 267.175,230.601 290.079,263.664 306.5,283.167 311.546,315.544 308.863,341.484 307.968,363.846 
			305.285,379.041 290.973,395.153 283.817,410.34 265.033,437.193 240.882,462.239 219.415,490.862 196.158,508.752 
			162.167,522.169 147.856,554.371 208.681,595.517 		"/>
		<polygon id="constraint" fill="#00A980" fill-opacity="0" points="214.11,420.59 502.096,400 487.923,437.688 422.821,600.581 
			272.607,680.763 89.5,530.085 		"/>
		<g id="decoration">
			<polygon fill="#2D3133" points="731.832,378.832 690.167,371.167 678.5,364 627.833,359.498 597.166,366.165 567.833,367.833 
				540.346,385.059 487.345,410.057 450.499,418.166 417.5,436.688 348.833,451.5 305.5,457.5 289.5,476.5 279.5,513.5 256.5,565.5 
				268.5,596.5 268.5,645.678 276.661,652.658 350.009,617.773 332.119,586.467 307.968,569.472 313.335,530.114 328.541,488.968 
				340.169,463.028 383.104,454.978 398.311,454.978 426.934,454.978 441.246,444.244 453.77,432.317 486.249,425.46 
				514.594,409.34 550.373,390.575 583.469,378.041 611.197,367.318 643.398,367.318 700.646,378.041 731.953,384.222 784,357 
				745.5,374.173 			"/>
			<polygon fill="#2D3133" points="872.125,235 846.586,245 819.598,251.623 810.25,251.745 793.75,263 766.167,286.5 
				748.19,293.555 741.834,294.499 711.5,293.834 702.167,300 682.833,300 672.586,299.494 646.224,306.397 631.688,318.611 
				615.883,327.041 600.627,333.499 582.738,348.483 592.414,345.851 635.349,327.067 655.027,312.755 680.967,306.494 
				708.696,306.494 736.425,300.232 745.37,300.232 767.732,290.393 794.566,264.453 811.562,255.508 838.396,255.508 
				876.857,235.83 914.427,212.573 			"/>
			<polygon fill="#2D3133" points="469.5,226.5 439.75,220 412,208.5 390,211.25 368.766,204.183 377.415,209.718 390.261,217.94 
				409.044,217.045 429.618,221.518 447.507,229.568 469.87,236.724 486.249,244.774 496.704,260.875 489,239.5 			"/>
			<polygon fill="#2D3133" points="271.163,220.163 226.496,198 193.163,198 155.75,204.316 120.5,216.163 94.496,216.163 
				77.829,216.163 63.829,204.183 33.263,192.47 33.266,192.474 38.669,198.678 57.513,208.101 66.458,217.94 86.137,226.885 
				112.077,222.412 138.911,217.94 164.851,213.467 190.791,208.101 205.997,203.628 230.148,207.206 248.932,219.729 
				267.175,229.601 290.079,262.664 306.5,282.167 292.834,260.875 			"/>
			<polygon fill="#2D3133" points="408.135,162.384 425,192 438.167,205 427.829,203.628 419.778,190.211 			"/>
			<polygon fill="#2D3133" points="99.554,131.175 112.75,168 132,188 140,196.5 132.649,199.156 125.494,188.422 109.393,167.849 
							"/>
			<polygon fill="#2D3133" points="674.706,158.01 691.25,160 702,167.125 712.273,185.738 697.622,166.955 			"/>
			<polygon fill="#2D3133" points="734.636,188.422 746.713,173.216 769.5,158.01 			"/>
			<polygon fill="#686765" points="334,271 335.824,295.268 336.592,269.925 328.17,254.722 328.5,267 			"/>
			<polygon fill="#686765" points="810.25,242.167 822.502,237.167 813.827,238.891 806.194,240.407 793.195,243.144 803.5,244.75 
							"/>
			<polygon fill="#686765" points="256.5,201.5 266.5,201.5 276.764,205.402 269.505,197.472 239.987,184.055 228.559,181.285 
				238,190.09 			"/>
			<polygon fill="#686765" points="600,318.25 634.166,303.5 658.352,296.477 667.622,289.01 631.771,302.127 613.881,307.495 
				590.625,319.122 573.629,331.645 558.423,334.328 575.5,334.833 579,337.165 			"/>
			<polygon fill="#686765" points="475.183,221.962 498.167,229.167 507.167,241.167 519.833,253.833 530.624,248.903 
				544.833,227.833 554.734,200.836 550.373,209.995 537.85,234.146 519.066,243.985 499.387,228.779 486.249,222.518 
				464.502,211.784 453.77,197.472 445.003,190.09 451.833,204.498 			"/>
			<polygon fill="#686765" points="356.501,405.834 378.167,410.167 392.501,404.834 417.834,408.167 430.5,396.5 457.167,386.167 
				479.708,363.846 453.77,385.222 429.618,388.892 394.733,396.941 374.16,395.153 350.009,396.941 333.014,385.222 341.834,400 
							"/>
		</g>
	</g>
	<g id="leaves_3_">
		<rect id="constraint-trunk" x="155.75" y="128.125" fill="#FF00ED" width="31" height="16.75"/>
		<rect id="constraint-trunk_3_" x="305" y="136.5" fill="#FF00ED" width="31" height="16.75"/>
		<rect id="constraint-trunk_1_" x="89.5" y="122.625" fill="#FF00ED" width="31" height="16.75"/>
		<rect id="constraint-trunk_2_" x="2" y="139.375" fill="#FF00ED" width="20.708" height="29.125"/>
		<g id="decoration_4_">
			<path fill="#586624" d="M333.588,157.142l-163.707-42.174L22.5,182.5c-1.126,0.147-2.046-0.272-2.719-0.97
				c-3.38,0.019-6.754-0.153-10.116-0.476c-6.956,0.01-14.086-1.51-20.229-3.364c-3.548-1.07-3.49-5.111-1.334-6.925
				c-2.117-0.872-4.215-1.8-6.288-2.811c-3.443-1.679-2.022-6.29,0.974-7.252c-1.22-0.682-2.442-1.362-3.64-2.082
				c-3.873-2.326-1.334-8.554,3.083-7.311c1.011,0.285,2.018,0.581,3.025,0.875c-1.954-1.736-3.825-3.569-5.584-5.523
				c-1.854-2.06-1-5.067,0.88-6.339c-1.215-1.674-2.396-3.377-3.506-5.137c-0.917-1.455-0.55-3.215,0.425-4.484
				c-0.274-0.603-0.38-1.193-0.347-1.754l-0.226-0.239c-0.864-0.893-1.718-1.795-2.56-2.713c-2.622-2.858-0.099-6.755,2.832-6.886
				c-0.413-0.95-0.815-1.907-1.194-2.879c-1.096-2.812,1.922-5.355,4.522-5.057c0.011-3.213,4.464-5.644,6.83-2.835
				c0.229,0.271,0.458,0.543,0.687,0.815c1.087-2.708,5.588-3.878,7.188-0.812C-7.584,99.123-10,86.625-9.125,82.5
				C-7.88,76.63-5.607,77.522-4,81.125c1.518,3.404,2.084,4.229,3.019,7.835c1.969-0.876,4.529-0.295,5.338,2.477
				c0.816,2.798,1.518,5.655,2.182,8.535c-0.002-0.062-0.005-0.124-0.006-0.186c-0.308-2.198-0.56-4.402-0.699-6.619
				c-0.064-1.02,0.294-1.878,0.883-2.536c0.459-6.798,1.675-13.534,3.926-19.861c0.925-2.601,4.58-4.227,6.686-1.765
				c0.555,0.649,1.066,1.319,1.544,2.003c0.271-2.308,0.621-4.61,1.104-6.905c0.859-4.082,6.575-3.55,7.714,0
				c0.268,0.835,0.501,1.671,0.715,2.508c1.793-2.47,3.569-4.953,5.308-7.463c2.716-3.922,8.796-0.867,7.307,3.214
				c1.281-0.964,2.803-0.783,4.006,0.016c3.029-2.867,6.283-5.448,9.798-7.643c0.283-0.354,2.856-1.15,3.301-1.234
				c2-0.375,5.17,0.415,4.412,3.755c-0.019,0.317-0.067,0.642-0.18,0.975c-0.136,0.402-0.293,0.791-0.438,1.188
				c1.052-0.814,2.122-1.611,3.229-2.372c2.797-1.923,6.692,1.104,5.941,4.239c0.893-0.544,1.801-1.069,2.726-1.572
				c2.307-1.254,4.789-0.033,5.669,1.955c0.334-0.205,0.657-0.423,0.997-0.622c2.796-1.636,7.22,1.112,5.876,4.518
				c-0.021,0.054-0.047,0.105-0.068,0.159c1.139,0.582,1.973,1.69,2.122,3.04c1.101-0.828,2.226-1.632,3.404-2.383
				c2.414-1.538,4.766-0.092,5.583,2.042c1.839-1.64,3.744-3.22,5.75-4.708c2.764-2.05,5.747,0.645,5.9,3.464
				c0.397-0.079,0.818-0.086,1.255-0.013c1.672-2.152,3.263-4.372,4.743-6.683c2.33-3.638,3.74-1.296,4.829,1.144
				c1.42,3.182,1.363,4.497,1.017,5.243c1.128-0.575,2.465-0.649,3.627,0.178c1.528,1.088,3.066,2.162,4.602,3.239
				c-1.582-2.581-3.142-5.185-4.741-7.766c-2.067-3.337,2.062-7.265,5.089-5.802c1.067-1.243,2.776-1.963,4.273-1.49
				c1.376-2.187,4.935-2.928,6.88-0.08c1.175,1.722,2.313,3.463,3.448,5.202c1.169,1.47,2.439,2.852,3.784,4.165
				c-0.916-1.82-1.754-3.698-2.543-5.618c-1.684-4.096,5.083-7.019,7.162-3.329c-0.413-1.33-0.808-2.663-1.162-4.004
				c-1.139-4.311,4.109-6.332,6.682-3.787c0.664-3.232,4.842-4.282,6.949-1.64c1.417-1.117,3.828-1.011,5.406,0.299
				c0.77-1.43,2.43-1.996,4.005-1.804c0.098-0.398,0.189-0.798,0.292-1.195c1.136-4.395,7.883-3.447,7.857,1.063
				c-0.008,1.357-0.033,2.718-0.061,4.078c0.913-3.453,1.875-6.882,3.274-10.097c1.405-3.229,6.44-2.155,7.323,0.82
				c0.828-0.288,1.738-0.214,2.572,0.122c0.675-0.815,1.362-1.623,2.064-2.419c2.41-2.731,6.746-0.46,6.829,2.829
				c0.055,2.188-0.157,4.312-0.545,6.393c1.368-1.391,2.851-2.693,4.526-3.847c3.175-2.187,6.438,1.397,5.876,4.518
				c-0.145,0.806-0.334,1.592-0.542,2.371c3.653-3.192,7.62-5.997,12.288-7.958c3.507-1.474,5.96,3.127,4.518,5.876
				c-0.786,1.496-1.65,2.935-2.563,4.338c2.86-1.956,5.86-3.713,9.09-5.145c1.515-0.671,2.945-0.503,4.024,0.145
				c1.396-0.666,2.812-1.303,4.265-1.881c1.261-0.502,2.467-0.175,3.384,0.572c2.277-1.471,4.606-2.868,6.994-4.169
				c1.433-0.781,2.847-0.624,3.943,0.039c2.986-0.744,5.805,3.272,4.197,6.1c-0.452,0.794-0.934,1.563-1.429,2.321
				c1.393-0.53,2.804-1.011,4.229-1.453c4.829-2.029,9.89-3.383,15.079-3.554c2.038-0.067,3.35,1.281,3.753,2.935
				c7.122-4.751,4.623-1.706,11.808-6.389c4.052-2.641,13.66-2.161,12.285,1.213c-0.971,2.384-0.407,2.265-2.222,4.073
				c0.492,1.048,0.506,2.314-0.224,3.541c0.298-0.11,0.597-0.22,0.896-0.33c4.527-2.324,9.36-3.88,14.371-3.71
				c1.947,0.066,3.267,1.272,3.728,2.78c2.791-1.444,5.606-2.835,8.543-3.971c3.661-1.416,4.622,0.609,3.729,4.357
				c-0.191,0.805-1.14,3.349-1.796,3.854c6.947-2.643,13.851-5.401,20.733-8.211c2.76-1.127,4.885,1.417,4.958,3.911
				c1.677-0.455,3.359-0.87,5.042-1.245c3.877-0.864,5.96,3.275,4.456,5.919c0.417-0.285,0.831-0.573,1.255-0.849
				c3.412-2.22,7.53,2.397,5.628,5.399c3.268-0.397,5.856,4.121,3.22,6.884c-1.538,1.611-3.169,3.097-4.867,4.496
				c0.456-0.004,0.912-0.009,1.372,0.009c2.769,0.108,4.977,3.344,3.696,5.762c5.861-0.759,5.821-1.134,11.729-1.448
				c4.479-0.238,6.219-0.223,5.74,3.687c-0.143,1.166-1.076,4.279-2.231,4.468c-0.31,0.639-0.822,1.215-1.581,1.652
				c-0.971,0.559-1.954,1.044-2.947,1.477c0.439,1.524,0.145,3.234-1.25,4.221c1.431,0.812,2.285,2.516,2.124,4.12
				c2.328,1.461,3.091,5.259,0.073,6.848c-1.004,0.528-2.03,1.038-3.065,1.539c3.007,0.885,4.57,5.067,1.065,7.128
				c-1.329,0.781-2.692,1.547-4.081,2.284c1.992,1.264,2.81,4.567,0.891,6.424c-6.605,6.39-14.409,10.755-22.641,14.342
				c2.703-0.758,5.401-1.531,8.082-2.361c4.28-1.327,7.218,5.357,3.083,7.311c-3.677,1.736-7.447,2.966-11.282,3.795
				c0.879,1.733,0.436,4.208-1.385,5.538c-3.981,2.908-8.501,4.493-13.253,5.332c-0.461,0.847-1.239,1.513-2.369,1.738
				c-5.168,1.029-10.275,1.504-15.338,1.561c0.271,1.245,0.028,2.558-0.76,3.461"/>
			<path fill="#3B4F1B" d="M403.954,120.519c2.322-3.46-2.552-7.665-5.571-5.505c0.905-1.462,1.772-2.953,2.571-4.495
				c2.382-4.597-4.067-8.338-6.908-4.038c-1.295,1.96-2.562,3.979-3.847,6.001c-0.748-2.348-3.295-4.191-5.718-2.436
				c-3.615,2.619-6.895,5.663-10.098,8.789c-1.479-1.34-3.96-1.763-5.713-0.163c-0.957,0.873-1.876,1.781-2.788,2.696
				c-0.445-0.005-0.929,0.081-1.447,0.276c-0.026,0.01-0.053,0.022-0.079,0.032c0.65-0.754,1.284-1.514,1.898-2.28
				c0.024-0.022,0.048-0.045,0.072-0.067c-0.004-0.003-0.008-0.006-0.012-0.009c0.213-0.267,0.43-0.532,0.637-0.8
				c2.903-3.765-3.084-7.723-6.283-4.848c-1.504,1.352-2.972,2.738-4.423,4.14c-1.402-1.269-3.67-1.695-5.577-0.14
				c-1.975,1.612-3.867,3.31-5.726,5.042c-0.81-1.25-2.27-2.001-4.176-1.404c-6.85,2.146-13.702,4.349-20.593,6.419
				c-0.633-0.776-1.625-1.286-3.01-1.229c-2.214,0.089-4.422,0.256-6.627,0.461c0.054-0.043,0.109-0.083,0.163-0.126
				c1.378-0.828,2.704-1.766,3.959-2.84c2.301-1.97,1.126-5.06-1.032-6.291c0.347-0.343,0.694-0.685,1.032-1.042
				c3.23-3.417-0.817-8.231-4.848-6.283c-3.82,1.848-7.604,3.756-11.387,5.644c-0.524-0.126-1.082-0.158-1.658-0.046
				c-5.324,1.035-10.515,2.638-15.691,4.287c-0.145-1.29-0.909-2.511-2.033-3.186c-0.128-2.59-2.782-4.932-5.897-3.364
				c-4.746,2.388-9.457,4.885-14.192,7.325c-0.617-0.105-1.233-0.211-1.85-0.317c1.516-2.268,0.128-5.358-2.3-6.043
				c1.289-1.335,2.589-2.66,3.857-4.016c3.599-3.848-1.711-8.831-5.657-5.657c-2.306,1.855-4.509,3.821-6.662,5.842
				c-0.788-0.525-1.76-0.715-2.799-0.354c-0.252,0.025-0.51,0.071-0.774,0.15c-0.837,0.249-1.668,0.518-2.494,0.804
				c-0.684-0.924-1.75-1.583-3.109-1.614c-3.946-0.091-7.95,0.126-11.947,0.63c-0.1-1.381-0.997-2.701-2.237-3.414
				c1.096-3.45-3.502-7.195-6.644-4.044c-1.268,1.271-2.523,2.555-3.783,3.834c-1.256-0.539-2.806-0.424-4.217,0.833
				c-2.955,2.631-5.843,5.374-8.738,8.118c-0.916-0.329-1.987-0.226-3.077,0.562c-1.061-1.119-2.765-1.613-4.709-0.639
				c-0.084,0.042-0.168,0.085-0.252,0.127c0.04-0.094,0.089-0.181,0.128-0.276c1.468-3.548-3.118-5.907-5.876-4.517
				c-1.246,0.628-2.417,1.354-3.539,2.142c-0.981-2.475-4.61-3.902-6.604-1.517c-0.295,0.353-0.567,0.719-0.851,1.078
				c-0.846-0.644-1.907-0.978-2.925-0.892c-0.883-0.312-1.747-0.655-2.59-1.029c-0.035-0.554-0.074-1.107-0.139-1.662
				c-0.415-3.537-4.627-5.112-6.808-2.922c-0.733-0.719-1.422-1.506-2.06-2.37c-0.181-0.883-0.648-1.53-1.279-1.96
				c-0.38-0.663-0.739-1.358-1.066-2.101c-1.887-4.278-8.368-1.16-7.311,3.083c0.147,0.592,0.295,1.185,0.442,1.776
				c-0.195-0.008-0.386-0.002-0.579,0.016c-1.894-2.41-3.756-4.847-5.844-7.018c-1.13-1.175-2.532-1.387-3.772-1.011
				c-1.022-1.583-2.008-3.193-2.936-4.846c-1.597-2.843-4.856-2.311-6.464-0.39c-0.251-0.721-0.462-1.467-0.634-2.235
				c-0.136-1.059-0.294-2.094-0.499-3.085c-0.903-4.376-8.415-3.427-7.857,1.063c0.044,0.359,0.1,0.71,0.155,1.062
				c-0.004,0-0.008,0.001-0.012,0.001c0.019,0.093,0.035,0.187,0.053,0.28c0.079,0.479,0.167,0.949,0.266,1.413
				c0.055,0.315,0.104,0.632,0.153,0.948c-0.781,0.651-1.306,1.636-1.282,2.962c0.06,3.396,0.406,6.751,0.875,10.091
				c-2.323,0.042-4.721,1.989-4.065,4.973c0.345,1.566,0.692,3.145,1.083,4.708c0.182,0.818,0.368,1.632,0.572,2.439
				c-0.268-0.021-0.533-0.015-0.793,0.015c-0.118-0.073-0.236-0.146-0.354-0.219c0.004-0.225,0.015-0.448,0.017-0.673
				c0.045-4.271-6.542-5.48-7.734-1.493c-0.151,0.079-0.292,0.172-0.431,0.271c-0.504-0.556-1.184-0.956-1.936-1.169
				c-0.973-3.195-2.144-6.323-3.376-9.338c-1.73-4.234-7.361-3.547-7.857,1.063c-0.417,3.874-0.457,7.736-0.255,11.587
				c-0.973-0.299-2.035-0.282-2.95,0.173c-1.922-0.725-4.39-0.077-5.318,2.51c-0.785,2.187-1.625,4.348-2.496,6.494
				c-0.935,0.2-1.813,0.785-2.435,1.884c-0.367,0.649-0.749,1.291-1.12,1.938c-0.992-0.081-2.03,0.263-2.921,1.252
				c-0.365,0.405-0.71,0.826-1.061,1.241c-1.55-1.945-5.297-2.34-6.898,0.235c-1.98,3.188-3.904,6.41-5.761,9.668
				c-0.579,0.158-1.133,0.431-1.614,0.855c-0.155,0.136-0.296,0.282-0.447,0.42c0.275-1.391,0.488-2.806,0.609-4.258
				c0.406-4.874-6.25-4.878-7.839-1.097c-1.766-0.424-3.797,0.329-4.685,2.7c-0.957,2.557-1.825,5.143-2.663,7.739
				c-1.641-0.924-3.954-0.658-5.222,0.772c-0.143-0.617-0.28-1.232-0.401-1.844c-0.891-4.503-7.887-3.367-7.857,1.063
				c0.004,0.65,0.014,1.312,0.028,1.979c-1.291-0.356-2.774,0.22-3.84,1.282c-0.921-0.709-1.858-1.401-2.835-2.048
				c-2.564-1.698-4.935,0.019-5.632,2.339c-1.694-1.206-3.373-2.433-5.035-3.673c-2.277-1.699-4.763-0.12-5.624,2.071
				c-0.299-0.261-0.598-0.523-0.9-0.779c-3.894-3.303-9.244,1.858-5.657,5.657c3.129,3.313,6.585,6.247,10.114,9.098
				c-3.882-0.989-7.676-2.234-11.266-4.048c-1.486-0.731-2.91-0.505-4.008,0.204c-3.154-1.02-6.269-2.174-9.325-3.537
				c-2.915-1.299-5.449,0.568-5.89,2.871c-4.278-1.081-6.469,5.058-2.814,7.37c2.726,1.724,5.507,3.34,8.323,4.892
				c-5.402-0.695-10.66-2.009-15.618-4.466c-4.606-2.282-8.661,4.617-4.038,6.907c3.012,1.492,6.092,2.614,9.221,3.466
				c0.227,0.198,0.479,0.382,0.779,0.534c9.255,4.687,20.795,7.125,31.658,6.101c7.324,0.364,14.7,0.036,22.091-1.031
				c3.052-0.44,3.627-4.502,1.922-6.569c1.606,0.122,2.846-0.669,3.561-1.808c1.328,0.906,3.148,0.635,4.452-0.307
				c1.472,1.69,4.201,2.354,5.83,0.322c0.579-0.723,1.128-1.469,1.667-2.224c1.041,0.095,2.118-0.208,3-1.109
				c0.015-0.015,0.029-0.031,0.044-0.046c1.472,0.636,3.335,0.545,4.623-0.621c2.272-2.058,4.249-4.333,6.063-6.732
				c1.639,0.996,3.869,0.851,5.229-1.411c0.847-1.409,1.7-2.814,2.551-4.22c0.893,2.855,5.895,4.197,7.449,0.887
				c1.125-2.396,2.242-4.8,3.336-7.216c1.498,0.822,3.45,0.803,4.705-0.641c0.992-1.143,1.899-2.335,2.746-3.561
				c0.142,0.026,0.283,0.052,0.425,0.063v0.003c0.104,4.195,5.2,5.172,7.454,2.019c0.627-0.877,1.214-1.778,1.784-2.688
				c1.853,1.898,5.4,1.786,6.619-1.601c0.189-0.525,0.374-1.051,0.56-1.577c1.938,2.089,5.765,1.059,6.708-1.84
				c1.153,0.416,2.333,0.279,3.317-0.212c2.132,2.131,4.264,4.264,6.396,6.396c2.055,2.055,4.712,1.19,6.013-0.624
				c2.255,1.257,4.427,2.655,6.482,4.246c0.615,0.859,1.241,1.714,1.879,2.568c2.475,3.308,8.13,1.714,7.414-2.551
				c2.163,1.342,4.48,2.476,6.977,3.389c1.287,0.471,2.452,0.177,3.332-0.521c2.378,0.6,4.731,1.092,6.994,1.498
				c10.672,1.913,24.024,2.2,32.665-5.053c7.192-0.832,13.739-3.771,20.091-7.326c0.373-0.209,0.669-0.46,0.93-0.727
				c0.771,0.443,1.703,0.661,2.782,0.462c2.718-0.5,5.387-1.139,8.021-1.875c0.211-0.031,0.421-0.058,0.645-0.125
				c1.174-0.348,2.345-0.707,3.513-1.073c4.324,0.131,8.618-0.152,12.891-0.701c0.221,1.375,1.136,2.631,2.803,3.107
				c7.683,2.196,15.505,2.818,23.365,2.719c-0.69,2.052,0.194,4.687,2.635,5.281c8.015,1.952,16.687,3.457,25.377,3.841
				c-0.154,2.518,2.169,5.438,5.082,4.494c1.225-0.396,2.451-0.771,3.683-1.125c2.23-0.399,4.452-0.84,6.671-1.293
				c-0.594,1.508-0.294,3.327,0.762,4.468c-0.776,2.904,2.271,6.192,5.84,4.546c3.229-1.489,6.417-3.067,9.586-4.679
				c1.754-0.228,3.508-0.566,5.244-1.019c0.075,0.023,0.158,0.033,0.235,0.052c-0.929,2.992,2.726,6.586,5.933,4.646
				c0.352-0.212,0.696-0.433,1.047-0.647c0.673,2.268,3.446,4.069,5.953,2.647c1.88-1.065,3.72-2.193,5.543-3.346
				c1.396,1.663,4.329,2.381,6.268,0.721c4.346-3.725,8.691-7.45,13.037-11.174c0.556-0.396,1.105-0.795,1.669-1.185
				c2.761-1.908,4.656-2.806,5.854-5.265c0.146-0.125,0.292-0.25,0.438-0.376c1.467-1.257,1.616-2.776,1.029-4.041
				c0.541-0.41,1.079-0.821,1.613-1.236c1.698,0.88,3.863,0.676,4.983-1.533c0.533-1.052,1.08-2.095,1.635-3.135
				c0.229-0.368,0.47-0.724,0.74-1.056c0.427-0.524,0.675-1.125,0.8-1.745c0.842-1.49,1.716-2.96,2.626-4.406
				C399.932,126.379,401.975,123.468,403.954,120.519z"/>
		</g>
		<polygon opacity="0" fill="#FF00ED" fill-opacity="0" points="-52.8,118.61 -3.727,182 56.707,171.281 116.959,142.146 
			175.86,157.453 323.519,165.954 383.062,145.643 394.772,73.523 255.815,41.046 77.617,46.89 		"/>
	</g>
	<g id="leaves_2_">
		
			<rect id="constraint-trunk_6_" x="350.333" y="168.333" fill="#FF3F98" stroke="#627738" stroke-miterlimit="10" width="26" height="13.667"/>
		
			<rect id="constraint-trunk_5_" x="399.666" y="129.666" fill="#FF3F98" stroke="#627738" stroke-miterlimit="10" width="24.667" height="20"/>
		<polygon id="constraint-trunk_4_" fill="#FF15F3" stroke="#627738" stroke-miterlimit="10" points="593.999,95.001 
			617.999,122.668 630.666,103.334 603.332,87.334 		"/>
		<g id="decoration_1_">
			<path fill="#586624" d="M642.5,127c1.753-0.061,2.896-1.018,3.458-2.242c2.872-0.173,5.741-0.448,8.604-0.901
				c3.436-0.543,3.709-5.396,1.256-7.159c0.568-0.233,1.138-0.472,1.699-0.744c2.188-1.059,2.379-3.925,1.234-5.786
				c0.585-0.051,1.169-0.103,1.747-0.168c2.567-0.29,4.369-2.773,3.944-4.967c1.508-1.742,1.314-4.336-0.927-5.987
				c-0.389-0.287-0.795-0.537-1.195-0.797c1.1-1.541,0.774-3.529-0.4-4.862c0.047-0.011,0.095-0.019,0.142-0.03
				c3.051-0.706,3.767-5.098,1.663-6.943c0.266-0.152,0.531-0.295,0.792-0.459c1.938-1.221,2.303-3.641,1.431-5.394
				c0.718-0.786,1.392-1.627,2.006-2.541c1.677-2.496-0.529-6.131-3.454-6.019c-0.614,0.023-1.216,0.082-1.812,0.149
				c0.557-0.427,1.104-0.866,1.642-1.321c1.588-1.343,1.404-3.607,0.33-5.185c0.188-1.463-0.736-2.957-2.109-3.805
				c1.906-2.952-0.528-7.354-3.852-6.379c-0.198-1.364-0.975-2.602-2.07-3.219c1.343-1.682,2.632-3.412,3.827-5.222
				c2.645-4.005-3.011-7.659-6.282-4.848c-1.448,1.244-2.846,2.544-4.226,3.862c0.003-0.005,0.005-0.01,0.008-0.015
				c1.644-3.386-1.207-6.411-4.216-5.854c-1.143-2.015-4.559-2.557-6.566-0.994c-0.351,0.273-0.688,0.559-1.03,0.84
				c0.635-3.235-4.179-5.799-6.97-3.34c-0.612,0.541-1.215,1.093-1.808,1.654c-1.523-1.478-4.072-2.03-5.692-0.154
				c-0.546,0.632-1.079,1.274-1.617,1.914c-0.678-0.633-1.538-1.041-2.45-1.102c-0.976-2.08-3.641-3.381-5.686-1.97
				c-0.369-0.939-1.181-1.627-2.177-1.981c0.203-0.491,0.42-0.973,0.615-1.468c0.644-1.636,0.133-2.97-0.884-3.825
				c0.134-3.337-4.282-5.94-6.803-3.067c-3.565,4.067-6.659,8.441-9.525,12.963c0.068-0.19,0.142-0.38,0.211-0.571
				c1.577-4.348-5.087-6.924-7.312-3.083c-0.909,1.57-1.764,3.165-2.586,4.775c0.01-0.253,0.034-0.502,0.04-0.756
				c0.043-1.915-1.336-3.304-2.959-3.788c-1.161-0.753-2.633-0.984-3.841-0.423c-1.623-0.646-3.565-0.3-4.654,1.692
				c-0.381,0.696-0.744,1.407-1.097,2.126c0.062-0.857,0.084-1.726,0.051-2.607c-0.151-4.008-5.301-5.417-7.454-2.019
				c-0.241,0.381-0.458,0.774-0.683,1.164c0.062-0.71,0.115-1.424,0.137-2.145c0.124-4.157-5.377-5.219-7.454-2.019
				c-0.755,1.164-1.423,2.361-2.054,3.571c-1.922-1.566-5.209-1.278-6.349,1.884c-0.916,2.54-1.668,5.131-2.347,7.744
				c-0.652-2.833-4.766-3.414-6.625-1.509c-0.416,0.425-0.805,0.862-1.172,1.309c0.042-1.736-0.845-2.899-2.047-3.461
				c0.021-0.506,0.039-1.012,0.048-1.519c0.076-4.482-6.839-5.498-7.856-1.063c-0.172,0.749-0.319,1.505-0.455,2.265
				c-1.765,0.244-3.451,1.525-3.688,3.799c-0.09,0.867-0.168,1.743-0.242,2.621c-1.936-0.296-4.122,0.628-4.591,2.736
				c-2.002-0.638-4.682,0.323-5.474,2.758c-1.763-0.87-4.04-0.512-5.099,1.161c-1.737-2.186-5.516-1.239-6.728,1.39
				c-2.049-0.179-4.227,1.088-4.368,3.834c-0.003,0.055-0.005,0.11-0.008,0.166c-1.992-0.073-4.154,1.248-4.492,3.834
				c-0.106,0.82-0.199,1.646-0.279,2.475c-1.045-3.084-5.89-3.186-7.276-0.383c-0.173-1.396-0.361-2.785-0.587-4.156
				c-0.477-2.886-3.875-3.446-6.053-2.259c-0.141-0.75-0.287-1.498-0.447-2.241c-0.963-4.466-7.914-3.395-7.857,1.063
				c0.035,2.729,0.198,5.453,0.402,8.175c-1.218-0.226-2.552,0.053-3.525,0.772c-2.281-1.008-5.648,0.192-5.856,3.018
				c-1.565-0.845-3.624-0.318-4.858,1.091c-0.763-0.453-1.66-0.576-2.537-0.42c-0.419-0.497-0.846-0.988-1.296-1.465
				c-2.571-2.725-6.319-0.534-6.726,2.545c-1.623-0.429-3.522,0.091-4.451,1.485c-2.441-3.188-7.698-1.228-7.009,3.361
				c0.102,0.68,0.228,1.357,0.361,2.033c-2.229-1.518-5.909-1.117-6.447,1.71c-2.433-0.892-5.835,0.698-5.558,3.693
				c0.038,0.403,0.09,0.803,0.144,1.202c-2.603-1.492-6.054-0.075-6.144,3.298c-0.035,1.305,0.01,2.6,0.102,3.888
				c-1.37-1.28-3.235-1.124-4.623-0.134c-2.42-0.957-5.443,0.921-5.479,3.746c-0.017,1.315,0.09,2.621,0.281,3.922
				c-0.737-1.124-1.546-2.212-2.453-3.25c-1.948-2.233-4.922-1.1-6.269,0.978c-0.036-0.056-0.069-0.113-0.105-0.168
				c-2.019-3.118-7.752-2.185-7.454,2.019c0.071,1.001,0.188,1.993,0.325,2.982c-1.204-2.876-2.46-5.727-3.871-8.501
				c-0.587-1.155-1.458-1.753-2.396-1.949c-2.608-2.191-7.236-0.179-6.416,4.031c0.231,1.193,0.513,2.369,0.812,3.538
				c-0.76-0.721-1.563-1.411-2.437-2.055c-1.53-1.129-3.766-0.528-5.042,0.828c-1.076-0.846-2.223-1.629-3.458-2.328
				c-1.321-0.747-2.906-0.622-4.12,0.094c-0.951-1.204-1.967-2.365-3.071-3.468c-1.93-1.928-6.232-1.321-6.686,1.765
				c-0.318,2.168-0.416,4.272-0.343,6.328c-0.096-0.071-0.186-0.148-0.281-0.219c-2.68-1.968-6.634,1.061-5.982,4.101
				c-1.346,0.774-2.277,2.238-2.039,3.871c-2.43-1.452-5.643,0.447-5.884,3.458c-2.955-0.471-6.016,3.258-4.068,6.043
				c0.056,0.079,0.116,0.152,0.171,0.23c-2.016,0.853-3.419,3.379-2.171,5.77c0.327,0.626,0.675,1.24,1.032,1.849
				c-0.985-0.812-2.001-1.59-3.059-2.322c-2.645-1.83-5.462,0.423-5.89,3.059c-2.475,0.686-4.095,4.014-1.959,6.724
				c0.529,0.671,1.086,1.314,1.641,1.961c-1.669,0.629-2.963,2.323-2.943,4.012c-3.194-0.888-7.203,2.399-4.822,5.718
				c0.354,0.491,0.727,0.956,1.098,1.424c-0.276,0.45-0.459,0.943-0.536,1.458c-0.835-0.275-1.682-0.531-2.543-0.758
				c-0.697-0.184-1.324-0.19-1.892-0.085c-3.608-0.745-6.307,4.157-3.501,6.771c1.61,1.5,3.337,2.759,5.138,3.877
				c-0.431-0.22-0.861-0.439-1.29-0.66c-3.241-1.671-8.038,1.997-5.474,5.473c1.886,2.555,4.282,4.297,6.914,5.691
				c-0.133-0.02-0.263-0.049-0.396-0.067c-0.332-0.045-0.652-0.043-0.966-0.021c-0.671-0.176-1.348-0.34-2.034-0.479
				c-4.61-0.934-6.709,4.635-3.083,7.311c0.122,0.09,0.246,0.173,0.368,0.262c-0.131,0.349-0.209,0.722-0.242,1.105
				c-2.86,1.314-2.524,6.294,0.829,7.536c1.239,0.459,2.499,0.86,3.765,1.233c-2.167,1.942-1.167,5.993,1.735,6.767
				c4.679,1.249,9.406,1.888,14.161,2.176c-0.011,0.859,0.224,1.706,0.709,2.4c-0.29,0.069-0.583,0.135-0.87,0.209
				c-4.47,1.164-3.383,7.711,1.062,7.857l162-85L642.5,127z"/>
			<path fill="#3B4F1B" d="M658.056,106.307c-0.434-2.84-4.657-4.404-6.884-2.135c-2.42,2.468-4.721,5.038-6.959,7.662
				c-0.743,0.223-1.484,0.452-2.227,0.689c-0.479-0.671-1.125-1.202-1.892-1.455c0.479-0.205,0.954-0.409,1.423-0.614
				c4.139-1.805,1.09-9.062-3.081-7.311c-7.021,2.947-14.155,5.535-21.362,7.903c-0.088-0.693-0.394-1.327-0.843-1.855
				c0.24-0.39,0.498-0.764,0.723-1.172c2.265-4.112-2.896-7.778-6.282-4.848c-1.057,0.915-2.065,1.875-3.061,2.852
				c-0.87-0.181-1.793-0.057-2.63,0.522c-0.274,0.19-0.546,0.386-0.817,0.582c-2.29,0.282-4.579,0.868-6.796,1.592
				c1.137-2.893-2.055-5.617-4.932-5.076c-4.02,0.755-7.646,2.368-11.104,4.348c-0.002,0-0.004,0-0.007,0
				c-0.67-2.138-3.249-3.628-5.845-2.444c-0.142,0.064-0.282,0.126-0.422,0.19c-0.829,0.186-1.633,0.42-2.404,0.708
				c-0.544-1.826-2.153-3.305-4.002-3.072c1.292-3.622-2.902-7.006-6.481-4.2c-5.066,3.973-9.602,8.562-14.341,12.908
				c-2.791,0.863-5.575,1.751-8.362,2.629c0.099-2.404-2.185-4.541-5.031-4.065c-2.257,0.376-4.391,1.033-6.427,1.895
				c-0.092-2.796-3.751-4.366-6.028-2.992c-2.168,1.307-3.98,2.959-5.716,4.687c0.423-1.583,0.761-3.165,0.734-4.733
				c-0.062-3.801-4.179-4.877-6.829-2.829c-0.643,0.498-1.23,1.045-1.797,1.614c-0.144-0.615-0.307-1.23-0.517-1.849
				c-0.644-1.89-2.103-2.795-3.608-2.837c-0.122-0.555-0.246-1.109-0.392-1.663c-0.885-3.334-5.119-3.593-6.977-1.474
				c0.477-3.85,0.237-7.736-1.023-11.526C494.483,84.81,487.779,85.304,488,90c0.152,3.239-0.362,6.369-1.284,9.42
				c-0.421-0.646-0.836-1.296-1.262-1.939c-2.388-3.606-8.904-1.393-7.312,3.083c0.466,1.307,0.994,2.603,1.527,3.899
				c-2.187-0.309-4.421,1.675-4.67,4.037c-0.271,2.573-0.546,5.103-0.538,7.59c-1.339,0.073-2.68,0.723-3.417,1.891
				c-1.162,1.841-2.162,3.764-3.107,5.714c-1.455-1.424-3.675-1.879-5.163-0.269c-1.676-2.376-6.245-1.442-7.133,1.51
				c-0.187,0.62-0.346,1.245-0.504,1.871c-2.112-0.6-4.664,0.523-5.083,3.363c-1.662-0.124-3.313,0.687-3.856,2.479
				c-0.925,0.04-1.829,0.348-2.511,0.949c-1.638-0.049-3.313,0.791-3.937,2.39c-1.535-1.604-4.044-1.151-5.529,0.345
				c-1.143-0.516-2.479-0.369-3.579,0.26c-1.077-0.736-2.291-0.775-3.355-0.362c-0.439-1.559-1.729-2.391-3.147-2.578
				c-0.819-1.758-1.699-3.489-2.687-5.173c-1.262-2.153-3.362-2.387-5-1.526c-0.969-0.543-2.176-0.556-3.255-0.185
				c-0.804-2.103-1.605-4.206-2.342-6.333c-1.178-3.401-4.704-3.502-6.575-1.619c-1.879,0.922-3.298,3.227-2.236,5.702
				c0.774,1.802,1.515,3.617,2.25,5.432c-0.047,0.046-0.097,0.089-0.141,0.138c-2.758-1.889-7.174,1.026-6.013,4.475
				c0.276,0.821,0.577,1.626,0.896,2.42c-3.281-1.043-7.601,2.113-4.994,5.536c0.207,0.271,0.425,0.533,0.634,0.803
				c-0.003,0.002-0.005,0.004-0.008,0.006c0.012,0.01,0.024,0.02,0.037,0.03c0.568,0.735,1.146,1.461,1.725,2.187
				c-1.791-0.183-3.193,0.804-3.886,2.166c-3.181-0.564-6.344-1.232-9.483-2.067c-3.645-0.969-7.104,4.02-3.893,6.686
				c1.65,1.37,3.361,2.586,5.132,3.679c-0.288,0.3-0.56,0.615-0.831,0.931c-2.875-1.04-5.842-1.832-8.908-2.295
				c-4.098-0.62-7.546,5.233-3.083,7.311c1.238,0.577,2.49,1.076,3.752,1.524c-0.319,0.477-0.557,1.003-0.671,1.551
				c-0.064,0.05-0.121,0.103-0.185,0.153c-1.62-0.263-3.244-0.503-4.878-0.683c-1.703-0.187-3.065,1.005-3.669,2.507
				c-2.104-1.146-4.198-2.32-6.312-3.461c-4.194-2.264-7.581,2.938-4.938,6.073c-0.83-0.184-1.667-0.35-2.519-0.476
				c-1.573-0.234-2.881,0.264-3.765,1.118c-3.239-1.223-6.479-2.438-9.735-3.618c-4.256-1.543-7.162,5.363-3.082,7.311
				c0.629,0.3,1.265,0.585,1.903,0.863c-1.956-0.167-3.917-0.285-5.885-0.317c-4.326-0.07-5.303,6.017-1.653,7.634
				c-2.008,0.067-3.994,0.188-5.91,0.509c-1.604,0.269-2.465,1.233-2.75,2.4c-0.896-0.018-1.791-0.038-2.687-0.043
				c-4.497-0.027-5.478,6.755-1.063,7.857c1.309,0.327,2.631,0.605,3.961,0.829c0.206,0.502,0.508,0.955,0.908,1.325
				c-1.224,1.67-0.831,4.302,0.801,5.643c0.168,1.413,1.082,2.713,2.83,3.204c10.122,2.84,21.222,0.828,31.5-1.622
				c6.477,0.872,13.106,0.611,19.083-2.281c2.197-1.063,2.419-3.088,1.597-4.764c2.896-0.678,5.705-1.74,8.403-3.236
				c1.563-0.867,2.115-2.491,1.854-4.04c3.083-0.648,4.045-5.054,1.861-6.966c1.097-0.614,1.635-1.763,1.684-2.984
				c2.161-0.211,3.384-1.905,3.462-3.722c0.928-0.427,1.522-1.289,1.782-2.296c2.091-0.408,2.958-2.638,2.572-4.656
				c0.067,0.022,0.134,0.045,0.202,0.067c1.126,0.358,2.123,0.206,2.925-0.253c2.903,0.113,5.797-0.381,8.56-1.617
				c2.433,1.634,6.042-0.547,6.08-3.487c0.007-0.582,0.018-1.162,0.035-1.742c0.297,0.026,0.597,0.058,0.9,0.099
				c1.107,0.15,2.171-0.184,3.05-0.777c0.692,0.034,1.353-0.164,1.932-0.525c0.316,0.052,0.633,0.097,0.95,0.138
				c0.911,0.622,1.79,1.239,2.614,1.762c1.443,0.916,3.016,0.623,4.21-0.242c3.44,0.08,6.919-0.749,10.372-1.855
				c1.536-0.492,2.655-1.909,2.903-3.425c2.072-0.006,4.093-1.521,4.032-3.932c-0.002-0.091-0.008-0.181-0.011-0.271
				c1.111,0.313,2.319,0.221,3.267-0.336c1.502,0.156,3.034-0.462,3.78-1.97c1.634-0.036,3.263-1,3.821-2.859
				c0.016-0.052,0.026-0.105,0.042-0.158c1.564,0.122,3.264-0.541,4.055-1.887c0.11-0.187,0.209-0.377,0.311-0.567
				c0.257-0.007,0.51-0.045,0.759-0.099c1.301,0.009,2.611-0.537,3.431-1.834c1.301-2.062,2.401-4.225,3.446-6.417
				c1.424,0.786,3.188,0.773,4.429-0.773c1.012-1.263,1.983-2.546,2.929-3.842c1.128-0.108,2.158-0.704,2.696-1.968
				c0.199-0.468,0.407-0.936,0.619-1.402c0.958,0.056,1.922-0.291,2.694-1.226c6.304,1.806,12.739,2.694,19.277,2.688
				c0.086,0.009,0.169,0.019,0.257,0.028c0.847,0.39,1.766,0.44,2.617,0.221c1.563,0.088,3.202,0.065,4.702-0.188
				c1.359,1.727,4.243,2.463,6.208,0.688c0.354-0.32,0.709-0.639,1.065-0.957c0.059-0.008,0.11-0.005,0.17-0.015
				c0.97-0.171,1.934-0.364,2.896-0.562c1.396-0.161,2.792-0.325,4.187-0.51c0.252,0.955,0.806,1.849,1.559,2.463
				c0.67,0.765,1.612,1.278,2.795,1.251c1.375-0.03,2.865-0.154,4.417-0.374c1.383-0.047,2.821-0.098,4.175-0.264
				c0.93,0.775,2.159,1.22,3.472,0.994c8.641-1.486,17.287-2.929,25.917-4.469c0.443,0.117,0.927,0.151,1.444,0.085
				c0.88,0.041,1.765,0.048,2.653,0.018c0.639,1.184,1.838,2.047,3.422,2.009c3.396-0.082,6.693-0.569,9.938-1.283
				c0.412,0.327,0.907,0.56,1.499,0.64c4.939,0.664,9.725,0.221,14.419-0.803c0.438,1.062,1.322,1.945,2.581,2.303
				c4.957,1.411,10.082,0.396,15.009-1.53c1.815-0.204,3.601-0.571,5.36-1.045c0.271,0.204,0.566,0.37,0.881,0.496
				c1.013,1.031,2.479,1.601,3.877,1.079c0.727-0.27,1.435-0.567,2.135-0.877c0.651,2.219,3.222,3.837,5.82,2.475
				c1.55-0.812,3.047-1.698,4.521-2.622c0.759-0.093,1.542-0.407,2.289-1.003c0.292-0.233,0.591-0.456,0.885-0.687
				c0.146-0.043,0.29-0.085,0.437-0.127c0.847,0.111,1.754-0.095,2.628-0.736c2.976-0.851,5.884-1.898,8.052-4.451
				c0.937-1.102,1.227-2.306,1.058-3.39c0.213-0.16,0.418-0.327,0.633-0.485c0.918-0.674,1.487-1.694,1.702-2.766
				c0.101-0.078,0.197-0.157,0.298-0.234C663.322,111.404,661.312,106.227,658.056,106.307z"/>
		</g>
		<polygon opacity="0" fill="#425B1F" fill-opacity="0" points="310.651,163.384 338.5,199 455.5,148 551.506,125.222 644.5,121 
			646.5,46.89 459.307,74.422 		"/>
	</g>
	<g id="leaves_1_">
		<path id="constraint-trunk_9_" fill="#C800D4" stroke="#627738" stroke-miterlimit="10" d="M675.033,160.959l16.217-19.709
			L682,139l-10.75,20l3.686,1.965C674.968,160.963,675.001,160.961,675.033,160.959z"/>
		<polygon id="constraint-trunk_8_" fill="#C800D4" stroke="#627738" stroke-miterlimit="10" points="756.75,150.125 772.5,168.125 
			775.625,160.125 760.125,145.875 		"/>
		<polygon id="constraint-trunk_7_" fill="#C800D4" stroke="#627738" stroke-miterlimit="10" points="842.625,167.75 
			847.25,175.375 872.125,160.875 859.125,154.5 		"/>
		<polygon id="constraint-trunk_12_" fill="#C800D4" stroke="#627738" stroke-miterlimit="10" points="929.999,132.002 
			928.666,142.669 962.999,141.335 961.333,130.669 		"/>
		<g id="decoration_2_">
			<path fill="#586624" d="M969.393,154.948c3.898,0.285,7.74-0.438,11.127-2.994c0.58-0.439,1.055-1.079,1.377-1.8
				c0.291,0.067,0.578,0.146,0.873,0.203c3.795,0.725,6.873-3.684,3.893-6.686c-0.35-0.351-0.713-0.667-1.086-0.966
				c0.976-0.058,1.95-0.125,2.925-0.206c2.574-0.212,4.383-2.794,3.947-5.01c0.991-1.339,0.926-3.428-0.092-4.736
				c2.884-1.165,4.353-5.241,0.829-7.042c-0.098-0.05-0.198-0.095-0.299-0.143c0.397-0.549,0.643-1.139,0.735-1.739
				c0.07,0.001,0.141,0.002,0.211,0.003c3.824,0.032,5.185-5.182,2.593-7.177c0.603-0.096,1.204-0.189,1.806-0.299
				c4.475-0.819,3.394-8.021-1.063-7.857c-1.504,0.055-2.984,0.241-4.454,0.498c0.045-0.083,0.082-0.165,0.121-0.247
				c4.308-0.204,8.567-0.827,12.729-2.394c3.757-1.415,3.841-6.328,0-7.714c-2.345-0.846-4.734-1.306-7.148-1.517
				c0.1-1.734-0.764-3.449-2.852-3.817c-0.717-0.126-1.424-0.279-2.129-0.443c0.715-0.167,1.425-0.336,2.129-0.509
				c4.395-1.082,3.446-7.953-1.063-7.857c-3.317,0.07-6.577,0.525-9.809,1.163c2.519-0.866,5.039-1.73,7.539-2.639
				c4.002-1.455,3.711-8.166-1.063-7.857c-3.122,0.202-6.077,0.817-8.923,1.701c0.362-0.29,0.729-0.572,1.084-0.872
				c3.096-2.621,0.038-7.087-3.402-6.753c0.009-0.019,0.021-0.037,0.028-0.056c1.502-3.223-0.92-6.622-4.518-5.876
				c-4.461,0.925-8.58,2.476-12.463,4.46c-0.577-2.506-3.344-4.561-5.825-2.724c-0.87,0.644-1.739,1.288-2.608,1.934
				c-0.089-2.6-3.04-4.334-5.629-3.352c0.195-3.015-2.672-6.131-5.763-3.916c-3.146,2.255-6.177,4.688-9.112,7.245
				c-0.074,0.031-0.146,0.054-0.222,0.089c-0.979,0.464-1.916,0.97-2.834,1.494c1.63-2.015,3.289-3.993,5.015-5.878
				c3.472-3.794-1.947-9.278-5.656-5.657c-2.031,1.984-3.897,4.086-5.664,6.259c-1.395-0.986-3.367-1.076-5.003,0.407
				c-0.215,0.195-0.421,0.396-0.632,0.593c-0.757-0.75-1.753-1.212-2.798-1.172c0.129-0.189,0.248-0.384,0.379-0.573
				c2.58-3.717-3.418-8.37-6.282-4.848c-2.826,3.478-5.632,6.975-8.344,10.541c0.203-1.228,0.377-2.463,0.505-3.712
				c0.347-3.379-4.684-5.437-6.828-2.829c-0.161,0.195-0.312,0.401-0.472,0.598c-0.186-0.377-0.363-0.756-0.579-1.122
				c-1.312-2.228-4.447-2.63-6.282-0.81c-1.075,1.067-2.08,2.169-3.026,3.297c-1.696-0.919-3.811-0.751-4.934,1.512
				c-2.356,4.751-4.731,9.71-6.904,14.813c-0.058-1.372-0.146-2.747-0.308-4.127c-0.429-3.675-5.331-5.808-7.454-2.019
				c-1.081,1.931-2.015,3.932-2.84,5.98c0.049-0.299,0.104-0.598,0.151-0.897c0.703-4.406-4.702-7.038-7.312-3.083
				c-0.869,1.317-1.656,2.666-2.405,4.029c-1.793-1.725-5.026-2.077-6.262,0.637c-0.409,0.901-0.802,1.815-1.183,2.734
				c-1.062,0.041-2.13,0.44-2.857,1.124c-1.307,1.227-2.516,2.543-3.654,3.92c-0.067,0.042-0.138,0.074-0.202,0.121
				c-1.435,1.028-2.748,2.163-3.979,3.368c-1.191-0.713-2.716-0.833-4.021-0.034c-1.08,0.661-2.113,1.371-3.114,2.113
				c-0.738-0.056-1.504,0.103-2.219,0.553c-1.9,1.195-3.718,2.533-5.475,3.966c-0.077-1.151-0.653-2.201-1.49-2.921
				c-0.258-2.251-2.047-4.231-4.334-3.663c-0.356,0.008-0.72,0.072-1.08,0.216c-3.36,1.341-6.51,3.146-9.465,5.291
				c0.252-1.361,0.443-2.728,0.527-4.1c0.167-2.747-2.668-4.411-5.06-3.827c-0.307-0.375-0.665-0.697-1.066-0.95
				c0.301-0.405,0.614-0.799,0.914-1.205c2.941-3.986-3.038-7.381-6.282-4.848c-4.925,3.845-9.604,7.936-14.137,12.174
				c0.119-0.667,0.22-1.338,0.298-2.012c0.336-2.913-3.689-5.133-6.019-3.454c-1.4,1.01-2.752,2.081-4.08,3.18
				c-1.278-1.747-3.98-2.225-6.062-0.555c-0.394,0.315-0.762,0.661-1.146,0.988c-0.291-3.033-4.396-4.482-6.854-2.321
				c-0.994,0.875-1.957,1.776-2.896,2.696c-1.071-2.357-4.423-3.533-6.454-1.363c-1.283-1.927-3.93-2.773-5.982-0.667
				c-0.672,0.689-1.314,1.398-1.957,2.109c-0.612-2.479-3.453-4.401-5.898-2.735c-2.712,1.847-5.115,3.954-7.296,6.246
				c-1.252-0.268-2.579-0.019-3.48,0.909c0.238-3.199-3.109-5.222-5.834-3.691c-1.007-0.045-2.037,0.295-2.866,1.162
				c-2.299,2.403-4.262,5.016-6.042,7.744c-1.344-1.62-3.832-1.854-5.486-0.842c-0.366-1.939-0.736-3.875-1.118-5.803
				c-0.87-4.389-8.412-3.421-7.857,1.063c0.253,2.048,0.498,4.097,0.741,6.146c-2.622-0.833-6.126,1.658-5.266,4.917
				c0.413,1.564,0.829,3.127,1.25,4.688c-0.021,0.019-0.045,0.036-0.066,0.055c-1.254-2.626-2.531-5.24-3.872-7.826
				c-1.111-2.146-3.456-2.354-5.227-1.443c-2.536-2.8-7.923-0.158-6.752,3.859c0.028,0.1,0.062,0.197,0.092,0.296
				c-1.027,0.005-2.065,0.399-2.854,1.091c-0.188-0.202-0.363-0.412-0.552-0.612c-1.57-1.684-3.486-1.533-4.866-0.501
				c-0.376-0.501-0.75-1.004-1.134-1.499c-2.681-3.454-7.394,0.397-6.686,3.892c0.018,0.088,0.042,0.173,0.061,0.261
				c-1.721,0.78-2.902,2.5-2.18,4.39c-0.854-0.835-1.698-1.68-2.528-2.542c-3.129-3.25-8.769,0.997-6.281,4.848
				c0.841,1.302,1.735,2.543,2.654,3.758c-0.947,0.368-1.741,1.062-2.17,1.972c-1.27-0.575-2.668-0.373-3.772,0.304
				c-0.51-0.192-1.016-0.394-1.527-0.577c-2.686-0.959-4.788,1.479-5.063,3.857c-0.166,1.442-0.216,2.801-0.17,4.09
				c-0.059,0.091-0.114,0.184-0.167,0.279c-0.744-0.629-1.509-1.243-2.312-1.823c-2.323-1.681-5.246,0.202-5.912,2.59
				c-0.687-0.43-1.381-0.851-2.088-1.257c-4.147-2.384-7.643,2.904-4.847,6.283c0.495,0.599,1.004,1.185,1.521,1.76
				c-1.639,1.351-2.268,3.71-0.188,5.574c0.471,0.422,0.951,0.834,1.429,1.25c-1.208,0.26-2.188,1.125-2.729,2.225
				c-2.809,0.723-4.811,4.12-2.033,6.525c0.19,0.166,0.384,0.332,0.575,0.497c-0.353,0.684-0.527,1.423-0.479,2.132
				c-3.966,0.932-4.292,6.116-0.332,7.732c1.387,0.566,2.803,0.983,4.239,1.288c18.213-1.847,15.413,0.932,33.657,0l17.669-11.146
				H725l55.5,20.875l45-14.41l25.248,7.16l83.752-22.25L969.393,154.948z"/>
			<path fill="#3B4F1B" d="M989.311,124.104c-0.932,2.33-1.856,4.752-2.929,7.103c-0.579,0.004-1.174,0.151-1.761,0.468
				c-1.215-2.657-5.04-3.856-6.908-0.526c-0.023,0.043-0.051,0.084-0.075,0.128c-1.015-0.384-2.149-0.33-3.155,0.437
				c-1.117,0.852-2.217,1.725-3.308,2.608c-1.175-1.142-2.962-1.635-4.692-0.608c-0.965,0.572-1.894,1.188-2.807,1.825
				c-0.338-0.227-0.703-0.4-1.095-0.49c-0.471-2.773-4.711-4.195-6.909-2.043c-3.423,3.351-7.092,6.482-10.324,9.976
				c-0.486,0.251-0.977,0.5-1.463,0.753c-0.865-0.575-1.949-0.806-3.115-0.424c-0.221,0.072-0.435,0.159-0.653,0.233
				c-1.12-1.651-3.554-2.721-5.634-1.831c-1.492,0.639-2.955,1.326-4.395,2.054c-0.602-1.79-2.266-3.07-4.568-2.474
				c1.048-1.321,2.099-2.641,3.143-3.964c3.126-3.961-1.791-9.265-5.656-5.657c-0.885,0.826-1.743,1.675-2.587,2.537
				c-1.577-0.525-3.472-0.175-4.705,1.606c-0.83,1.198-1.634,2.412-2.438,3.625c-1.075-0.477-2.333-0.486-3.46,0.273
				c-0.957,0.644-1.873,1.326-2.761,2.035c-0.759-1.535-2.724-2.567-4.587-2.345c-0.466-0.525-1.099-0.902-1.804-1.122
				c-0.637-1.376-1.958-2.403-3.373-2.542c1.149-2.161,2.239-4.36,3.33-6.553c1.285-2.584-0.286-4.987-2.346-5.774
				c0.025-0.172,0.057-0.342,0.082-0.514c0.519-3.475-3.815-7.345-6.687-3.892c-4.878,5.868-7.551,12.927-9.251,20.253
				c-1.171-2.121-3.909-3.221-6.082-0.92c-0.523,0.555-1.021,1.13-1.505,1.712c-0.978,0.204-1.876,0.756-2.455,1.764
				c-3.622,6.309-8.463,11.773-12.533,17.767c-1.601,1.331-3.211,2.651-4.818,3.972c-0.193-1.199-0.916-2.241-1.859-2.934v-3.453
				c0-4.319-5.518-5.004-7.382-2.102c-0.033-0.098-0.061-0.198-0.095-0.295c-1.417-4.067-7.908-3.659-7.853,0.96
				c-0.418-0.627-0.825-1.263-1.218-1.916c-1.852-3.088-5.462-2.19-6.819,0.17c-2.326-2.43-4.896-4.607-7.949-6.272
				c-2.187-1.192-4.327-0.269-5.333,1.42c-0.821-0.729-1.653-1.447-2.523-2.127c-1.845-1.441-3.821-1.253-5.146-0.246
				c-0.139-0.092-0.277-0.178-0.427-0.253c0.955-2.072,1.83-4.166,2.604-6.276c1.551-4.24-5.515-7.235-7.312-3.083
				c-2.363,5.46-5.222,10.635-8.265,15.706c-1.3,0.334-2.589,0.748-3.862,1.234c-1.458-1.702-4.188-2.438-5.914-0.416
				c-1.529,1.793-3.103,3.777-4.817,5.614c0.362-0.436,0.742-0.866,1.142-1.291c3.077-3.268-0.863-8.667-4.847-6.283
				c-2.646,1.583-5.142,3.373-7.604,5.212c-0.438-1.031-1.336-1.739-2.369-2.088c0.123-2.583-2.197-3.752-4.396-3.446
				c0.107-1.854,0.229-3.706,0.387-5.557c0.329-3.901-4.12-4.796-6.529-2.817c-0.094-0.305-0.188-0.608-0.279-0.914
				c-0.93-3.049-3.897-3.444-5.889-2.168c-0.477,0.062-0.933,0.202-1.35,0.406c-0.029-0.069-0.058-0.139-0.087-0.208l-0.009-0.029
				l-0.003,0.001c-0.135-0.319-0.263-0.638-0.4-0.957c-0.528-1.221-1.463-1.821-2.49-1.976c-1.438-4.743-2.72-9.535-3.772-14.401
				c-0.964-4.45-7.955-3.408-7.857,1.063c0.04,1.832,0.211,3.636,0.459,5.424c-2.337-0.137-4.818,1.856-4.315,4.972
				c0.191,1.19,0.362,2.381,0.523,3.573c-1.591,0.799-2.668,2.438-1.856,4.427c0.011,0.027,0.02,0.055,0.029,0.082
				c-0.447-0.436-0.897-0.862-1.345-1.307c-3.66-3.643-9.217,1.928-5.664,5.647c-0.018,0.012-0.034,0.024-0.052,0.037
				c-0.095-0.118-0.189-0.233-0.284-0.351c-1.52-1.894-3.927-1.436-5.46-0.039c-0.843-0.881-1.687-1.762-2.54-2.628
				c-0.753-0.764-1.562-1.131-2.349-1.223c-0.572-0.872-1.141-1.747-1.692-2.634c-0.945-1.521-2.318-2.046-3.627-1.917
				c-0.766-0.973-1.537-1.941-2.332-2.893c-0.617-0.74-1.355-1.107-2.116-1.216c-0.432-0.646-0.854-1.301-1.258-1.974
				c-1.817-3.032-5.625-2.102-6.99,0.222c-3.104-0.811-6.785,2.615-4.585,5.816c0.988,1.437,1.859,2.942,2.732,4.445
				c-4.128-1.869-8.385-3.405-12.882-4.321c-2.97-0.605-4.871,1.475-4.905,3.751c-0.587-0.14-1.172-0.287-1.761-0.418
				c-3.922-0.876-6.827,4.31-3.92,6.755c-0.682-0.276-1.371-0.533-2.08-0.755c-1.365-0.428-2.601-0.011-3.514,0.806
				c-3.264-0.759-6.527-1.512-9.82-2.139c-1.383-0.263-2.604,0.136-3.499,0.877c-2.427-0.68-4.928-1.09-7.564-1.02
				c-2.7,0.071-4.275,2.566-3.892,4.797c-0.479-0.047-0.96-0.095-1.441-0.13c-4.892-0.363-4.889,6.288-1.062,7.857
				c0.774,0.318,1.558,0.614,2.344,0.901c-3.319-0.393-6.637-0.708-9.947-0.758c-0.351-0.005-0.673,0.05-0.98,0.13
				c-2.479-0.015-4.952,0.166-7.415,0.68c-5.049,1.054-2.906,8.765,2.127,7.714c1.956-0.408,3.947-0.567,5.958-0.571
				c0.104,0.014,0.208,0.026,0.312,0.04c0,0.002-0.001,0.005-0.001,0.007c0.026,0,0.053,0.002,0.077,0.002
				c3.112,0.41,6.246,0.636,9.379,0.857c4.903,0.757,9.811,1.721,14.544,1.807c0.686,0.012,1.278-0.154,1.794-0.423
				c4.18,0.239,8.371,0.215,12.604-0.386c2.184-0.31,3.136-2.55,2.82-4.533c0.231-0.012,0.45-0.044,0.658-0.093
				c3.31-0.031,6.602-0.329,9.9-0.699c1.188,0.064,2.376,0.119,3.557,0.135c1.132,0.016,1.989-0.325,2.617-0.855
				c1.565-0.179,3.138-0.346,4.716-0.478c2.994-0.25,4.442-3.076,3.724-5.333c0.101-0.128,0.188-0.262,0.271-0.403
				c0.98,0.312,1.961,0.62,2.943,0.925c1.561,0.485,2.928-0.086,3.849-1.101c2.87,2.021,5.906,3.695,9.484,4.434
				c1.462,0.302,2.96-0.338,3.978-1.376c1.118,0.461,2.235,0.924,3.356,1.376c0.741,0.299,1.406,0.357,1.994,0.249
				c0.562,0.458,1.133,0.909,1.717,1.348c1.327,0.999,3.059,0.691,4.339-0.246c0.11,0.081,0.216,0.166,0.328,0.246
				c1.295,0.926,2.755,0.779,3.912,0.056c0.877,0.848,1.984,1.168,3.056,1.062c1.78,0.373,3.842-0.58,4.67-2.286
				c0.29-0.1,0.568-0.226,0.822-0.394c0.485,0.312,0.973,0.621,1.468,0.921c0.989,1.195,2.074,2.32,3.264,3.35
				c1.118,0.97,2.536,1.148,3.807,0.822c0.521,1.495,1.841,2.212,3.254,2.268c0.297,0.673,0.748,1.23,1.292,1.661
				c0.658,1.708,1.467,3.373,2.354,5.106c0.716,1.397,2.092,2,3.471,1.943c0.81,1.588,2.397,2.705,4.381,1.895
				c0.556-0.227,1.089-0.476,1.607-0.737c0.226,0.038,0.453,0.056,0.683,0.056c0.806,1.52,2.431,2.514,4.117,2.149
				c0.835,2.135,3.798,3.458,5.881,2.129c0.428-0.273,0.826-0.577,1.239-0.864c0.764,0.051,1.538-0.107,2.236-0.558
				c-0.118,2.071,1.147,4.105,3.839,3.968c6.561-0.336,13.174-4.5,18.686-7.713c0.238-0.139,0.49-0.284,0.745-0.429
				c1.56,0.286,3.215-0.189,4.022-1.839c0.113-0.23,0.22-0.464,0.331-0.694c0.606-0.372,1.214-0.762,1.817-1.165
				c0.224-0.022,0.446-0.049,0.672-0.064c3.31,1.123,6.794,1.578,10.394,1.238c0.839-0.079,1.561-0.379,2.151-0.813
				c1.058,0.072,2.115,0.127,3.182,0.146c0.902,0.016,1.736-0.346,2.419-0.912c1.392,1.022,2.801,2.031,4.229,3.033
				c1.823,1.278,3.784,0.551,4.951-0.879c0.042-0.013,0.086-0.021,0.128-0.035c-0.969,2.829,1.28,6.676,4.67,5.317
				c1.562-0.626,3.111-1.345,4.592-2.167c0.322,0.451,0.729,0.827,1.187,1.116c0.639,2.614,3.967,4.408,6.652,2.022
				c3.524-3.13,7.229-6.111,10.77-9.253c0.201,0.104,0.408,0.193,0.622,0.262c0.96,2.536,4.538,4.202,6.608,1.657
				c0.841-1.032,1.678-2.066,2.514-3.101c0.923,0.391,1.972,0.419,2.991-0.097c0.896,1.611,2.911,2.745,4.73,2.226
				c7.321-2.091,14.131-6.02,20.253-10.472c0.58-0.422,1.161-0.859,1.739-1.304c-0.407,0.846-0.803,1.7-1.176,2.567
				c-1.117,2.599,0.356,4.996,2.343,5.779c1.19,1.084,2.892,1.504,4.463,0.361c2.897-2.108,5.89-4.262,8.733-6.585
				c2.271-1.061,4.516-2.169,6.754-3.292c0.093,0.326,0.228,0.639,0.389,0.94c-1.949,2.96,1.523,7.548,5.457,5.604
				c3.03-1.498,6.09-2.904,9.184-4.22c2.307-0.866,4.649-1.634,7.016-2.349c0.567,0.744,1.361,1.312,2.283,1.559
				c0.843,1.678,2.632,2.881,4.562,2.079c3.566-1.481,6.957-3.185,10.176-5.154c1.156,0.838,2.682,1.076,4.113,0.084
				c0.695-0.481,1.362-0.992,2.034-1.497c0.461,0.654,1.104,1.197,1.86,1.545c0.85,0.602,1.934,0.832,3.149,0.355
				c0.195-0.077,0.389-0.159,0.583-0.237c5.949-1.288,11.01-4.71,16.372-7.499c3.161-1.645,2.279-5.217-0.06-6.673
				c0.465-0.221,0.934-0.423,1.393-0.66c2.77-1.429,2.239-5.223,0.239-6.833c1.59-3.373,2.98-6.834,4.267-10.225
				C998.866,121.369,991.189,119.398,989.311,124.104z"/>
		</g>
		<polygon opacity="0" fill="#425B1F" fill-opacity="0" points="831.5,104 739.5,94.171 617.167,139 631.5,164 893.833,163.5 
			899.24,168.381 978.5,139 983.167,46.89 		"/>
	</g>
	<g id="leaves">
		<polygon id="constraint-trunk_10_" fill="#FF15E2" stroke="#627738" stroke-miterlimit="10" points="725,324.333 737.666,342 
			751,329.667 		"/>
		<polygon id="constraint-trunk_11_" fill="#FF15E2" stroke="#627738" stroke-miterlimit="10" points="762,345.667 782.333,365 
			799,345.667 		"/>
		<g id="decoration_3_">
			<path fill="#586624" d="M842.577,354.358c-0.969-0.017-1.938-0.015-2.906-0.011c1.863-1.748,1.568-4.506-0.021-5.976
				c0.987-0.498,1.973-1.009,2.944-1.559c3.271-1.849,2.062-7.892-2.019-7.454c-4.402,0.473-8.774,1.099-13.125,1.827
				c0.148-0.167,0.307-0.327,0.453-0.498c2.344-2.734,0.582-6.684-2.739-6.787c0.078-0.073,0.161-0.141,0.239-0.213
				c3.295-3.065-1.075-8.881-4.848-6.283c-0.141,0.097-0.279,0.195-0.421,0.292c-0.103-0.029-0.206-0.055-0.311-0.078
				c-0.365-2.093-2.062-3.901-4.384-3.247c0.319-3.068-2.658-5.528-5.886-3.967c-0.023,0.012-0.047,0.025-0.069,0.037
				c-0.31-0.592-0.758-1.093-1.311-1.459c1.75-2.898,3.199-5.921,4.256-9.061c0.873-2.595-1.536-5.203-4.085-5.06
				c-0.613-2.281-3.164-3.763-5.791-2.458c-2.809,1.396-5.547,2.892-8.229,4.468c-0.764-1.735-2.868-2.864-4.814-2.371
				c-2.563,0.65-5.014,1.82-7.345,3.323c0.841-1.921,1.614-3.879,2.266-5.903c1.231-3.825-3.97-6.753-6.686-3.892
				c-1.31,1.379-2.604,2.776-3.891,4.187c-0.929-0.013-1.858,0.366-2.609,1.313c-1.012,1.276-2.029,2.55-3.047,3.826
				c-0.983-0.511-2.151-0.627-3.231-0.148c0.741-3.616-4.042-6.723-6.722-3.678c-0.327,0.372-0.639,0.754-0.957,1.131
				c-0.926-0.307-1.937-0.324-2.834,0.033c0.036-0.28,0.087-0.555,0.119-0.836c0.368-3.248-3.471-4.701-5.946-3.454
				c-0.02-0.182-0.031-0.363-0.054-0.546c-0.459-3.706-4.176-4.906-6.507-2.958c0.008-0.514,0.013-1.027,0.007-1.542
				c-0.049-4.592-6.51-5.347-7.857-1.063c-0.786,2.5-1.477,5.016-2.104,7.543c-0.178-0.5-0.369-1-0.584-1.499
				c-1.406-3.262-5.709-2.097-7.076,0.428c-0.58-2.161-2.913-3.521-4.884-3.341c-0.046-0.21-0.088-0.421-0.137-0.631
				c-0.941-4.058-6.534-3.571-7.716,0c-0.14,0.422-0.247,0.846-0.373,1.269c-1.647,0.407-3.126,1.759-3.27,3.794
				c-0.072,1.02-0.119,2.038-0.154,3.057c-0.339-0.295-0.681-0.587-1.018-0.885c-2.895-2.559-7.838-0.145-6.687,3.892
				c0.235,0.825,0.521,1.621,0.835,2.4c-1.854,0.207-3.642,1.815-3.867,3.892c-0.074,0.11-0.135,0.228-0.196,0.345
				c-2.352-0.496-5.128,0.948-4.913,3.8c0.019,0.245,0.058,0.478,0.081,0.72c-2.521,0.275-4.66,2.78-3.035,5.799
				c0.557,1.033,1.131,2.058,1.72,3.077c-0.018,0.119-0.033,0.238-0.044,0.359c-0.234-0.135-0.467-0.275-0.703-0.409
				c-3.875-2.19-8.309,3.179-4.847,6.283c2.032,1.822,4.171,3.493,6.385,5.056c0.146,1.078,0.729,2.052,1.926,2.569
				c0.467,0.202,0.937,0.397,1.403,0.596c1.984,0.825,3.918,1.758,5.827,2.742c0.093,0.053,0.168,0.114,0.27,0.162
				c0.144,0.068,0.288,0.13,0.433,0.197c2.304,1.204,4.58,2.465,6.878,3.681c0.604,0.844,1.225,1.68,1.88,2.497
				c1.712,2.134,4.172,1.45,5.604-0.223c0.303-0.12,0.582-0.28,0.847-0.464c0.504,0.121,1.021,0.171,1.529,0.14
				c0.649,0.268,1.302,0.535,1.955,0.796c0.171,0.496,0.349,0.992,0.536,1.486c0.677,1.77,2.214,2.691,3.75,2.791
				c11.446,10.258,26.966,15.289,42.404,18.487c3.508,2.208,7.417,3.121,11.378,3.825c4.194,2.358,8.748,4.149,13.263,5.69
				c0.535,0.184,1.053,0.231,1.536,0.174c4.281,2.285,8.605,4.495,12.509,7.424c3.443,2.584,7.339-2.33,5.404-5.553
				c0.383,0.105,0.764,0.218,1.146,0.32c2.484,0.965,5.092,1.656,7.968,1.778c1.672,0.071,2.982-0.995,3.6-2.375
				c2.294,0.306,4.596,0.595,6.9,0.875c4.224,0.514,5.269-5.942,1.835-7.588c1.979-0.41,3.182-2.34,3.122-4.207
				c0.971-0.791,1.473-2.058,1.435-3.325c0.074-0.132,0.146-0.265,0.206-0.403c3.802-0.581,4.809-4.994,2.562-6.995
				c1.428-0.087,2.483-0.783,3.103-1.749c0.589-0.255,1.183-0.499,1.757-0.78C848.315,359.988,846.346,354.425,842.577,354.358z"/>
			<path fill="#3B4F1B" d="M830,377c-1.016-0.063-2.033-0.094-3.05-0.105c-1.255-0.999-3.025-1.342-4.469-0.349
				c-0.25,0.172-0.518,0.316-0.782,0.462c-3.939,0.195-7.88,0.585-11.807,0.856c-0.023-0.935-0.389-1.861-1.094-2.601
				c3.412-1.256,3.669-6.757-0.235-7.621c-6.88-1.522-13.767-1.247-20.676-0.795c0.209-0.108,0.419-0.234,0.63-0.394
				c2.053-1.546,3.79-3.096,4.937-5.435c1.438-2.938-0.93-7.05-4.519-5.876c-4.099,1.341-7.714,3.476-11.185,5.866
				c-0.085-0.001-0.164-0.013-0.252-0.009c-1.615,0.068-3.193,0.282-4.748,0.581c1.006-2.392-0.956-5.775-3.752-5.581
				c-0.598,0.042-1.168,0.124-1.726,0.222c-0.895-0.69-2.062-1.001-3.339-0.579c-1.353,0.447-2.613,1.11-3.852,1.822
				c-0.022-0.321-0.046-0.642-0.085-0.965c-0.184-1.522-0.882-2.653-1.877-3.295c-0.034-0.567-0.073-1.136-0.123-1.705
				c-0.264-3.042-2.839-4.271-5.003-3.722c-0.215-0.268-0.453-0.499-0.717-0.678c-0.007-1.879-0.039-3.756-0.28-5.601
				c-0.474-3.623-5.356-5.401-7.26-2.514c-0.475-2.016-0.923-4.038-1.383-6.05c-0.695-3.042-4.166-3.518-6.256-2.072
				c-1.054-0.914-2.548-1.033-3.853-0.58c-0.125-0.787-0.253-1.571-0.394-2.348c-0.528-2.954-3.771-3.471-5.923-2.234
				c-0.977-2.94-1.952-5.88-3.077-8.766c-1.115-2.861-4.671-3.528-6.592-1.93c-2.209-1.029-5.25,0.01-5.701,2.784
				c-0.826-1.428-1.702-2.826-2.735-4.12c-0.667-0.835-1.584-1.193-2.527-1.205c-0.125-1.016-0.266-2.027-0.442-3.03
				c-0.824-4.65-7.634-3.226-7.857,1.063c-0.227,4.303,0.232,8.459,1.2,12.477c-0.136,0.114-0.261,0.242-0.383,0.371
				c-0.169-0.624-0.324-1.259-0.46-1.911c-0.828-3.97-6.716-3.679-7.716,0c-0.453,1.667-0.603,3.294-0.53,4.881
				c-0.864-0.134-1.746-0.034-2.517,0.28c-0.024-0.017-0.052-0.036-0.077-0.052c-2.496-1.547-6.179,0.435-6.019,3.454
				c0.116,2.188,0.534,4.279,1.208,6.264c-3.175,1.189-3.887,6.514,0.229,7.593c1.817,0.477,3.606,1.026,5.383,1.606
				c0.436,0.466,0.884,0.923,1.354,1.366c0.039,0.037,0.081,0.063,0.12,0.098c0.077,0.074,0.168,0.138,0.254,0.207
				c0.067,0.052,0.135,0.104,0.204,0.151c0.08,0.055,0.146,0.119,0.23,0.17c4.97,2.926,10.244,4.95,15.724,6.48
				c2.331,0.879,4.687,1.694,7.093,2.38c1.357,1.491,3.311,1.681,4.869,1.078c1.148-0.045,2.238-0.593,2.967-1.568
				c0.213-0.041,0.421-0.098,0.626-0.173c0.231,0.146,0.466,0.287,0.699,0.43c0.193,0.261,0.417,0.515,0.714,0.748
				c0.271,0.213,0.544,0.414,0.815,0.618c-0.002,0.003-0.005,0.005-0.007,0.008c0.019,0.01,0.035,0.018,0.054,0.028
				c0.106,0.08,0.214,0.165,0.321,0.244c-0.39,1.298-0.183,2.836,0.815,4.103c4.087,5.186,10.619,6.531,17.132,7.32
				c1.499,0.734,3.005,1.461,4.533,2.14c4.205,1.866,8.667,3.194,13.153,4.432c0.27,0.113,0.556,0.192,0.854,0.236
				c1.817,0.498,3.634,0.99,5.44,1.496c0.5,0.317,1.124,0.5,1.849,0.529c0.735,0.214,1.472,0.427,2.198,0.652
				c4.495,1.393,9.028,3.048,13.62,4.403c1.702,0.883,3.489,1.552,5.338,2.061c0.431,0.36,0.967,0.636,1.646,0.759
				c0.318,0.058,0.638,0.116,0.955,0.173c0.179,0.156,0.373,0.3,0.591,0.424c0.418,0.238,0.842,0.448,1.265,0.663
				c0.449,0.749,1.155,1.383,2.189,1.74c4.491,1.552,8.881,3.353,13.5,4.5c1.651,0.41,2.971-0.13,3.834-1.082
				c1.771,0.612,3.515,1.312,5.212,2.179c3.141,1.604,6.685-1.428,6.054-4.318c0.373-0.477,0.623-1.042,0.744-1.645
				c0.241,0.002,0.479,0.009,0.721,0.009c1.943,0.002,3.354-1.417,3.817-3.064c0.735-0.31,1.47-0.634,2.2-0.981
				C835.887,382.619,833.638,377.226,830,377z"/>
		</g>
		<path opacity="0" fill="#2D3133" fill-opacity="0" d="M684,349.5l22.5-48.5c0,0,149.5,30,150,28.5s-33,61-33,61L684,349.5z"/>
	</g>
	<g id="rocks">
		<polygon id="ghost" fill="#B5C0B0" points="0.6,382.229 41.695,375.173 179.23,398.518 234.81,420.811 253.502,437.688 
			272.413,471.539 265.269,540.645 268.673,567.447 333.5,579 408.5,621.5 458.5,627.5 511.428,665.756 544.501,695.77 
			775.033,688.133 800.533,703.289 809.357,706.209 1023.252,676.516 1058.677,703.779 1066.011,706.035 1123.125,686.748 
			1132.219,661.344 1136.719,625.428 1156.763,588.309 1200.6,559.828 1200.732,794.229 1195,799.957 6.2,800 0.522,793.428 		"/>
		<g id="ghost_3_">
			<polygon fill="#8B9786" points="-3.727,469.104 9.334,463.866 94.787,466.873 140.024,440.812 200.205,454.769 253.502,437.688 
				272.413,471.539 267.553,527.188 292.887,571.763 268.673,567.447 262.699,550.717 156.02,522.801 145.202,503.797 
				68.43,497.018 43.022,478.742 -3.727,472.268 			"/>
			<polygon fill="#8B9786" points="1210.051,607.792 1186.817,631.701 1182.751,655.028 1174.831,663.221 1146.334,672.332 
				1123.125,686.748 1133.667,624.332 1144.524,603.492 1157.061,586.64 1174.334,600.998 			"/>
			<polygon fill="#8B9786" points="422.821,687.655 483.5,679 511.428,665.756 531.666,676.333 539.666,686.333 544.501,695.77 			
				"/>
		</g>
	</g>
	<g>
		<g>
			<path fill="#8B9786" d="M165,533l44.302,1.883l-1.842,0.529l0.268,0.984l5.71,0.537l-2.204,0.686l65.625,25.418l1.307-6.354
				l3.909-1.693l-4.535-2.652l0,0l-8.198-26.277l-5.98-0.064l2.422-60.259l-21.951-15.942l2.018-4.266l-92.272,0.646l-2.229,5.543
				L-3.727,463.432v8.16l52.291,15.992l-3.911,7.578l101.944,7.03l7.168,18.599"/>
			<path fill="#8B9786" d="M263.833,712.5l-4.001-16.73l0.534-25.078l51.467-10.855l87.866-1.333l2.335-18L372.5,641.5
				l-55.337-14.941l-42.152,3.941l-37.233-11.891l25.896-16.438l4.826-2.131l2.667-12.455l-2.667-8.584l-102.575,21.971
				l-16.444-17.025L162.184,579l4.316-10l4.713-16.285l-8.096-11.025l-0.934,8.735L97.5,563.037l-30.096,19.479l-51.904,5.07
				l86,16.914l61.33,34l70.571,14.158l23.099,8.87l-6.199,24.31l-36.467,27.996L174.5,720.5l-17.397,16.234l99.397-11.928l96-4.309
				l15.317-4.332l34.218-14.668l132.486-9.27l0,0l-0.254-2.756l-9.103-10.31l-12.995-2.155l-147.826,12.689l-48.512,9.133
				L263.833,712.5z"/>
			<path fill="#8B9786" d="M494.755,685.135l-12.992-1.063L494.755,685.135z"/>
			<path fill="#8B9786" d="M162.248,555.371l-5.145,2.365L162.248,555.371z"/>
			<path fill="#8B9786" d="M494.935,687.805l7.365,0.559L494.935,687.805z"/>
			<path fill="#8B9786" d="M394.772,685.838l5.971,0.752L394.772,685.838z"/>
			<polygon fill="#8B9786" points="402.035,686.889 401.943,686.752 401.76,686.768 401.882,686.986 			"/>
			<path fill="#8B9786" d="M162.184,540.715l0.646,0.678L162.184,540.715z"/>
		</g>
	</g>
</g>
</svg>
