<?xml version="1.0" encoding="utf-8"?>
<!-- Generator: Adobe Illustrator 16.0.0, SVG Export Plug-In . SVG Version: 6.00 Build 0)  -->
<!DOCTYPE svg PUBLIC "-//W3C//DTD SVG 1.1//EN" "http://www.w3.org/Graphics/SVG/1.1/DTD/svg11.dtd">
<svg version="1.1" xmlns="http://www.w3.org/2000/svg" xmlns:xlink="http://www.w3.org/1999/xlink" x="0px" y="0px" width="1000px"
	 height="500px" viewBox="0 0 1000 500" enable-background="new 0 0 1000 500" xml:space="preserve">
<rect id="ghost_1_" x="-44" y="-16" fill="#417082" width="1050" height="556"/>
<g>
	<polygon fill="#BF7C62" points="746.642,167.944 673.979,169.358 670.697,161.727 674.645,154.965 679.06,153.411 676.807,147.608 
		679.515,137.944 675.372,136.801 674.408,141.301 671.602,133.628 668.619,134.451 670.551,147.1 667.651,151.819 679.031,99.626 
		674.523,95.119 670.465,104.706 670.575,105.259 668.712,106.794 677.515,73.944 673.924,71.854 672.912,72.998 670.107,71.925 
		666.107,79.925 666.386,81.727 663.405,83.792 657.386,116.006 657.191,116.125 655.99,77.861 656.467,77.027 656.144,74.763 
		654.534,72.855 654.34,71.425 649.798,72.04 650.071,75.508 645.947,68.022 643.607,69.39 649.377,81.481 647.65,97.834 
		645.736,97.954 643.773,96.028 642.374,89.599 640.777,88.383 639.121,90.04 641.302,95.626 639.564,98.742 645.494,111.846 
		648.028,112.873 653.339,123.934 651.968,136.833 650.9,136.213 647.402,136.665 647.402,140.747 648.318,141.452 646.53,141.329 
		637.988,131.497 635.129,133.162 647.518,156.188 646.659,160.157 648.293,161.122 649.247,166.902 651.238,168.911 
		649.737,177.759 637.607,177.904 632.458,168.614 632.009,168.517 632.339,160.289 635.033,158.662 621.074,118.266 
		631.818,87.428 627.499,84.095 625.029,86.892 625.251,70.874 621.568,71.373 620.729,79.711 613.794,67.636 611.041,70.389 
		613.917,81.939 608.924,75.892 605.636,78.429 611.303,112.576 593.992,98.709 591.646,90.099 588.134,88.885 588.116,88.765 
		600.35,79.325 603.576,40.707 600.646,40.707 599.629,62.277 597.368,60.283 597.562,55.921 589.983,44.555 585.771,43.865 
		583.35,28.663 578.205,30.082 580.047,40.125 582.353,42.166 590.14,68.269 586.916,72.012 583.185,65.631 580.798,67.473 
		583.995,75.894 583.021,76.195 567.783,42.18 568.517,39.192 566.151,31.7 567.481,28.627 567.146,27.246 569.251,23.096 
		565.636,20.983 565.073,21.917 552.875,7.941 551.067,8.994 560.37,27.136 558.146,32.583 560.23,43.373 549.733,29.592 
		546.427,30.04 548.134,38.131 547.484,37.688 544.186,41.965 561.152,50.057 576.274,81.146 570.601,79.001 557.21,55.374 
		553.679,55.374 554.442,70.217 553.966,69.622 550.255,71.791 573.532,88.804 574.918,88.714 578.308,98.905 556.358,91.727 
		537.775,64.172 536.815,66.45 539.725,71.486 534.529,73.373 534.801,77.377 522.218,62.272 521.226,50.882 517.728,50.526 
		516.509,52.04 516.934,63.336 508.778,60.822 508.454,63.216 514.33,66.89 510.728,69.323 513.099,72.397 517.057,71.097 
		524.921,84.74 521.434,88.111 536.238,95.634 536.247,95.69 530.439,98.786 530.856,100.378 548.936,103.186 544.111,103.464 
		544.111,109.949 546.746,110.098 549.444,112.232 573.942,111.892 559.326,121.921 562.241,126.929 562.797,126.71 
		563.353,127.679 562.492,129.355 560.083,128.853 554.772,131.741 543.891,124.26 541.664,126.486 545.72,130.257 543.993,131.719 
		537.701,126.054 533.188,128.692 534.946,131.684 530.777,131.17 529.22,134.931 554.137,142.167 554.94,140.928 559.792,141.162 
		561.473,143.049 562.19,155.052 564.698,154.361 564.533,153.333 568.228,149.939 570.535,136.481 570.428,138.707 
		573.795,138.707 575.734,128.487 574.376,126.466 575.998,124.169 577.548,132.872 583.08,131.373 585.428,118.422 
		594.324,116.167 617.615,139.616 616.561,143.39 613.856,142.692 612.365,141.12 607.359,144.982 617.449,155.965 617.262,157.781 
		616.068,157.164 612.968,161.182 616.781,163.67 616.743,164.198 597.545,160.061 595.704,162.448 611.691,170.159 
		611.905,170.729 608.207,169.594 605.348,174.485 605.93,174.848 605.9,181.219 612.954,181.93 611.558,188.297 608.858,189.249 
		607.653,192.438 574.373,208.81 578.254,193.266 572.635,193.266 572.162,196.523 572.062,195.801 565.837,194.988 563.99,198.223 
		564.417,198.988 562.83,212.277 558.535,213.792 556.794,213.387 550.931,205.976 554.664,188.329 565.397,183.489 
		566.777,184.811 579.957,183.901 579.444,180.11 569.86,180.961 566.668,176.238 565.551,176.725 567.943,168.68 570.111,169.648 
		572.821,165.796 573.649,166.383 584.394,163.655 581.624,160.067 572.476,165.014 571.91,164.37 572.588,162.707 572.455,161.973 
		581.246,154.817 577.334,150.905 569.224,156.715 567.969,160.597 563.16,162.933 563.011,162.897 561.686,167.833 
		562.531,168.592 560.082,177.374 560.606,178.994 559.65,179.474 559.911,177.215 557.896,175.825 557.845,175.875 
		558.821,174.568 558.451,171.7 555.104,171.7 544.383,188.04 545.599,190.108 539.61,198.641 537.948,197.627 538.341,194.655 
		533.882,193.424 533.421,194.917 525.617,190.031 553.566,166.733 553.744,166.733 553.111,163.874 554.986,160.023 
		553.892,160.28 555.631,158.225 555.967,155.622 553.027,154.852 548.727,161.08 543.975,162.997 544.471,162.4 541.084,159.013 
		540.079,159.86 543.631,148.225 541.027,144.852 535.79,149.507 522.022,135.681 527.041,119.147 524.015,117.871 521.828,122.566 
		521.84,122.517 518.844,120.773 513.825,129.533 506.805,124.066 513.171,138.313 516.264,138.968 518.414,141.512 
		518.085,141.913 527.843,155.269 526.534,158.95 529.912,163.177 521.335,179.954 521.281,178.707 516.273,178.707 
		515.905,186.809 501.453,185.651 499.997,186.752 495.623,183.903 496.943,176.742 502.276,175.374 502.357,174.637 
		510.48,169.147 517.264,154.006 512.777,151.16 511.912,151.411 504.632,140.819 502.728,144.09 504.86,155.147 502.935,152.389 
		498.909,151.01 495.898,152.08 495.415,154.644 497.902,160.665 501.115,162.269 489.809,173.379 483.176,144.282 498.068,135.583 
		496.098,130.906 493.829,131.524 491.431,129.956 492.687,122.717 498.516,117.599 500.778,119.768 510.221,114.545 
		517.444,115.392 518.335,108.809 513.567,108.063 507.11,87.733 503.584,88.194 506.928,106.529 491.964,111.832 501.021,55.617 
		498.318,52.114 495.944,53.771 492.112,48.079 492.188,44.04 489.367,44.04 490.96,77.775 488.512,77.111 484.777,84.195 
		480.25,69.632 469.863,60.522 468.649,63.4 469.262,63.846 468.318,65.374 472.466,82.189 471.804,82.024 470.684,80.801 
		466.179,83.423 476.881,101.27 481.435,101.63 484.927,118.484 476.792,137.231 468.545,116.712 470.587,110.48 467.396,105.441 
		467.738,104.374 459.376,85.99 455.949,84.33 454.424,74.707 449.799,74.707 449.737,77.818 448.386,62.184 442.502,60.562 
		440.982,73.327 432.176,70.721 430.057,75.748 436.582,79.004 435.877,84.721 439.519,86.609 439.954,90.197 457.591,107.056 
		457.323,107.607 446.877,100.724 445.531,95.976 437.514,92.975 433.706,94.094 432.001,93.354 429.652,94.293 422.562,84.997 
		418.785,86.589 423.78,96.641 423.372,99.305 453.844,116.311 451.947,117.007 445.32,114.639 442.044,117.915 442.484,118.692 
		436.391,115.754 434.119,118.699 448.777,126.232 451.554,123.514 460.551,122.066 463.865,132.551 450.902,133.407 
		451.444,137.413 467.023,138.522 467.499,139.139 467.735,142.491 477.712,152.408 474.876,164.202 473.816,162.931 
		468.255,161.731 457.748,147.36 452.986,148.102 448.256,142.348 448.761,138.056 436.592,129.899 434.03,123.373 424.617,118.872 
		423.143,119.167 422.731,118.752 419.645,120.513 409.485,109.999 404.951,113.497 412.13,122.155 401.533,119.951 
		398.172,121.908 417.982,131.565 415.597,132.686 417.4,136.963 425.559,134.766 428.111,137.265 431.178,136.893 431.202,136.927 
		430.145,139.249 478.746,184.356 447.749,170.589 443.245,160.693 438.777,159.945 435.814,152.904 409.445,142.997 
		408.99,146.357 421.615,153.788 415.035,154.801 408.007,150.145 405.277,152.25 405.4,152.477 401.898,153.792 399.377,142.657 
		394.082,143.374 394.002,147.218 388.777,145.936 388.053,148.615 394.349,153.032 394.977,156.405 378.811,147.612 
		380.273,143.85 387.127,140.444 385.15,136.972 387.034,133.329 382.758,131.526 377.325,140.603 377.32,137.374 373.637,136.875 
		373.529,148.622 374.607,149.54 370.587,150.19 370.546,150.17 365.895,138.708 361.157,137.919 359.27,140.041 365.303,149.692 
		357.411,149.038 350.953,143.198 349.082,144.642 353.07,151.401 363.532,154.208 362.623,154.633 363.445,157.669 
		367.216,157.184 362.54,159.825 363.922,163.102 376.125,159.84 377.978,157.856 392.07,162.435 384.109,173.26 386.78,174.821 
		404.588,163.374 404.591,163.326 424.688,159.614 431.7,171.075 428.786,171.651 429.444,176.516 436.438,175.813 452.021,188.717 
		447.444,189.17 446.858,193.498 458.775,195.22 459.885,196.242 458.083,196.853 458.777,201.987 480.083,199.12 476.495,205.411 
		480.821,207.234 485.494,200.943 487.547,201.181 485.096,202.302 486.646,205.979 495.636,203.4 506.819,206.748 501.459,213.273 
		489.444,212.87 488.778,217.788 502.821,219.198 493.876,225.949 490.156,224.156 488.023,225.705 486.236,225.687 
		494.023,234.901 500.125,230.465 503.398,231.547 507.976,230.04 510.393,220.767 525.93,212.923 531.907,215.832 533.316,228.168 
		536.385,231.964 528.225,236.82 530.219,241.375 523.221,254.039 524.201,255.871 519.432,263.961 512.297,254.762 
		508.065,254.436 503.274,245.499 503.761,239.829 500.462,238.918 498.503,248.85 499.072,250.264 496.137,251.064 
		477.625,245.677 479.113,242.324 481.149,241.464 474.809,232.387 474.421,233.961 472.805,234.337 465.062,228.228 
		463.825,220.201 474.683,212.779 474.111,208.559 471.839,208.857 469.444,207.684 456.075,210.314 441.531,199.425 
		437.064,181.76 433.637,183.206 433.806,183.821 431.107,184.566 424.609,177.565 423.754,177.476 422.662,175.995 
		420.227,177.418 428.139,186.68 429.8,187.106 430.637,188.051 430.523,188.483 406.113,171.926 403.286,173.118 405.252,178.2 
		394.664,181.372 395.445,184.254 413.044,187.584 413.193,188.884 408.946,189.565 408.946,193.182 422.188,193.708 
		426.055,197.288 423.716,201.564 426.993,202.946 429.477,201.042 429.877,203.299 421.507,206.597 420.719,209.282 
		428.939,212.542 429.951,208.874 429.16,208.757 436.279,208.138 448.748,215.857 455.157,230.751 452,233.135 438.568,226.917 
		434.337,229.38 435.826,232.215 429.613,229.944 427.606,232.544 455.603,243.184 446.222,246.022 446.778,250.134 
		452.416,249.625 453.335,250.509 460.159,250.117 455.547,257.217 447.4,259.117 446.156,263.629 463.458,259.188 465.927,261.059 
		462.637,272.217 460.098,272.404 448.217,289.035 450.345,290.273 452.576,287.893 453.713,291.105 457.727,290.045 
		461.763,280.35 462.53,279.861 470.783,294.707 473.258,295.377 467.701,275.932 472.082,270.188 473.848,274.48 477.041,274.48 
		479.805,267.68 475.69,263.625 493.115,262.713 494.306,289.322 489.432,290.24 488.344,294.549 465.672,304.943 449.998,302.27 
		442.075,295.396 444.479,282.041 439.828,281.412 437.113,291.066 432.673,282.24 437.072,261.707 431.053,257.789 
		426.617,248.203 421.053,252.496 426.498,262.582 419.477,273.58 419.887,274.383 412.362,268.383 408.123,248.999 
		418.846,237.917 418.365,234.972 413.326,232.589 413.289,232.631 412.069,232.617 408.714,229.389 407.443,229.824 
		409.855,214.041 406.502,211.152 410.184,200.612 406.256,198.956 402.416,207.689 396.623,196.887 397.607,193.444 
		386.084,179.553 382.139,181.86 383.484,184.275 346.026,154.125 343.254,156.264 352.972,166.657 354.41,166.882 356.752,170.988 
		355.505,172.118 337.979,167.328 334.111,160.876 331.703,166.695 324.084,162.734 321.183,164.973 323.032,167.608 
		317.863,166.522 316.332,169.154 338.276,175.321 332.946,176.899 333.445,180.583 370.859,190.924 393.215,226.823 
		392.243,227.709 391.99,228.946 385.486,226.922 385.041,224.444 379.912,219.36 375.467,218.474 371.66,214.468 368.562,216.279 
		369.986,218.937 356.881,208.811 355.787,204.912 352.436,205.835 353.062,208.293 343.249,200.622 343.622,199.973 
		342.713,183.439 339.652,184.708 339.763,187.485 338.133,188.057 335.795,185.69 333.537,187.432 336.159,192.779 
		335.248,197.098 322.866,193.803 320.438,188.68 317.515,187.46 312.438,177.358 305.849,173.242 304.37,175.782 309.121,181.579 
		309.483,188.187 307.783,187.854 307.672,187.682 299.389,184.096 291.566,187.805 297.928,193.495 299.567,193.44 
		302.963,195.804 302.778,195.81 301.423,199.84 293.012,201.803 292.019,204.108 288.132,201.527 284.457,204.362 294.414,206.469 
		295.195,205.371 318.888,202.36 313.303,205.325 314.537,208.251 323.953,204.78 332.807,207.749 318.941,217.356 320.472,219.347 
		333.623,214.315 334.221,218.059 335.125,218.229 334.833,219.593 338.857,222.036 338.646,224.041 341.376,224.78 
		344.359,221.474 350.188,219.959 361.953,228.653 354.918,230.794 355.445,234.692 392.978,239.997 392.682,243.953 
		389.755,247.053 390.064,249.338 388.664,250.038 389.439,252.92 386.111,253.455 381.359,258.361 376.439,256.887 376.334,255.91 
		367.285,250.241 366.111,246.75 364.328,246.667 348.032,235.036 346.621,236.864 351.664,242.903 343.531,244.708 
		343.514,244.912 344.427,246.503 355.099,247.389 356.902,250.006 357.021,250.033 358.109,253.271 358.016,253.562 
		346.271,256.121 338.09,251.156 331.877,224.041 328.408,223.571 326.72,229.032 319.076,231.671 320.111,234.172 325.148,236.723 
		323.479,238.166 322.822,242.587 296.717,241.76 297.772,238.548 297.172,236.14 307.938,222.728 306.921,214.599 301.197,215.374 
		300.234,220.02 296.959,221.473 294.123,211.969 288.667,212.708 286.479,236.039 279.621,220.041 275.269,220.041 275.16,221.823 
		274.581,221.071 278.044,208.09 274.084,205.046 270.663,206.804 268.611,212.865 248.708,209.97 261.417,221.227 263.254,221.002 
		268.462,226.322 264.016,225.302 262.874,229.445 263.442,229.604 262.204,229.905 260.792,228.907 250.835,228.948 
		248.898,226.524 245.821,227.821 246.964,230.595 245.9,231.207 247.24,234.383 249.361,233.79 251.159,235.255 246.235,238.831 
		248.309,241.518 256.65,237.697 264.631,238.812 265.17,239.956 263.035,242.745 264.993,244.254 265.359,243.833 265.646,244.678 
		268.165,245.704 275.124,238.606 277.533,238.484 290.74,247.038 289.577,247.434 290.436,251.326 285.87,258.186 272.038,253.891 
		269.868,257.617 274.097,261.432 270.279,263.33 262.888,256.021 262.535,256.088 249.445,249.079 248.623,252.113 254.933,258.57 
		252.595,259.92 252.047,262.203 244.581,265.23 245.899,268.357 256.653,265.34 257.067,261.729 258.028,261.438 268.227,268.738 
		266.714,272.621 271.89,274.803 273.823,271.117 276.778,271.594 277.854,266.086 284.114,266.613 284.062,268.041 
		286.778,268.408 287.729,265.59 292.447,264.684 295.243,258.301 305.24,252.383 327.028,252.756 333.006,264.629 329.616,264.879 
		328.951,268.738 324.988,265.873 322.536,266.889 319.893,262.883 316.264,263.373 317.201,268.193 301.959,261.354 
		299.124,265.027 309.269,271.9 297.729,271.988 297.729,274.76 300.043,275.463 298.954,277.359 286.845,281.197 285.228,283.242 
		275.372,285.443 276.501,288.119 286.178,288.217 288.917,285.756 289.211,285.768 292.074,288.99 301.849,287.205 
		301.987,283.752 309.725,278.73 312.358,279.242 313.445,282.5 325.592,280.959 315.327,297.83 296.778,298.467 295.983,301.4 
		299.455,302.902 292.111,303.975 290.441,307.141 287.936,306.926 286.954,310.488 305.508,308.102 305.884,310.398 
		308.703,312.008 303.3,314.432 301.943,319.408 274.976,322.338 275.445,325.807 288.037,325.623 287.294,333.967 291.675,333.373 
		295.933,325.705 298.746,325.426 300.229,327.365 307.167,326.537 308.119,332.59 312.164,332.336 319.792,305.457 
		333.914,328.186 336.256,325.844 334.131,314.816 330.309,314.227 325.18,296.266 326.881,294.18 326.298,295.371 328.592,296.711 
		333.187,287.381 333.312,289.373 336.19,289.764 336.776,287.668 337.809,288.611 338.006,295.645 340.884,296.438 
		339.656,277.551 382.943,267.719 397.109,275.254 401.354,283.93 405.821,283.342 408.51,285.51 408.197,292.133 399.27,292.26 
		397.012,294.326 391.488,294.881 374.441,278.377 372.227,280.086 372.665,280.701 369.808,284.721 374.079,290.447 
		370.664,290.414 368.111,287.373 358.625,286.18 357.137,289.707 357.225,289.76 356.643,291.832 348.781,298.207 351.271,301.627 
		345.183,311.775 348.373,313.641 358.978,300.469 357.9,304.947 360.989,305.799 364.34,297.652 371.138,296.568 368.514,302.268 
		371.541,303.543 377.936,297.26 383.944,299.877 382.303,304.209 385.438,306.033 392.096,301.723 393.121,302.125 
		394.777,305.521 410.197,305.684 411.59,312.457 415.517,311.945 418.172,303.436 427.33,303.809 434.576,310.889 432.818,316.018 
		371.24,317.697 369.9,320.875 372.11,321.904 372.311,323.939 358.097,321.117 354.93,325.221 375.88,331.926 375.505,336.871 
		370.78,339.133 362.588,337.645 361.207,340.922 367.199,343.283 363.818,344.721 353.371,343.223 350.786,344.615 349.436,344.32 
		346.689,348.057 344.564,348.059 336.869,338.15 332.442,340.018 337.666,349.076 334.696,350.076 332.944,345.688 
		315.891,341.594 313.665,343.82 319.513,350.471 306.433,345.684 303.755,348.361 307.789,352.773 298.003,356.564 
		299.553,362.184 312.438,355.49 313.424,355.867 316.495,354.191 335.93,355.605 328.777,357.553 328.294,361.129 333.492,361.752 
		331.463,365.701 310.778,370.395 310.163,374.938 317.99,375.748 315.699,378.215 306.778,380.33 306.778,383.752 311.674,383.529 
		308.729,387.898 311.494,389.516 325.207,379.396 329.096,383.777 331.849,381.025 330.705,377.061 336.529,372.459 
		338.655,365.98 358.007,354.904 354.1,359.363 356.79,362.053 363.675,357.988 364.943,353.588 369.747,352.236 369.584,357.887 
		373.111,358.348 387.353,339.348 399.809,335.441 399.98,336 387.473,343.809 386.545,347.346 388.775,348.568 384.516,357.775 
		386.984,360.359 386.926,360.723 384.682,360.928 378.351,367.012 378.163,367.92 372.777,368.586 370.765,370.336 
		365.922,369.645 363.98,372.289 360.045,371.197 358.305,375.322 361.24,376.646 337.859,393.365 320.778,393.635 320.316,397.049 
		325.806,398.232 309.766,398.35 307.79,401.729 319.762,404.828 318.013,408.129 319.013,410.586 358.596,385.201 360.559,387.662 
		385.412,376.914 385.947,375.068 386.609,374.732 386.774,379.457 384.785,381.924 385.935,386.217 387.451,387.52 
		385.764,403.801 384.832,404.396 378.361,404.068 376.926,400.039 372.629,400.039 373.1,404.477 361.87,403.162 361.019,406.25 
		362.457,406.668 358.729,407.441 359.444,412.734 376.362,409.641 381.803,412.758 380.838,419.373 381.849,420.58 
		381.449,428.707 383.925,429.377 385.996,422.342 390.271,424.541 392.123,421.361 387.321,416.355 389.986,414.707 
		390.216,408.529 392.734,406.707 393.093,404.477 402.856,415.436 402.494,415.32 401.386,417.947 405.115,419.689 
		405.778,421.014 410.777,420.691 410.777,416.723 408.158,416.6 407.514,415.229 408.197,412.656 401.67,404.281 403.166,401.381 
		400.534,393.68 406.111,394.27 407.237,390.113 398.936,386.646 396.791,359.244 398.752,358.4 400.565,353.928 402.805,365.193 
		405.57,366.09 406.116,370.707 408.772,370.707 408.881,369.756 417.859,376.277 419.697,373.135 414.295,368.469 411.771,358.68 
		410.414,357.557 410.078,356.164 406.578,355.072 406.558,354.955 407.152,353.428 405.66,345.84 417.334,341.652 415.617,346.686 
		420.605,348.061 438.133,327.756 444.777,332.609 448.844,332.566 450.779,340.623 449.971,341.566 447.2,341.797 441.827,352.225 
		437.744,354.041 437.221,356.48 429.334,356.021 427.721,359.848 434.174,362.559 434.265,362.742 432.521,365.387 
		433.459,368.963 437.034,368.025 440.447,363.197 447.748,362.229 450.239,360.016 450.383,360.516 453.84,359.562 
		453.117,355.459 457.711,348.246 458.119,353.924 462.178,353.373 462.104,349.787 464.279,350.514 466.104,347.381 463.132,340.9 
		468.677,333.383 470.108,336.82 472.936,335.629 472.654,328.525 488.361,321.256 493.01,323.344 501.71,312.334 502.495,317.336 
		504.678,318.951 504.231,321.338 509.323,322.742 523.777,287.014 522.598,284.195 527.385,276.141 531.674,275.988 
		532.047,274.074 531.597,277.373 535.226,277.865 535.585,275.717 539.647,286.537 544.108,287.953 552.397,304.375 
		556.096,303.373 544.163,268.289 544.771,268.48 546.117,263.6 543.633,262.887 543.42,262.283 554.432,247.083 561.9,244.737 
		565.278,246.037 569.088,244.09 565.761,256.707 569.067,257.154 570.409,252.275 570.706,259.277 574.849,259.277 
		576.179,253.586 578.735,261.279 590.674,266.75 591.482,266.295 595.446,273.207 599.673,271.424 593.83,261.93 604.2,258.797 
		602.777,255.361 586.191,253.865 579.815,244.864 580.767,243.118 587.1,244.454 596.252,232.852 598.305,234.648 597.234,240.707 
		604.32,240.707 606.634,231.683 609.979,231.038 610.705,228.116 618.002,222.814 622.331,224.698 646.936,220.847 
		651.522,231.777 656.119,234.439 654.718,259.227 746.642,167.944 	"/>
	<circle id="anchor_1_" fill="#A99200" cx="746.642" cy="167.944" r="16.5"/>
	<circle id="anchor" fill="#A99200" cx="654.718" cy="259.226" r="16.5"/>
</g>
</svg>
