<?xml version="1.0" encoding="utf-8"?>
<!-- Generator: Adobe Illustrator 16.0.0, SVG Export Plug-In . SVG Version: 6.00 Build 0)  -->
<!DOCTYPE svg PUBLIC "-//W3C//DTD SVG 1.1//EN" "http://www.w3.org/Graphics/SVG/1.1/DTD/svg11.dtd">
<svg version="1.1" id="Layer_1" xmlns="http://www.w3.org/2000/svg" xmlns:xlink="http://www.w3.org/1999/xlink" x="0px" y="0px"
	 width="1000px" height="500px" viewBox="0 0 1000 500" enable-background="new 0 0 1000 500" xml:space="preserve">
<rect id="static" y="452.5" fill="#FF852A" width="1000" height="47.5"/>
<g>
	<polygon id="sponge-smiley" fill="#FFCD00" points="242.002,147.974 240.468,132.758 236.069,118.585 229.108,105.76 
		219.888,94.586 208.714,85.367 195.889,78.406 181.716,74.006 166.5,72.472 151.284,74.006 137.111,78.406 124.286,85.367 
		113.112,94.586 103.893,105.76 96.932,118.585 92.532,132.758 90.998,147.974 92.532,163.191 96.932,177.363 103.893,190.188 
		113.112,201.363 124.286,210.582 137.111,217.543 151.284,221.942 166.5,223.476 181.716,221.942 195.889,217.543 208.714,210.582 
		219.888,201.363 229.108,190.188 236.069,177.363 240.468,163.191 	"/>
	<g id="decoration">
		<path fill="#FFFFFF" d="M107.914,181.393l9.077,10.315l7.013,5.776l13.203,6.188l9.077,1.651h16.503l16.09-1.651l11.965-5.364
			l21.041-10.726l10.728-12.79l3.3-11.965l-7.839,9.902c0,0-5.809,2.383-14.44,9.077s-26.818,9.076-26.818,9.076
			s-30.972,4.685-38.37,1.651s-20.628-8.457-20.628-8.457L107.914,181.393z"/>
		<ellipse fill="#FFFFFF" cx="131.018" cy="120.95" rx="9.077" ry="16.709"/>
		<ellipse fill="#FFFFFF" cx="204.096" cy="135.597" rx="4.177" ry="9.489"/>
	</g>
</g>
<g>
	
		<rect id="wood" x="486.513" y="120.956" transform="matrix(0.7572 0.6531 -0.6531 0.7572 266.9772 -320.4011)" fill="#00FFC5" width="155.983" height="155.984"/>
	<g id="decoration_1_">
		<path fill="#FF5200" d="M564.49,265.166c0-71.666-47.207-30.666-47.207-78.874c0-50.696,47.207-51.899,47.207-6.373
			c0-45.526,53.01-44.323,53.01,4.156C617.5,236.5,564.49,193.5,564.49,265.166z"/>
	</g>
</g>
<g>
	
		<rect id="wood_1_" x="780.505" y="120.951" transform="matrix(0.7572 0.6531 -0.6531 0.7572 338.3452 -512.4201)" fill="#00FFC5" width="155.983" height="155.983"/>
	<g id="decoration_2_">
		<polygon fill="#FF5200" points="856.485,265.166 819.819,217 843.003,189.5 856.485,217 876.001,189.5 897.819,217 		"/>
	</g>
</g>
<g id="dezdezez">
	<path fill="#FF5200" d="M340.49,171.166c0-71.666-47.207-30.666-47.207-78.874c0-50.696,47.207-51.899,47.207-6.373
		c0-45.526,53.01-44.323,53.01,4.156C393.5,142.5,340.49,99.5,340.49,171.166z"/>
</g>
</svg>
