<?xml version="1.0" encoding="UTF-8" standalone="no"?>
<!-- Created with Inkscape (http://www.inkscape.org/) -->

<svg
   xmlns:dc="http://purl.org/dc/elements/1.1/"
   xmlns:cc="http://creativecommons.org/ns#"
   xmlns:rdf="http://www.w3.org/1999/02/22-rdf-syntax-ns#"
   xmlns:svg="http://www.w3.org/2000/svg"
   xmlns="http://www.w3.org/2000/svg"
   xmlns:sodipodi="http://sodipodi.sourceforge.net/DTD/sodipodi-0.dtd"
   xmlns:inkscape="http://www.inkscape.org/namespaces/inkscape"
   width="210mm"
   height="297mm"
   viewBox="0 0 744.09448819 1052.3622047"
   id="svg2"
   version="1.1"
   inkscape:version="0.91 r13725"
   sodipodi:docname="dude.svg">
  <defs
     id="defs4" />
  <sodipodi:namedview
     id="base"
     pagecolor="#ffffff"
     bordercolor="#666666"
     borderopacity="1.0"
     inkscape:pageopacity="0.0"
     inkscape:pageshadow="2"
     inkscape:zoom="1.4"
     inkscape:cx="251.82364"
     inkscape:cy="417.86235"
     inkscape:document-units="px"
     inkscape:current-layer="layer1"
     showgrid="false"
     inkscape:window-width="1920"
     inkscape:window-height="1017"
     inkscape:window-x="-8"
     inkscape:window-y="-8"
     inkscape:window-maximized="1" />
  <metadata
     id="metadata7">
    <rdf:RDF>
      <cc:Work
         rdf:about="">
        <dc:format>image/svg+xml</dc:format>
        <dc:type
           rdf:resource="http://purl.org/dc/dcmitype/StillImage" />
        <dc:title></dc:title>
      </cc:Work>
    </rdf:RDF>
  </metadata>
  <g
     inkscape:label="Calque 1"
     inkscape:groupmode="layer"
     id="layer1">
    <g
       id="dude"
       inkscape:label="#g4157"
       style="fill:#d3b8b8;fill-opacity:1">
      <path
         style="fill:#d3b8b8;fill-opacity:1;fill-rule:evenodd;stroke:#000000;stroke-width:1px;stroke-linecap:butt;stroke-linejoin:miter;stroke-opacity:1"
         d="m 265.25544,515.6905 33.92858,24.64286 17.5,0.71428 -15.35714,4.28572 12.85714,14.64285 -15.35714,-9.28571 8.21428,14.64286 -11.42857,-11.42858 2.14286,15.35715 -7.14287,-18.92857 -1.42857,-6.78572 -27.85714,-19.64286"
         id="path4163-6"
         inkscape:connector-curvature="0" />
      <rect
         y="466.47372"
         x="178.33896"
         height="133.34013"
         width="91.923882"
         id="rect4136"
         style="opacity:1;fill:#d3b8b8;fill-opacity:1;stroke:#000000;stroke-width:1;stroke-miterlimit:4;stroke-dasharray:none;stroke-dashoffset:0;stroke-opacity:1" />
      <path
         inkscape:connector-curvature="0"
         id="path4138"
         d="m 233.34524,514.96105 86.87312,-5.55584 5.53481,-2.77048 1.77086,-13.43221 -9.83105,5.59608 -88.38835,6.06092"
         style="fill:#d3b8b8;fill-opacity:1;fill-rule:evenodd;stroke:#000000;stroke-width:1px;stroke-linecap:butt;stroke-linejoin:miter;stroke-opacity:1"
         sodipodi:nodetypes="cccccc" />
      <rect
         y="482.63617"
         x="237.38585"
         height="9.5964489"
         width="16.667517"
         id="rect4140"
         style="opacity:1;fill:#d3b8b8;fill-opacity:1;stroke:#000000;stroke-width:1;stroke-miterlimit:4;stroke-dasharray:none;stroke-dashoffset:0;stroke-opacity:1" />
      <rect
         y="482.63617"
         x="194.54846"
         height="9.5964489"
         width="16.667517"
         id="rect4140-2"
         style="opacity:1;fill:#d3b8b8;fill-opacity:1;stroke:#000000;stroke-width:1;stroke-miterlimit:4;stroke-dasharray:none;stroke-dashoffset:0;stroke-opacity:1" />
      <path
         style="fill:#d3b8b8;fill-rule:evenodd;stroke:#000000;stroke-width:1px;stroke-linecap:butt;stroke-linejoin:miter;stroke-opacity:1;fill-opacity:1"
         d="m 182.85714,511.64792 -33.92857,24.64286 -17.5,0.71428 15.35714,4.28572 -12.85714,14.64285 15.35714,-9.28571 -8.21428,14.64286 11.42857,-11.42858 -2.14286,15.35715 7.14286,-18.92857 1.42857,-6.78572 27.85714,-19.64286"
         id="path4163"
         inkscape:connector-curvature="0" />
      <path
         style="fill:#d3b8b8;fill-rule:evenodd;stroke:#000000;stroke-width:1px;stroke-linecap:butt;stroke-linejoin:miter;stroke-opacity:1;fill-opacity:1"
         d="m 256.42857,598.79078 7.5,20.71428 21.42857,1.07143 -5.71428,6.07143 -24.64286,-2.5 -9.28571,-26.78572"
         id="path4180"
         inkscape:connector-curvature="0" />
      <path
         style="fill:#d3b8b8;fill-opacity:1;fill-rule:evenodd;stroke:#000000;stroke-width:1px;stroke-linecap:butt;stroke-linejoin:miter;stroke-opacity:1"
         d="m 192.28097,595.75435 -7.5,20.71428 -21.42857,1.07143 5.71428,6.07143 24.64286,-2.5 9.28571,-26.78572"
         id="path4180-4"
         inkscape:connector-curvature="0" />
    </g>
    <g
       id="pant"
       inkscape:label="#g4199">
      <path
         inkscape:connector-curvature="0"
         id="path4197"
         d="m 176.07143,504.50506 14.64286,0.35714 -0.35715,34.28572 -15.35714,1.42857 0.35714,59.28571 12.14286,2.5 -4.64286,5.71429 19.28572,4.64286 3.21428,-9.64286 38.57143,0.35714 5,10.71429 18.57143,-2.85714 -4.64286,-7.85715 10.35715,-2.5 -0.35715,-66.07143 -3.92857,-2.5 4.64286,-16.42857 -67.85714,3.21429 L 198.92857,499.8622 175,499.14792 Z"
         style="fill:#1b00ff;fill-rule:evenodd;stroke:#000000;stroke-width:1px;stroke-linecap:butt;stroke-linejoin:miter;stroke-opacity:1;fill-opacity:1" />
    </g>
    <g
       transform="translate(189.92013,0.43306467)"
       id="dude-5"
       inkscape:label="#g4157"
       style="fill:#aea8a8;fill-opacity:1">
      <path
         style="fill:#aea8a8;fill-opacity:1;fill-rule:evenodd;stroke:#000000;stroke-width:1px;stroke-linecap:butt;stroke-linejoin:miter;stroke-opacity:1"
         d="m 265.25544,515.6905 33.92858,24.64286 17.5,0.71428 -15.35714,4.28572 12.85714,14.64285 -15.35714,-9.28571 8.21428,14.64286 -11.42857,-11.42858 2.14286,15.35715 -7.14287,-18.92857 -1.42857,-6.78572 -27.85714,-19.64286"
         id="path4163-6-4"
         inkscape:connector-curvature="0" />
      <rect
         y="466.47372"
         x="178.33896"
         height="133.34013"
         width="91.923882"
         id="rect4136-3"
         style="opacity:1;fill:#aea8a8;fill-opacity:1;stroke:#000000;stroke-width:1;stroke-miterlimit:4;stroke-dasharray:none;stroke-dashoffset:0;stroke-opacity:1" />
      <path
         inkscape:connector-curvature="0"
         id="path4138-6"
         d="m 233.34524,514.96105 86.87312,-5.55584 5.53481,-2.77048 1.77086,-13.43221 -9.83105,5.59608 -88.38835,6.06092"
         style="fill:#aea8a8;fill-opacity:1;fill-rule:evenodd;stroke:#000000;stroke-width:1px;stroke-linecap:butt;stroke-linejoin:miter;stroke-opacity:1"
         sodipodi:nodetypes="cccccc" />
      <rect
         y="482.63617"
         x="237.38585"
         height="9.5964489"
         width="16.667517"
         id="rect4140-5"
         style="opacity:1;fill:#aea8a8;fill-opacity:1;stroke:#000000;stroke-width:1;stroke-miterlimit:4;stroke-dasharray:none;stroke-dashoffset:0;stroke-opacity:1" />
      <rect
         y="482.63617"
         x="194.54846"
         height="9.5964489"
         width="16.667517"
         id="rect4140-2-3"
         style="opacity:1;fill:#aea8a8;fill-opacity:1;stroke:#000000;stroke-width:1;stroke-miterlimit:4;stroke-dasharray:none;stroke-dashoffset:0;stroke-opacity:1" />
      <path
         style="fill:#aea8a8;fill-opacity:1;fill-rule:evenodd;stroke:#000000;stroke-width:1px;stroke-linecap:butt;stroke-linejoin:miter;stroke-opacity:1"
         d="m 182.85714,511.64792 -33.92857,24.64286 -17.5,0.71428 15.35714,4.28572 -12.85714,14.64285 15.35714,-9.28571 -8.21428,14.64286 11.42857,-11.42858 -2.14286,15.35715 7.14286,-18.92857 1.42857,-6.78572 27.85714,-19.64286"
         id="path4163-3"
         inkscape:connector-curvature="0" />
      <path
         style="fill:#aea8a8;fill-opacity:1;fill-rule:evenodd;stroke:#000000;stroke-width:1px;stroke-linecap:butt;stroke-linejoin:miter;stroke-opacity:1"
         d="m 256.42857,598.79078 7.5,20.71428 21.42857,1.07143 -5.71428,6.07143 -24.64286,-2.5 -9.28571,-26.78572"
         id="path4180-8"
         inkscape:connector-curvature="0" />
      <path
         style="fill:#aea8a8;fill-opacity:1;fill-rule:evenodd;stroke:#000000;stroke-width:1px;stroke-linecap:butt;stroke-linejoin:miter;stroke-opacity:1"
         d="m 192.28097,595.75435 -7.5,20.71428 -21.42857,1.07143 5.71428,6.07143 24.64286,-2.5 9.28571,-26.78572"
         id="path4180-4-9"
         inkscape:connector-curvature="0" />
    </g>
    <path
       style="fill:#ff6b6b;fill-rule:evenodd;stroke:#000000;stroke-width:1px;stroke-linecap:butt;stroke-linejoin:miter;stroke-opacity:1;fill-opacity:1"
       d="m 366.07143,562.3622 97.5,0.35715 -0.35714,45.35714 -29.28572,6.07143 -10,-12.14286 -28.92857,1.07143 -6.42857,13.21429 -24.64286,-5.71429 z"
       id="short"
       inkscape:connector-curvature="0"
       inkscape:label="#path4241" />
    <g
       transform="translate(80.39411,182.03632)"
       id="dude-5-2"
       inkscape:label="#g4157"
       style="fill:#ffb2ba;fill-opacity:1">
      <path
         style="fill:#ffb2ba;fill-opacity:1;fill-rule:evenodd;stroke:#000000;stroke-width:1px;stroke-linecap:butt;stroke-linejoin:miter;stroke-opacity:1"
         d="m 265.25544,515.6905 33.92858,24.64286 17.5,0.71428 -15.35714,4.28572 12.85714,14.64285 -15.35714,-9.28571 8.21428,14.64286 -11.42857,-11.42858 2.14286,15.35715 -7.14287,-18.92857 -1.42857,-6.78572 -27.85714,-19.64286"
         id="path4163-6-4-3"
         inkscape:connector-curvature="0" />
      <rect
         y="466.47372"
         x="178.33896"
         height="133.34013"
         width="91.923882"
         id="rect4136-3-4"
         style="opacity:1;fill:#ffb2ba;fill-opacity:1;stroke:#000000;stroke-width:1;stroke-miterlimit:4;stroke-dasharray:none;stroke-dashoffset:0;stroke-opacity:1" />
      <path
         inkscape:connector-curvature="0"
         id="path4138-6-6"
         d="m 233.34524,514.96105 86.87312,-5.55584 5.53481,-2.77048 1.77086,-13.43221 -9.83105,5.59608 -88.38835,6.06092"
         style="fill:#ffb2ba;fill-opacity:1;fill-rule:evenodd;stroke:#000000;stroke-width:1px;stroke-linecap:butt;stroke-linejoin:miter;stroke-opacity:1"
         sodipodi:nodetypes="cccccc" />
      <rect
         y="482.63617"
         x="237.38585"
         height="9.5964489"
         width="16.667517"
         id="rect4140-5-2"
         style="opacity:1;fill:#ffb2ba;fill-opacity:1;stroke:#000000;stroke-width:1;stroke-miterlimit:4;stroke-dasharray:none;stroke-dashoffset:0;stroke-opacity:1" />
      <rect
         y="482.63617"
         x="194.54846"
         height="9.5964489"
         width="16.667517"
         id="rect4140-2-3-6"
         style="opacity:1;fill:#ffb2ba;fill-opacity:1;stroke:#000000;stroke-width:1;stroke-miterlimit:4;stroke-dasharray:none;stroke-dashoffset:0;stroke-opacity:1" />
      <path
         style="fill:#ffb2ba;fill-opacity:1;fill-rule:evenodd;stroke:#000000;stroke-width:1px;stroke-linecap:butt;stroke-linejoin:miter;stroke-opacity:1"
         d="m 182.85714,511.64792 -33.92857,24.64286 -17.5,0.71428 15.35714,4.28572 -12.85714,14.64285 15.35714,-9.28571 -8.21428,14.64286 11.42857,-11.42858 -2.14286,15.35715 7.14286,-18.92857 1.42857,-6.78572 27.85714,-19.64286"
         id="path4163-3-2"
         inkscape:connector-curvature="0" />
      <path
         style="fill:#ffb2ba;fill-opacity:1;fill-rule:evenodd;stroke:#000000;stroke-width:1px;stroke-linecap:butt;stroke-linejoin:miter;stroke-opacity:1"
         d="m 256.42857,598.79078 7.5,20.71428 21.42857,1.07143 -5.71428,6.07143 -24.64286,-2.5 -9.28571,-26.78572"
         id="path4180-8-7"
         inkscape:connector-curvature="0" />
      <path
         style="fill:#ffb2ba;fill-opacity:1;fill-rule:evenodd;stroke:#000000;stroke-width:1px;stroke-linecap:butt;stroke-linejoin:miter;stroke-opacity:1"
         d="m 192.28097,595.75435 -7.5,20.71428 -21.42857,1.07143 5.71428,6.07143 24.64286,-2.5 9.28571,-26.78572"
         id="path4180-4-9-5"
         inkscape:connector-curvature="0" />
    </g>
    <path
       style="fill:#00bbff;fill-rule:evenodd;stroke:#000000;stroke-width:1px;stroke-linecap:butt;stroke-linejoin:miter;stroke-opacity:1;fill-opacity:1"
       d="m 256.57875,715.47633 15.15228,-8.08122 65.65992,-2.0203 16.16244,15.15228 -0.50508,57.5787 5.55584,12.12183 -60.60915,6.06091 -53.53808,-6.06091 10.6066,-11.11168 z"
       id="dress"
       inkscape:connector-curvature="0"
       inkscape:label="#path4282" />
    <path
       style="fill:#540028;fill-rule:evenodd;stroke:#000000;stroke-width:1px;stroke-linecap:butt;stroke-linejoin:miter;stroke-opacity:1;fill-opacity:1"
       d="m 365.71429,476.64792 c 1.42857,0 127.85714,5.71428 127.85714,5.71428 l 7.85714,-5.35714 -38.57143,0.71429 5.71429,-20 -104.64286,0.71428 z"
       id="cap"
       inkscape:connector-curvature="0"
       inkscape:label="#path4284" />
    <path
       style="fill:#f48a14;fill-rule:evenodd;stroke:#000000;stroke-width:1px;stroke-linecap:butt;stroke-linejoin:miter;stroke-opacity:1;fill-opacity:1"
       d="m 367.67857,727.71935 -2.5,-1.07143 8.39286,-11.42857 2.5,2.14285 z"
       id="bangle"
       inkscape:connector-curvature="0"
       inkscape:label="#path4286" />
    <path
       style="fill:#f48a14;fill-rule:evenodd;stroke:#000000;stroke-width:1px;stroke-linecap:butt;stroke-linejoin:miter;stroke-opacity:1;fill-opacity:1"
       d="m 371.86241,493.87412 -6.31346,-2.39912 -3.78807,4.54569 2.39911,4.79822 6.9448,-0.12626 1.38896,-3.15673 -1.51523,-0.25254 -0.75761,2.39911 -5.68211,-0.12627 -1.13642,-3.40926 2.39911,-2.90419 4.67196,1.51523"
       id="earring"
       inkscape:connector-curvature="0"
       inkscape:label="#path4288" />
    <path
       style="fill:#f48a14;fill-rule:evenodd;stroke:#000000;stroke-width:1px;stroke-linecap:butt;stroke-linejoin:miter;stroke-opacity:1;fill-opacity:1"
       d="m 367.5,505.75506 -1.96428,1.78572 39.64285,20.71428 17.5,-0.17857 38.75,-13.39286 -0.17857,3.75 -36.78571,12.67857 -19.82143,0.53572 -38.75,-21.07143 1.78571,-0.71429 z"
       id="necklace"
       inkscape:connector-curvature="0"
       inkscape:label="#path4290" />
    <path
       style="fill:#f48a14;fill-rule:evenodd;stroke:#000000;stroke-width:1px;stroke-linecap:butt;stroke-linejoin:miter;stroke-opacity:1;fill-opacity:1"
       d="m 497.45536,551.87113 -1.38393,-0.49107 -1.29464,1.78571 -0.3125,2.5 -1.29465,-1.02678 -0.0446,-2.09822 1.875,-2.36607 2.09822,0.53572 z"
       id="ring"
       inkscape:connector-curvature="0"
       inkscape:label="#path4292" />
    <path
       style="fill:#000000;fill-rule:evenodd;stroke:#000000;stroke-width:1px;stroke-linecap:butt;stroke-linejoin:miter;stroke-opacity:1;fill-opacity:1"
       d="m 148.74496,472.2821 136.62313,0.25254 0.75762,-2.77792 -14.14214,0.25254 0,-48.48732 -95.71195,-0.75761 -0.50508,48.99239 -27.27412,0 z"
       id="Hcap"
       inkscape:connector-curvature="0"
       inkscape:label="#path4296" />
    <path
       style="fill:#f48a14;fill-rule:evenodd;stroke:#000000;stroke-width:1px;stroke-linecap:butt;stroke-linejoin:miter;stroke-opacity:1;fill-opacity:1"
       d="m 387.14286,690.04078 -4.10714,4.10714 1.78571,3.39286 3.39286,-1.60715 0.53571,-3.57143 2.67857,-0.17857 -2.32143,4.28572 -4.28571,2.67857 -3.57143,-4.46429 3.57143,-5"
       id="nosering"
       inkscape:connector-curvature="0"
       inkscape:label="#path4298" />
    <g
       transform="translate(351.70585,181.5045)"
       id="dude-5-2-5"
       inkscape:label="#g4157"
       style="fill:#f5e9c6;fill-opacity:1">
      <path
         style="fill:#f5e9c6;fill-opacity:1;fill-rule:evenodd;stroke:#000000;stroke-width:1px;stroke-linecap:butt;stroke-linejoin:miter;stroke-opacity:1"
         d="m 265.25544,515.6905 33.92858,24.64286 17.5,0.71428 -15.35714,4.28572 12.85714,14.64285 -15.35714,-9.28571 8.21428,14.64286 -11.42857,-11.42858 2.14286,15.35715 -7.14287,-18.92857 -1.42857,-6.78572 -27.85714,-19.64286"
         id="path4163-6-4-3-8"
         inkscape:connector-curvature="0" />
      <rect
         y="466.47372"
         x="178.33896"
         height="133.34013"
         width="91.923882"
         id="rect4136-3-4-0"
         style="opacity:1;fill:#f5e9c6;fill-opacity:1;stroke:#000000;stroke-width:1;stroke-miterlimit:4;stroke-dasharray:none;stroke-dashoffset:0;stroke-opacity:1" />
      <path
         inkscape:connector-curvature="0"
         id="path4138-6-6-0"
         d="m 233.34524,514.96105 86.87312,-5.55584 5.53481,-2.77048 1.77086,-13.43221 -9.83105,5.59608 -88.38835,6.06092"
         style="fill:#f5e9c6;fill-opacity:1;fill-rule:evenodd;stroke:#000000;stroke-width:1px;stroke-linecap:butt;stroke-linejoin:miter;stroke-opacity:1"
         sodipodi:nodetypes="cccccc" />
      <rect
         y="482.63617"
         x="237.38585"
         height="9.5964489"
         width="16.667517"
         id="rect4140-5-2-0"
         style="opacity:1;fill:#f5e9c6;fill-opacity:1;stroke:#000000;stroke-width:1;stroke-miterlimit:4;stroke-dasharray:none;stroke-dashoffset:0;stroke-opacity:1" />
      <rect
         y="482.63617"
         x="194.54846"
         height="9.5964489"
         width="16.667517"
         id="rect4140-2-3-6-0"
         style="opacity:1;fill:#f5e9c6;fill-opacity:1;stroke:#000000;stroke-width:1;stroke-miterlimit:4;stroke-dasharray:none;stroke-dashoffset:0;stroke-opacity:1" />
      <path
         style="fill:#f5e9c6;fill-opacity:1;fill-rule:evenodd;stroke:#000000;stroke-width:1px;stroke-linecap:butt;stroke-linejoin:miter;stroke-opacity:1"
         d="m 182.85714,511.64792 -33.92857,24.64286 -17.5,0.71428 15.35714,4.28572 -12.85714,14.64285 15.35714,-9.28571 -8.21428,14.64286 11.42857,-11.42858 -2.14286,15.35715 7.14286,-18.92857 1.42857,-6.78572 27.85714,-19.64286"
         id="path4163-3-2-1"
         inkscape:connector-curvature="0" />
      <path
         style="fill:#f5e9c6;fill-opacity:1;fill-rule:evenodd;stroke:#000000;stroke-width:1px;stroke-linecap:butt;stroke-linejoin:miter;stroke-opacity:1"
         d="m 256.42857,598.79078 7.5,20.71428 21.42857,1.07143 -5.71428,6.07143 -24.64286,-2.5 -9.28571,-26.78572"
         id="path4180-8-7-9"
         inkscape:connector-curvature="0" />
      <path
         style="fill:#f5e9c6;fill-opacity:1;fill-rule:evenodd;stroke:#000000;stroke-width:1px;stroke-linecap:butt;stroke-linejoin:miter;stroke-opacity:1"
         d="m 192.28097,595.75435 -7.5,20.71428 -21.42857,1.07143 5.71428,6.07143 24.64286,-2.5 9.28571,-26.78572"
         id="path4180-4-9-5-7"
         inkscape:connector-curvature="0" />
    </g>
    <g
       id="smoking"
       inkscape:label="#g4345">
      <path
         inkscape:connector-curvature="0"
         id="path4339"
         d="m 527.5,686.64792 32.5,11.78571 -1.42857,57.14286 -33.57143,3.92857 3.21429,-48.57143 -11.07143,10 -10,-13.57143 21.42857,-14.64285 z"
         style="fill:#000000;fill-rule:evenodd;stroke:#000000;stroke-width:1px;stroke-linecap:butt;stroke-linejoin:miter;stroke-opacity:1;fill-opacity:1" />
      <path
         inkscape:connector-curvature="0"
         id="path4341"
         d="m 626.42857,749.50506 -18.57143,2.14286 1.78572,-53.57143 13.21428,-3.21429 0.71429,5.71429 23.57143,15.35714 -8.21429,11.78572 -15,-11.07143 z"
         style="fill:#000000;fill-rule:evenodd;stroke:#000000;stroke-width:1px;stroke-linecap:butt;stroke-linejoin:miter;stroke-opacity:1;fill-opacity:1" />
      <path
         inkscape:connector-curvature="0"
         id="path4343"
         d="m 527.5,764.14792 98.57143,-1.42857 -1.78571,33.57143 -24.64286,5 -3.92857,-16.42858 -36.42857,0 -7.5,13.92858 -19.64286,-4.28572 3.92857,-9.28571 L 525,783.07649 Z"
         style="fill:#000000;fill-rule:evenodd;stroke:#000000;stroke-width:1px;stroke-linecap:butt;stroke-linejoin:miter;stroke-opacity:1;fill-opacity:1" />
    </g>
    <g
       transform="translate(387.06299,2.5759214)"
       id="dude-5-2-6"
       inkscape:label="#g4157"
       style="fill:#9ec88f;fill-opacity:1">
      <path
         style="fill:#9ec88f;fill-opacity:1;fill-rule:evenodd;stroke:#000000;stroke-width:1px;stroke-linecap:butt;stroke-linejoin:miter;stroke-opacity:1"
         d="m 265.25544,515.6905 33.92858,24.64286 17.5,0.71428 -15.35714,4.28572 12.85714,14.64285 -15.35714,-9.28571 8.21428,14.64286 -11.42857,-11.42858 2.14286,15.35715 -7.14287,-18.92857 -1.42857,-6.78572 -27.85714,-19.64286"
         id="path4163-6-4-3-9"
         inkscape:connector-curvature="0" />
      <rect
         y="466.47372"
         x="178.33896"
         height="133.34013"
         width="91.923882"
         id="rect4136-3-4-5"
         style="opacity:1;fill:#9ec88f;fill-opacity:1;stroke:#000000;stroke-width:1;stroke-miterlimit:4;stroke-dasharray:none;stroke-dashoffset:0;stroke-opacity:1" />
      <path
         inkscape:connector-curvature="0"
         id="path4138-6-6-8"
         d="m 233.34524,514.96105 86.87312,-5.55584 5.53481,-2.77048 1.77086,-13.43221 -9.83105,5.59608 -88.38835,6.06092"
         style="fill:#9ec88f;fill-opacity:1;fill-rule:evenodd;stroke:#000000;stroke-width:1px;stroke-linecap:butt;stroke-linejoin:miter;stroke-opacity:1"
         sodipodi:nodetypes="cccccc" />
      <rect
         y="482.63617"
         x="237.38585"
         height="9.5964489"
         width="16.667517"
         id="rect4140-5-2-3"
         style="opacity:1;fill:#9ec88f;fill-opacity:1;stroke:#000000;stroke-width:1;stroke-miterlimit:4;stroke-dasharray:none;stroke-dashoffset:0;stroke-opacity:1" />
      <rect
         y="482.63617"
         x="194.54846"
         height="9.5964489"
         width="16.667517"
         id="rect4140-2-3-6-7"
         style="opacity:1;fill:#9ec88f;fill-opacity:1;stroke:#000000;stroke-width:1;stroke-miterlimit:4;stroke-dasharray:none;stroke-dashoffset:0;stroke-opacity:1" />
      <path
         style="fill:#9ec88f;fill-opacity:1;fill-rule:evenodd;stroke:#000000;stroke-width:1px;stroke-linecap:butt;stroke-linejoin:miter;stroke-opacity:1"
         d="m 182.85714,511.64792 -33.92857,24.64286 -17.5,0.71428 15.35714,4.28572 -12.85714,14.64285 15.35714,-9.28571 -8.21428,14.64286 11.42857,-11.42858 -2.14286,15.35715 7.14286,-18.92857 1.42857,-6.78572 27.85714,-19.64286"
         id="path4163-3-2-5"
         inkscape:connector-curvature="0" />
      <path
         style="fill:#9ec88f;fill-opacity:1;fill-rule:evenodd;stroke:#000000;stroke-width:1px;stroke-linecap:butt;stroke-linejoin:miter;stroke-opacity:1"
         d="m 256.42857,598.79078 7.5,20.71428 21.42857,1.07143 -5.71428,6.07143 -24.64286,-2.5 -9.28571,-26.78572"
         id="path4180-8-7-5"
         inkscape:connector-curvature="0" />
      <path
         style="fill:#9ec88f;fill-opacity:1;fill-rule:evenodd;stroke:#000000;stroke-width:1px;stroke-linecap:butt;stroke-linejoin:miter;stroke-opacity:1"
         d="m 192.28097,595.75435 -7.5,20.71428 -21.42857,1.07143 5.71428,6.07143 24.64286,-2.5 9.28571,-26.78572"
         id="path4180-4-9-5-3"
         inkscape:connector-curvature="0" />
    </g>
    <path
       style="fill:#616161;fill-rule:evenodd;stroke:#000000;stroke-width:1px;stroke-linecap:butt;stroke-linejoin:miter;stroke-opacity:1;fill-opacity:1"
       d="m 565.68543,506.37475 38.63833,22.4759 7.07107,0.75761 45.7094,-12.87944 0.50508,5.3033 -42.42641,11.61675 2.02031,6.31346 -4.29315,4.79822 -0.25254,33.0825 -4.04061,5.80837 -4.29315,-8.33376 3.53553,-31.31472 -6.31345,-4.29315 4.04061,-6.81853 -40.65864,-21.71828 z"
       id="tie"
       inkscape:connector-curvature="0"
       inkscape:label="#path4372" />
    <path
       style="fill:#000000;fill-rule:evenodd;stroke:#000000;stroke-width:1px;stroke-linecap:butt;stroke-linejoin:miter;stroke-opacity:1;fill-opacity:1"
       d="m 528.57143,661.64792 15.89286,1.07143 20.35714,0 1.42857,2.5 19.46429,-0.17857 2.14285,-3.03572 19.82143,0.35714 15,-2.85714 -0.17857,2.67857 -14.46428,2.32143 0.35714,10.89286 -2.14286,2.14286 -17.67857,0 -3.21429,-2.85715 -0.17857,-6.96428 -18.21428,0 -1.42857,8.39285 -2.67858,1.96429 -16.07142,-0.53571 -3.39286,-2.14286 0.17857,-10.35714 -15.17857,-1.25 z"
       id="glasses"
       inkscape:connector-curvature="0"
       inkscape:label="#path4389" />
    <g
       transform="translate(-113.05011,179.00586)"
       id="dude-5-2-5-7"
       inkscape:label="#g4157"
       style="fill:#f5e9c6;fill-opacity:1">
      <path
         style="fill:#f5e9c6;fill-opacity:1;fill-rule:evenodd;stroke:#000000;stroke-width:1px;stroke-linecap:butt;stroke-linejoin:miter;stroke-opacity:1"
         d="m 265.25544,515.6905 33.92858,24.64286 17.5,0.71428 -15.35714,4.28572 12.85714,14.64285 -15.35714,-9.28571 8.21428,14.64286 -11.42857,-11.42858 2.14286,15.35715 -7.14287,-18.92857 -1.42857,-6.78572 -27.85714,-19.64286"
         id="path4163-6-4-3-8-0"
         inkscape:connector-curvature="0" />
      <rect
         y="466.47372"
         x="178.33896"
         height="133.34013"
         width="91.923882"
         id="rect4136-3-4-0-2"
         style="opacity:1;fill:#f5e9c6;fill-opacity:1;stroke:#000000;stroke-width:1;stroke-miterlimit:4;stroke-dasharray:none;stroke-dashoffset:0;stroke-opacity:1" />
      <path
         inkscape:connector-curvature="0"
         id="path4138-6-6-0-4"
         d="m 233.34524,514.96105 86.87312,-5.55584 5.53481,-2.77048 1.77086,-13.43221 -9.83105,5.59608 -88.38835,6.06092"
         style="fill:#f5e9c6;fill-opacity:1;fill-rule:evenodd;stroke:#000000;stroke-width:1px;stroke-linecap:butt;stroke-linejoin:miter;stroke-opacity:1"
         sodipodi:nodetypes="cccccc" />
      <rect
         y="482.63617"
         x="237.38585"
         height="9.5964489"
         width="16.667517"
         id="rect4140-5-2-0-6"
         style="opacity:1;fill:#f5e9c6;fill-opacity:1;stroke:#000000;stroke-width:1;stroke-miterlimit:4;stroke-dasharray:none;stroke-dashoffset:0;stroke-opacity:1" />
      <rect
         y="482.63617"
         x="194.54846"
         height="9.5964489"
         width="16.667517"
         id="rect4140-2-3-6-0-8"
         style="opacity:1;fill:#f5e9c6;fill-opacity:1;stroke:#000000;stroke-width:1;stroke-miterlimit:4;stroke-dasharray:none;stroke-dashoffset:0;stroke-opacity:1" />
      <path
         style="fill:#f5e9c6;fill-opacity:1;fill-rule:evenodd;stroke:#000000;stroke-width:1px;stroke-linecap:butt;stroke-linejoin:miter;stroke-opacity:1"
         d="m 182.85714,511.64792 -33.92857,24.64286 -17.5,0.71428 15.35714,4.28572 -12.85714,14.64285 15.35714,-9.28571 -8.21428,14.64286 11.42857,-11.42858 -2.14286,15.35715 7.14286,-18.92857 1.42857,-6.78572 27.85714,-19.64286"
         id="path4163-3-2-1-8"
         inkscape:connector-curvature="0" />
      <path
         style="fill:#f5e9c6;fill-opacity:1;fill-rule:evenodd;stroke:#000000;stroke-width:1px;stroke-linecap:butt;stroke-linejoin:miter;stroke-opacity:1"
         d="m 256.42857,598.79078 7.5,20.71428 21.42857,1.07143 -5.71428,6.07143 -24.64286,-2.5 -9.28571,-26.78572"
         id="path4180-8-7-9-8"
         inkscape:connector-curvature="0" />
      <path
         style="fill:#f5e9c6;fill-opacity:1;fill-rule:evenodd;stroke:#000000;stroke-width:1px;stroke-linecap:butt;stroke-linejoin:miter;stroke-opacity:1"
         d="m 192.28097,595.75435 -7.5,20.71428 -21.42857,1.07143 5.71428,6.07143 24.64286,-2.5 9.28571,-26.78572"
         id="path4180-4-9-5-7-4"
         inkscape:connector-curvature="0" />
    </g>
    <path
       style="fill:#5b51ff;fill-rule:evenodd;stroke:#000000;stroke-width:1px;stroke-linecap:butt;stroke-linejoin:miter;stroke-opacity:1;fill-opacity:1"
       d="m 65.178572,743.79078 c 0,0 26.25,6.96428 27.321428,6.96428 1.071429,0 39.46429,0.53572 39.46429,0.53572 l 26.42857,-12.85715 -0.35715,13.03572 -29.28571,17.5 -0.17857,11.25 -30.714287,0 -3.928571,-12.14286 -14.464286,-5.17857 -15.178572,-0.89286 z"
       id="panties"
       inkscape:connector-curvature="0"
       inkscape:label="#path4466" />
  </g>
</svg>
