<?xml version="1.0" encoding="utf-8"?>
<!-- Generator: Adobe Illustrator 16.0.0, SVG Export Plug-In . SVG Version: 6.00 Build 0)  -->
<!DOCTYPE svg PUBLIC "-//W3C//DTD SVG 1.1//EN" "http://www.w3.org/Graphics/SVG/1.1/DTD/svg11.dtd">
<svg version="1.1" id="Layer_1" xmlns="http://www.w3.org/2000/svg" xmlns:xlink="http://www.w3.org/1999/xlink" x="0px" y="0px"
	 width="1000px" height="500px" viewBox="0 0 1000 500" enable-background="new 0 0 1000 500" xml:space="preserve">
<rect id="ghost_1_" x="-8.923" y="-23.539" fill="#94C6FF" width="1008.923" height="523.539"/>
<rect id="ghost" x="-71.741" y="412.359" fill="#009403" width="1096.155" height="87.641"/>
<g>
	<polyline fill="none" stroke="#4ED400" stroke-width="8" stroke-linecap="round" stroke-miterlimit="10" points="376.097,371.655 
		376.738,338.963 377.379,306.271 378.02,273.578 378.661,240.886 379.302,208.193 379.943,175.501 380.584,142.809 
		381.226,110.117 	"/>
	<polyline fill="none" stroke="#4ED400" stroke-width="8" stroke-linecap="round" stroke-miterlimit="10" points="455.369,370.053 
		456.01,337.361 456.651,304.668 457.292,271.977 457.933,239.284 458.574,206.591 459.215,173.899 459.856,141.207 
		460.498,108.515 	"/>
	<polyline fill="none" stroke="#4ED400" stroke-width="8" stroke-linecap="round" stroke-miterlimit="10" points="569.143,367.915 
		569.784,335.223 570.425,302.53 571.066,269.838 571.707,237.146 572.348,204.453 572.989,171.761 573.631,139.068 
		574.271,106.376 	"/>
	<polyline fill="none" stroke="#4ED400" stroke-width="8" stroke-linecap="round" stroke-miterlimit="10" points="614.488,470.083 
		615.13,437.391 615.771,404.698 616.412,372.006 617.053,339.313 617.693,306.621 618.335,273.929 618.977,241.236 
		619.617,208.544 	"/>
	<polyline fill="none" stroke="#4ED400" stroke-width="8" stroke-linecap="round" stroke-miterlimit="10" points="326.973,585.937 
		327.614,553.244 328.255,520.552 328.896,487.859 329.537,455.167 330.178,422.475 330.819,389.782 331.46,357.09 332.102,324.398 
			"/>
	<polyline fill="none" stroke="#4ED400" stroke-width="8" stroke-linecap="round" stroke-miterlimit="10" points="228.423,517.705 
		229.064,485.013 229.705,452.32 230.346,419.628 230.987,386.936 231.628,354.243 232.27,321.551 232.911,288.858 233.552,256.166 
			"/>
	<polyline fill="none" stroke="#4ED400" stroke-width="8" stroke-linecap="round" stroke-miterlimit="10" points="206.291,479.431 
		206.932,446.738 207.572,414.046 208.213,381.354 208.854,348.661 209.496,315.969 210.137,283.276 210.778,250.584 
		211.419,217.892 	"/>
	<polyline fill="none" stroke="#4ED400" stroke-width="8" stroke-linecap="round" stroke-miterlimit="10" points="357.408,415.771 
		358.049,383.079 358.689,350.387 359.331,317.694 359.972,285.002 360.613,252.31 361.254,219.617 361.895,186.925 
		362.536,154.233 	"/>
	<polyline fill="none" stroke="#4ED400" stroke-width="8" stroke-linecap="round" stroke-miterlimit="10" points="529.207,395.202 
		529.849,362.51 530.489,329.817 531.131,297.125 531.771,264.433 532.412,231.74 533.054,199.048 533.695,166.355 534.336,133.664 
			"/>
	<polyline fill="none" stroke="#4ED400" stroke-width="8" stroke-linecap="round" stroke-miterlimit="10" points="604.736,420.316 
		605.378,387.624 606.019,354.932 606.66,322.239 607.301,289.547 607.941,256.854 608.583,224.162 609.225,191.47 609.865,158.778 
			"/>
	<polyline fill="none" stroke="#4ED400" stroke-width="8" stroke-linecap="round" stroke-miterlimit="10" points="495.058,539.227 
		495.699,506.534 496.34,473.842 496.981,441.149 497.622,408.457 498.263,375.765 498.904,343.072 499.545,310.38 500.187,277.688 
			"/>
	<polyline fill="none" stroke="#4ED400" stroke-width="8" stroke-linecap="round" stroke-miterlimit="10" points="309.042,513.563 
		309.683,480.871 310.323,448.179 310.964,415.486 311.605,382.794 312.247,350.102 312.888,317.409 313.529,284.717 
		314.17,252.025 	"/>
	<polyline fill="none" stroke="#4ED400" stroke-width="8" stroke-linecap="round" stroke-miterlimit="10" points="524.494,468.641 
		525.136,435.948 525.776,403.256 526.418,370.563 527.059,337.871 527.699,305.179 528.341,272.486 528.982,239.794 
		529.623,207.102 	"/>
	<polyline fill="none" stroke="#4ED400" stroke-width="8" stroke-linecap="round" stroke-miterlimit="10" points="512.773,662.001 
		513.415,629.309 514.056,596.616 514.697,563.924 515.338,531.231 515.979,498.539 516.62,465.847 517.262,433.154 
		517.902,400.463 	"/>
	<polyline fill="none" stroke="#4ED400" stroke-width="8" stroke-linecap="round" stroke-miterlimit="10" points="186.255,551.41 
		186.896,518.718 187.537,486.025 188.178,453.333 188.819,420.641 189.46,387.948 190.101,355.256 190.742,322.563 
		191.383,289.871 	"/>
	<polyline fill="none" stroke="#4ED400" stroke-width="8" stroke-linecap="round" stroke-miterlimit="10" points="329.456,463.678 
		330.097,430.985 330.738,398.293 331.379,365.601 332.02,332.908 332.661,300.216 333.302,267.523 333.943,234.831 
		334.584,202.139 	"/>
	<polyline fill="none" stroke="#4ED400" stroke-width="8" stroke-linecap="round" stroke-miterlimit="10" points="252.033,621.459 
		252.674,588.767 253.315,556.074 253.956,523.382 254.597,490.689 255.238,457.997 255.879,425.305 256.521,392.612 
		257.162,359.92 	"/>
	<polyline fill="none" stroke="#4ED400" stroke-width="8" stroke-linecap="round" stroke-miterlimit="10" points="298.984,375.436 
		299.625,342.742 300.266,310.051 300.907,277.357 301.548,244.666 302.189,211.973 302.83,179.281 303.471,146.588 
		304.112,113.896 	"/>
	<polyline fill="none" stroke="#4ED400" stroke-width="8" stroke-linecap="round" stroke-miterlimit="10" points="341.917,662.295 
		342.558,629.603 343.198,596.91 343.839,564.218 344.48,531.525 345.122,498.833 345.763,466.141 346.404,433.448 347.045,400.756 
			"/>
	<polyline fill="none" stroke="#4ED400" stroke-width="8" stroke-linecap="round" stroke-miterlimit="10" points="245.802,372.027 
		246.443,339.336 247.084,306.643 247.725,273.951 248.366,241.258 249.007,208.566 249.648,175.874 250.29,143.181 
		250.931,110.489 	"/>
	<polyline fill="none" stroke="#4ED400" stroke-width="8" stroke-linecap="round" stroke-miterlimit="10" points="504.787,606.311 
		505.428,573.618 506.068,540.926 506.709,508.233 507.351,475.541 507.992,442.849 508.633,410.156 509.273,377.464 
		509.915,344.771 	"/>
	<polyline fill="none" stroke="#4ED400" stroke-width="8" stroke-linecap="round" stroke-miterlimit="10" points="374.289,313.578 
		374.93,280.886 375.571,248.193 376.212,215.501 376.853,182.809 377.494,150.116 378.135,117.424 378.776,84.731 379.417,52.04 	
		"/>
	<polyline fill="none" stroke="#4ED400" stroke-width="8" stroke-linecap="round" stroke-miterlimit="10" points="702.141,535.475 
		702.781,502.782 703.422,470.09 704.062,437.397 704.704,404.705 705.346,372.013 705.986,339.32 706.627,306.628 707.269,273.936 
			"/>
	<polyline fill="none" stroke="#4ED400" stroke-width="8" stroke-linecap="round" stroke-miterlimit="10" points="475.959,435.427 
		476.6,402.734 477.241,370.042 477.882,337.35 478.523,304.657 479.164,271.965 479.805,239.272 480.446,206.58 481.087,173.888 	
		"/>
	<polyline fill="none" stroke="#4ED400" stroke-width="8" stroke-linecap="round" stroke-miterlimit="10" points="715.58,476.405 
		716.222,443.713 716.862,411.021 717.504,378.328 718.145,345.636 718.785,312.943 719.427,280.251 720.068,247.559 
		720.709,214.867 	"/>
	<polyline fill="none" stroke="#4ED400" stroke-width="8" stroke-linecap="round" stroke-miterlimit="10" points="612.49,607.382 
		613.132,574.689 613.772,541.997 614.414,509.305 615.055,476.612 615.695,443.92 616.337,411.228 616.979,378.535 
		617.619,345.844 	"/>
	<polyline fill="none" stroke="#4ED400" stroke-width="8" stroke-linecap="round" stroke-miterlimit="10" points="557.611,516.136 
		558.253,483.443 558.894,450.751 559.535,418.059 560.176,385.366 560.816,352.674 561.458,319.981 562.1,287.289 562.74,254.598 	
		"/>
	<polyline fill="none" stroke="#4ED400" stroke-width="8" stroke-linecap="round" stroke-miterlimit="10" points="619.008,546.857 
		619.648,514.165 620.289,481.473 620.93,448.78 621.571,416.088 622.213,383.396 622.854,350.703 623.494,318.011 624.136,285.318 
			"/>
	<polyline fill="none" stroke="#4ED400" stroke-width="8" stroke-linecap="round" stroke-miterlimit="10" points="402.028,470.151 
		402.669,437.459 403.31,404.767 403.951,372.074 404.592,339.382 405.233,306.689 405.875,273.997 406.516,241.305 
		407.157,208.613 	"/>
	<polyline fill="none" stroke="#4ED400" stroke-width="8" stroke-linecap="round" stroke-miterlimit="10" points="581.414,579.266 
		582.055,546.573 582.695,513.881 583.336,481.188 583.978,448.496 584.619,415.804 585.26,383.111 585.9,350.419 586.542,317.727 	
		"/>
	<polyline fill="none" stroke="#4ED400" stroke-width="8" stroke-linecap="round" stroke-miterlimit="10" points="269.415,577.263 
		270.056,544.57 270.697,511.878 271.338,479.186 271.979,446.493 272.62,413.801 273.261,381.108 273.902,348.416 274.543,315.725 
			"/>
	<polyline fill="none" stroke="#4ED400" stroke-width="8" stroke-linecap="round" stroke-miterlimit="10" points="442.351,497.899 
		442.992,465.207 443.632,432.515 444.273,399.822 444.915,367.13 445.556,334.438 446.197,301.745 446.838,269.053 
		447.479,236.361 	"/>
	<polyline fill="none" stroke="#4ED400" stroke-width="8" stroke-linecap="round" stroke-miterlimit="10" points="423.278,629.959 
		423.919,597.267 424.56,564.574 425.201,531.882 425.842,499.189 426.483,466.497 427.125,433.805 427.766,401.112 428.407,368.42 
			"/>
	<polyline fill="none" stroke="#4ED400" stroke-width="8" stroke-linecap="round" stroke-miterlimit="10" points="449.461,584.549 
		450.102,551.856 450.743,519.164 451.384,486.472 452.025,453.779 452.666,421.087 453.307,388.395 453.948,355.702 
		454.589,323.01 	"/>
	<polyline fill="none" stroke="#4ED400" stroke-width="8" stroke-linecap="round" stroke-miterlimit="10" points="383.965,600.861 
		384.606,568.169 385.247,535.477 385.888,502.784 386.529,470.092 387.17,437.399 387.812,404.707 388.453,372.015 
		389.094,339.322 	"/>
	<polyline fill="none" stroke="#4ED400" stroke-width="8" stroke-linecap="round" stroke-miterlimit="10" points="375.24,527.64 
		375.881,494.947 376.521,462.255 377.163,429.562 377.804,396.87 378.445,364.178 379.086,331.485 379.727,298.793 
		380.368,266.102 	"/>
	<polyline fill="none" stroke="#4ED400" stroke-width="8" stroke-linecap="round" stroke-miterlimit="10" points="409.422,570.5 
		410.063,537.808 410.704,505.115 411.345,472.423 411.986,439.73 412.627,407.038 413.269,374.346 413.91,341.653 414.551,308.961 
			"/>
	<polyline fill="none" stroke="#4ED400" stroke-width="8" stroke-linecap="round" stroke-miterlimit="10" points="421.072,531.631 
		421.713,498.938 422.354,466.246 422.995,433.554 423.636,400.861 424.277,368.169 424.918,335.477 425.56,302.784 
		426.201,270.092 	"/>
</g>
</svg>
