<?xml version="1.0" encoding="utf-8"?>
<!-- Generator: Adobe Illustrator 16.0.0, SVG Export Plug-In . SVG Version: 6.00 Build 0)  -->
<!DOCTYPE svg PUBLIC "-//W3C//DTD SVG 1.1//EN" "http://www.w3.org/Graphics/SVG/1.1/DTD/svg11.dtd">
<svg version="1.1" id="Layer_1" xmlns="http://www.w3.org/2000/svg" xmlns:xlink="http://www.w3.org/1999/xlink" x="0px" y="0px"
	 width="1200px" height="800px" viewBox="0 0 1200 800" enable-background="new 0 0 1200 800" xml:space="preserve">
<radialGradient id="SVGID_1_" cx="708.9863" cy="668.4922" r="1053.1478" fx="702.8385" fy="292.7461" gradientTransform="matrix(1 0 0 -1 179 903.5)" gradientUnits="userSpaceOnUse">
	<stop  offset="0" style="stop-color:#1D2E2C"/>
	<stop  offset="1" style="stop-color:#000000"/>
</radialGradient>
<rect fill="url(#SVGID_1_)" width="1200" height="800"/>
<g id="static">
	<rect x="-87.5" y="800" width="1500" height="172.5"/>
	<rect x="-335.5" y="-55.5" width="335.5" height="855.5"/>
	<rect x="1200" y="-195.5" width="252.5" height="995.5"/>
	<rect y="-279.5" width="1200" height="279.5"/>
</g>
<g id="tentacles">
	
		<linearGradient id="SVGID_2_" gradientUnits="userSpaceOnUse" x1="-53.5405" y1="411.4092" x2="-53.5405" y2="586.3965" gradientTransform="matrix(1 0 0 -1 537 1109.5)">
		<stop  offset="0" style="stop-color:#B2F3FF;stop-opacity:0.3"/>
		<stop  offset="1" style="stop-color:#C2F6FF"/>
	</linearGradient>
	
		<polyline opacity="0.8" fill="none" stroke="url(#SVGID_2_)" stroke-width="3" stroke-linecap="round" stroke-linejoin="round" stroke-miterlimit="10" enable-background="new    " points="
		483.46,524.604 483.46,546.104 483.46,567.601 483.46,589.1 483.46,610.599 483.46,632.096 483.46,653.594 483.46,675.093 
		483.46,696.591 	"/>
	
		<linearGradient id="SVGID_3_" gradientUnits="userSpaceOnUse" x1="-43.5039" y1="496.6553" x2="-43.5039" y2="586.4014" gradientTransform="matrix(1 0 0 -1 537 1109.5)">
		<stop  offset="0" style="stop-color:#B2F3FF;stop-opacity:0.3"/>
		<stop  offset="1" style="stop-color:#C2F6FF"/>
	</linearGradient>
	
		<polyline opacity="0.8" fill="none" stroke="url(#SVGID_3_)" stroke-width="4" stroke-linecap="round" stroke-linejoin="round" stroke-miterlimit="10" enable-background="new    " points="
		494.017,525.099 493.757,546.535 493.496,567.972 493.236,589.408 492.977,610.845 	"/>
	
		<linearGradient id="SVGID_4_" gradientUnits="userSpaceOnUse" x1="-34.8047" y1="453.8662" x2="-34.8047" y2="585.7852" gradientTransform="matrix(1 0 0 -1 537 1109.5)">
		<stop  offset="0" style="stop-color:#B2F3FF;stop-opacity:0.3"/>
		<stop  offset="1" style="stop-color:#C2F6FF"/>
	</linearGradient>
	
		<polyline opacity="0.8" fill="none" stroke="url(#SVGID_4_)" stroke-width="3.6195" stroke-linecap="round" stroke-linejoin="round" stroke-miterlimit="10" enable-background="new    " points="
		503.097,525.524 502.796,546.907 502.496,568.291 502.196,589.674 501.896,611.058 501.596,632.441 501.295,653.824 	"/>
	
		<polyline opacity="0.8" fill="none" stroke="#FFFFFF" stroke-width="3.6195" stroke-linecap="round" stroke-linejoin="round" stroke-miterlimit="10" enable-background="new    " points="
		515.63,526.11 515.363,547.421 515.095,568.73 514.827,590.041 	"/>
	
		<linearGradient id="SVGID_5_" gradientUnits="userSpaceOnUse" x1="-14.4409" y1="432.3594" x2="-14.4409" y2="584.7988" gradientTransform="matrix(1 0 0 -1 537 1109.5)">
		<stop  offset="0" style="stop-color:#B2F3FF;stop-opacity:0.3"/>
		<stop  offset="1" style="stop-color:#C2F6FF"/>
	</linearGradient>
	
		<polyline opacity="0.8" fill="none" stroke="url(#SVGID_5_)" stroke-width="3.6195" stroke-linecap="round" stroke-linejoin="round" stroke-miterlimit="10" enable-background="new    " points="
		524.185,526.511 523.721,547.771 523.257,569.031 522.792,590.292 522.328,611.552 521.864,632.812 521.399,654.071 
		520.935,675.331 	"/>
	
		<linearGradient id="SVGID_6_" gradientUnits="userSpaceOnUse" x1="-1.1611" y1="496.1562" x2="-1.1611" y2="583.9043" gradientTransform="matrix(1 0 0 -1 537 1109.5)">
		<stop  offset="0" style="stop-color:#B2F3FF;stop-opacity:0.3"/>
		<stop  offset="1" style="stop-color:#C2F6FF"/>
	</linearGradient>
	
		<polyline opacity="0.8" fill="none" stroke="url(#SVGID_6_)" stroke-width="3" stroke-linecap="round" stroke-linejoin="round" stroke-miterlimit="10" enable-background="new    " points="
		536.676,527.096 536.258,548.283 535.84,569.47 535.421,590.657 535.003,611.844 	"/>
	
		<linearGradient id="SVGID_7_" gradientUnits="userSpaceOnUse" x1="9.3867" y1="454.1523" x2="9.3867" y2="582.8828" gradientTransform="matrix(1 0 0 -1 537 1109.5)">
		<stop  offset="0" style="stop-color:#B2F3FF;stop-opacity:0.3"/>
		<stop  offset="1" style="stop-color:#C2F6FF"/>
	</linearGradient>
	
		<polyline opacity="0.8" fill="none" stroke="url(#SVGID_7_)" stroke-width="2" stroke-linecap="round" stroke-linejoin="round" stroke-miterlimit="10" enable-background="new    " points="
		547.8,527.617 547.33,548.739 546.858,569.86 546.388,590.981 545.917,612.104 545.445,633.226 544.975,654.348 	"/>
	
		<rect id="constraint-jellyfishHead" x="479.812" y="523.5" opacity="0.2" fill="#FFDF7F" enable-background="new    " width="6.047" height="4.705"/>
	
		<rect id="constraint-jellyfishHead_1_" x="490.993" y="522.747" opacity="0.2" fill="#FFDF7F" enable-background="new    " width="6.047" height="4.704"/>
	
		<rect id="constraint-jellyfishHead_2_" x="500.073" y="523.465" opacity="0.2" fill="#FFDF7F" enable-background="new    " width="6.047" height="4.705"/>
	
		<rect id="constraint-jellyfishHead_3_" x="512.606" y="523.759" opacity="0.2" fill="#FFDF7F" enable-background="new    " width="6.048" height="4.704"/>
	
		<rect id="constraint-jellyfishHead_4_" x="521.161" y="524.159" opacity="0.2" fill="#FFDF7F" enable-background="new    " width="6.048" height="4.704"/>
	
		<rect id="constraint-jellyfishHead_5_" x="533.652" y="524.451" opacity="0.2" fill="#FFDF7F" enable-background="new    " width="6.048" height="4.705"/>
	
		<rect id="constraint-jellyfishHead_6_" x="544.776" y="525.265" opacity="0.2" fill="#FFDF7F" enable-background="new    " width="6.048" height="4.704"/>
</g>
<g id="stuff">
	<polygon opacity="0.6" fill="#CFF8F9" stroke="#FFFFFF" stroke-miterlimit="10" enable-background="new    " points="
		501.946,525.265 496.946,529.515 499.446,538.765 496.946,544.265 498.196,551.028 493.446,560.262 497.696,565.72 
		501.946,571.765 501.946,576.515 503.446,583.765 505.946,576.515 507.196,569.765 503.196,563.825 502.946,558.765 
		507.196,552.265 505.946,545.515 505.946,540.515 510.946,534.515 509.196,528.515 509.446,525.265 	"/>
	
		<polygon opacity="0.8" fill="#CFF8F9" stroke="#FFFFFF" stroke-width="1.0417" stroke-miterlimit="10" enable-background="new    " points="
		512.214,525.265 504.377,528.207 508.296,534.61 504.377,538.419 506.336,543.101 498.891,549.493 505.553,553.271 
		512.214,557.457 512.214,560.745 514.566,565.765 518.484,560.745 520.444,556.072 514.174,551.96 513.782,548.457 
		520.444,543.957 518.484,539.284 518.484,535.822 526.322,531.669 523.579,527.515 523.971,525.265 	"/>
	<polygon id="constraint-jellyfishHead_7_" fill="#CFF8F9" points="498,525.524 511.417,528.463 529.75,528.863 530.156,527.096 
		518.25,523.668 	"/>
	
		<polygon opacity="0.6" fill="#CFF8F9" stroke="#FFFFFF" stroke-width="1.0417" stroke-miterlimit="10" enable-background="new    " points="
		514.036,527.89 510.286,534.404 510.286,540.14 514.036,546.14 517.286,554.654 513.786,561.89 517.286,567.39 521.036,574.64 
		519.786,578.562 523.286,581.89 525.036,585.14 526.536,581.14 526.322,577.5 525.286,573.89 529.036,568.89 527.209,560.75 
		527.209,548 527.209,545.515 530.431,538.5 527.286,534.404 528.786,527.89 	"/>
</g>
<g>
	
		<polygon id="head-jellyfishHead" fill="#CFF8F9" stroke="#FFFFFF" stroke-width="2.0936" stroke-linecap="round" stroke-linejoin="round" stroke-miterlimit="10" points="
		483.46,524.604 475.771,518.932 485.859,512.207 492.977,505.772 503.972,501.145 512.606,499.409 527.209,500.06 535.003,503.747 
		544.776,512.32 554.947,524.159 547.8,527.617 536.676,527.096 524.185,526.511 515.63,526.11 503.097,525.524 494.017,525.099 	
		"/>
	
		<line id="joint-muscle_4_" fill="none" stroke="#E9BC00" stroke-width="0.9049" stroke-miterlimit="10" x1="494.017" y1="525.099" x2="503.097" y2="525.524"/>
	
		<line id="joint-muscle_3_" fill="none" stroke="#E9BC00" stroke-width="0.9049" stroke-miterlimit="10" x1="503.097" y1="525.524" x2="515.63" y2="526.11"/>
	
		<line id="joint-muscle_2_" fill="none" stroke="#E9BC00" stroke-width="0.9049" stroke-miterlimit="10" x1="515.63" y1="526.11" x2="524.185" y2="526.511"/>
	
		<line id="joint-muscle_1_" fill="none" stroke="#E9BC00" stroke-width="0.9049" stroke-miterlimit="10" x1="524.185" y1="526.511" x2="536.676" y2="527.096"/>
	
		<line id="joint-muscle" fill="none" stroke="#E9BC00" stroke-width="0.9049" stroke-miterlimit="10" x1="536.676" y1="527.096" x2="547.8" y2="527.617"/>
	
		<line id="joint-muscle_5_" fill="none" stroke="#00F3FF" stroke-width="0.9049" stroke-miterlimit="10" x1="483.46" y1="524.604" x2="494.017" y2="525.099"/>
</g>
</svg>
