<?xml version="1.0" encoding="utf-8"?>
<!-- Generator: Adobe Illustrator 16.0.0, SVG Export Plug-In . SVG Version: 6.00 Build 0)  -->
<!DOCTYPE svg PUBLIC "-//W3C//DTD SVG 1.1//EN" "http://www.w3.org/Graphics/SVG/1.1/DTD/svg11.dtd">
<svg version="1.1" id="Layer_1" xmlns="http://www.w3.org/2000/svg" xmlns:xlink="http://www.w3.org/1999/xlink" x="0px" y="0px"
	 width="1000px" height="500px" viewBox="0 0 1000 500" enable-background="new 0 0 1000 500" xml:space="preserve">
<rect id="ghost_2_" fill="#666666" width="1000" height="500"/>
<polygon id="ghost_1_" fill="#514D4D" points="0,96.795 44.923,63.461 120.564,94.231 160.146,141.591 142.359,180.128 
	234.667,173.718 312.872,191.667 328.256,233.975 360.308,233.975 369.282,250 409.026,290.385 397.487,316.025 409.026,354.487 
	446.205,369.872 483.385,344.23 557.743,369.872 544.923,400.641 557.743,426.282 573.128,435.257 620.564,435.257 661.59,458.333 
	673.128,481.41 798.77,481.41 834.667,421.154 841.077,360.897 901.333,314.743 957.744,260.896 985.949,259.615 1000,258.333 
	1000,500 0,500 "/>
<polygon id="ghost" fill="#3D3D3D" points="0,171.154 61.59,130.128 114.154,130.128 173.128,98.077 232.103,142.949 
	252.615,218.59 303.897,269.872 334.667,263.462 370.564,276.282 401.581,329.669 460.308,314.743 505.18,304.487 528.27,359.708 
	550.562,411.923 596.205,411.923 614.154,435.257 661.59,435.257 709.025,421.154 755.18,454.487 815.436,433.975 873.128,422.436 
	925.692,353.205 966.718,333.975 993.641,322.436 1000,318.59 1000,500 0,500 "/>
<polygon id="static" fill="#1E1E1E" points="0,264.743 76.975,235.256 160.308,259.615 215.436,325 244.923,386.538 
	342.359,386.538 428.256,366.025 500,400.641 682.104,376.282 726.975,413.462 798.77,453.205 874.41,466.025 929.538,439.103 
	962.872,396.795 1000,376.282 1000,500 0,500 "/>
<polygon id="jelly" opacity="0.4" fill="#FF892A" stroke="#FFA048" stroke-width="20" stroke-linecap="round" stroke-linejoin="round" stroke-miterlimit="10" enable-background="new    " points="
	143.5,140.833 143.5,130.167 143.5,121.674 143.5,110.834 143.5,100.167 143.5,85.833 143.5,76.5 143.5,67.167 143.5,55.167 
	146.167,46.167 153.5,37.167 166.167,32.5 178.833,29.5 203.167,29.5 225.5,33.167 237.167,41.167 240.5,51.167 240.5,70.167 
	240,83.827 239.423,99.534 238.555,123.193 237.833,142.833 231.167,153.833 223.833,158.167 215.167,163.833 194.167,163.833 
	181.167,163.833 173.167,161.5 160.5,157.5 152.833,152.833 "/>
</svg>
