<?xml version="1.0" encoding="utf-8"?>
<!-- Generator: Adobe Illustrator 16.0.0, SVG Export Plug-In . SVG Version: 6.00 Build 0)  -->
<!DOCTYPE svg PUBLIC "-//W3C//DTD SVG 1.1//EN" "http://www.w3.org/Graphics/SVG/1.1/DTD/svg11.dtd">
<svg version="1.1" id="Layer_1" xmlns="http://www.w3.org/2000/svg" xmlns:xlink="http://www.w3.org/1999/xlink" x="0px" y="0px"
	 width="1200px" height="800px" viewBox="0 0 1200 800" enable-background="new 0 0 1200 800" xml:space="preserve">
<g id="static">
	<rect y="800" width="1200" height="128.078"/>
	<rect x="-181.075" width="181.075" height="928.078"/>
	<rect x="1200" width="131.232" height="928.078"/>
	<rect x="-181.074" y="-644.717" width="1512.307" height="644.717"/>
</g>
<rect fill="#0071BC" width="1200" height="800"/>
<g id="stone">
	
		<path fill="#3FA9F5" stroke="#FFFF00" stroke-width="5" stroke-linecap="round" stroke-linejoin="round" stroke-miterlimit="10" d="
		M217.072,364.594H191.5l-4.437-23.354l-12.962-4.904l-18.099-2.102l-21.661,5.896l-7.648,15.239l7.999,14.188l27.617,11.736
		l42.68,20.668l14.538,33.747l-17.282,34.447l-45.541,12.611l-36.491-6.422l-27.149-17.75v-35.498h26.39l3.62,24.172l13.954,6.947
		l19.676,2.744l21.311-5.722l7.298-15.297l-6.948-15.764l-24.347-11.21l-45.774-20.786l-15.531-32.929l17.516-33.805l44.023-13.487
		l35.731,5.955l27.091,15.881V364.594L217.072,364.594z"/>
	
		<path fill="#3FA9F5" stroke="#FFFF00" stroke-width="5" stroke-linecap="round" stroke-linejoin="round" stroke-miterlimit="10" d="
		M304.506,330.847l-12.961,2.335l30.127,101.941l2.102,9.342h0.701l1.985-9.108l30.244-102.174l-12.845-2.335v-20.552h62.122v20.552
		l-14.246,1.869L341.64,480.313h-35.031l-50.211-147.598l-14.013-1.869v-20.552h62.122V330.847L304.506,330.847z"/>
	
		<path fill="#3FA9F5" stroke="#FFFF00" stroke-width="5" stroke-linecap="round" stroke-linejoin="round" stroke-miterlimit="10" d="
		M514,310.295v20.552l-18.216,3.503v94.934l-16.056,39.061l-40.578,14.421l-42.154-12.962l-14.947-38.184l0.233-0.701h33.163
		l6.422,19.56l17.282,6.131l16.056-7.299l6.597-20.026V334.35l-18.216-3.503v-20.552h52.197H514L514,310.295z"/>
	
		<path fill="#3FA9F5" stroke="#FFFF00" stroke-width="5" stroke-linecap="round" stroke-linejoin="round" stroke-miterlimit="10" d="
		M646.456,405.58h-57.568v48.577h54.882l1.518-20.318h25.924v46.475H536.691v-20.435l18.1-3.504V334.35l-18.1-3.503v-20.552h18.1
		h116.187v46.592h-26.156l-1.518-20.318h-54.416v42.738h57.568V405.58L646.456,405.58z"/>
	
		<path fill="#3FA9F5" stroke="#FFFF00" stroke-width="5" stroke-linecap="round" stroke-linejoin="round" stroke-miterlimit="10" d="
		M690.428,480.313v-20.435l18.1-3.504V334.35l-18.1-3.503v-20.552h18.1h34.097h18.217v20.552l-18.217,3.503v119.807h47.993
		l1.635-21.369h26.04v47.525H690.428L690.428,480.313z"/>
	
		<path fill="#3FA9F5" stroke="#FFFF00" stroke-width="5" stroke-linecap="round" stroke-linejoin="round" stroke-miterlimit="10" d="
		M835.553,480.313v-20.435l18.1-3.504V334.35l-18.1-3.503v-20.552h18.1h34.097h18.217v20.552l-18.217,3.503v119.807h47.993
		l1.635-21.369h26.04v47.525H835.553L835.553,480.313z"/>
	
		<path fill="#3FA9F5" stroke="#FFFF00" stroke-width="5" stroke-linecap="round" stroke-linejoin="round" stroke-miterlimit="10" d="
		M1012.104,330.847l-13.896,1.985l26.391,55.816h0.7l26.391-55.816l-13.779-1.985v-20.552h64.341v20.552l-14.479,2.335
		l-46.241,87.344v35.849l18.216,3.504v20.435h-70.412v-20.435l18.216-3.504v-37.6l-45.424-85.593l-14.362-2.335v-20.552h64.341
		V330.847L1012.104,330.847z"/>
</g>
</svg>
