<?xml version="1.0" encoding="utf-8"?>
<!-- Generator: Adobe Illustrator 16.0.0, SVG Export Plug-In . SVG Version: 6.00 Build 0)  -->
<!DOCTYPE svg PUBLIC "-//W3C//DTD SVG 1.1//EN" "http://www.w3.org/Graphics/SVG/1.1/DTD/svg11.dtd">
<svg version="1.1" id="Layer_1" xmlns="http://www.w3.org/2000/svg" xmlns:xlink="http://www.w3.org/1999/xlink" x="0px" y="0px"
	 width="1200px" height="800px" viewBox="0 0 1200 800" enable-background="new 0 0 1200 800" xml:space="preserve">
<g id="back">
	
		<radialGradient id="SVGID_1_" cx="-593.0508" cy="-695.6836" r="1086.4591" fx="-495.2739" fy="-856.3324" gradientTransform="matrix(0.9714 0 0 0.9489 1448.1061 851.3714)" gradientUnits="userSpaceOnUse">
		<stop  offset="0" style="stop-color:#E9F2BF"/>
		<stop  offset="1" style="stop-color:#415C5C"/>
	</radialGradient>
	<rect fill="url(#SVGID_1_)" width="1200" height="800"/>
	<polygon id="ghost-mountains" opacity="0.5" fill="#6D5A44" enable-background="new    " points="0,544.48 71,533.041 141,483.135 
		273,407.88 318.003,375.081 435,461 637,483 720.484,527.07 793,507.691 863,425.308 925,384.114 983,335 1145,469.668 
		1179,504.522 1200,509.202 1200,800 0,800 	"/>
	<polygon fill="#706550" points="0,629 145,561 291,529 441,551 623,587 797,551 913,495 1111,400 1171,473 1200,491.6 1200,800 
		0,800 	"/>
	<polygon fill="#6B5340" points="0,602.965 107,631.835 215,669.365 301,689.574 455,653.487 600,637.608 687,670.809 829,689.574 
		955,670.809 1009,626.061 1113,582.757 1169,582.757 1200,551 1200,800 0,800 	"/>
	<circle opacity="0.5" fill="#FFFFFF" enable-background="new    " cx="1029.07" cy="15.5" r="73.497"/>
	<g id="static_2_">
		<polygon fill="#381F07" points="659,472.334 763.584,485.346 763.584,498.012 659,481.334 		"/>
		<g>
			<polygon fill="#381F07" points="688,479.834 709.5,479.834 763.584,552.346 763.584,564.512 			"/>
		</g>
		<g>
			<polygon id="static_1_" fill="#260706" points="778.971,481.112 938.477,514.125 965.465,525.678 961.74,536.84 935.014,525.43 
				778.971,493.617 			"/>
			
				<line id="static-concon" fill="none" stroke="#0A0A0A" stroke-width="6.8653" stroke-miterlimit="10" x1="763.584" y1="654.639" x2="904.713" y2="509.422"/>
		</g>
		<polygon fill="#381F07" points="763.584,453.34 725.792,698.985 711.292,734.821 756.084,734.821 778.971,458.345 		"/>
	</g>
</g>
<g id="moving">
	<g>
		<circle id="stone" fill="#262626" cx="597.06" cy="526.295" r="21"/>
		
			<line id="constraint-world-wire" fill="none" stroke="#262626" stroke-width="4" stroke-miterlimit="10" x1="597.06" y1="526.295" x2="670.554" y2="478.7"/>
	</g>
	<g>
		<polygon id="metal-big" fill="#262626" points="822.157,485.087 813.222,471.848 813.222,447.575 824.417,434.335 850.55,434.335 
			867.952,445.368 869.571,465.228 861.585,480.423 841.396,485.087 		"/>
		<polygon id="metal_1_" fill="#262626" points="874.575,492.503 871.965,488.634 871.965,481.54 875.237,477.671 882.875,477.671 
			887.961,480.896 888.436,486.699 886.102,491.14 880.2,492.503 		"/>
		<polygon id="metal_2_" fill="#262626" points="787.765,474.544 785.153,470.675 785.153,463.58 788.425,459.711 796.062,459.711 
			801.149,462.936 801.622,468.739 799.288,473.181 793.388,474.544 		"/>
	</g>
	<g id="tree-tree">
		<polygon fill="#42210B" points="354.596,714.27 355.554,693.804 341.665,665.591 318.054,635.934 249.689,585.864 
			241.234,567.182 235.902,564.123 198.554,572.943 227.544,559.329 218.554,554.45 244.365,557.819 245.554,535.958 
			251.554,516.866 250.054,536.845 254.354,562.511 272.477,580.87 296.554,593.366 331.054,614.366 329.554,591.866 
			295.554,547.295 295.554,505.295 299.554,512.366 311.161,495.229 300.554,519.847 302.161,536.845 311.427,547.294 
			345.054,526.295 337.156,536.845 372.054,532.866 329.331,547.295 321.135,558.243 330.554,568.866 343.054,579.329 
			361.054,565.878 413.554,544.866 442.054,519.847 446.316,505.295 447.554,512.366 455.554,505.295 444.554,524.518 
			426.554,542.366 458.97,539.045 482.054,544.366 502.554,536.845 488.554,547.295 503.054,560.366 490.554,552.366 
			458.554,547.295 420.554,554.45 383.554,568.866 354.554,596.974 368.054,641.822 400.458,670.075 418.275,722.601 		"/>
		
			<rect id="constraint_1_" x="289.054" y="697.896" opacity="0.2" fill="#39B54A" enable-background="new    " width="167.5" height="38.291"/>
	</g>
	<g id="flora-weed">
		<polyline fill="none" stroke="#42210B" stroke-width="6.1318" stroke-linecap="square" stroke-miterlimit="10" points="
			1160.87,714.848 1154.817,696.785 1152.932,687.541 1152.046,677.717 1152.146,647.44 1150.604,637.718 		"/>
		<polyline fill="none" stroke="#42210B" stroke-width="5.8204" stroke-linecap="square" stroke-miterlimit="10" points="
			1166.733,713.388 1160.782,692.2 1159.039,681.505 1158.191,670.195 1158.819,635.225 1157.52,623.86 		"/>
		<polyline fill="none" stroke="#42210B" stroke-width="5.4452" stroke-linecap="square" stroke-miterlimit="10" points="
			1164.42,714.94 1151.9,682.359 1135.657,625.954 		"/>
		<polyline fill="none" stroke="#42210B" stroke-width="3.9969" stroke-linecap="square" stroke-miterlimit="10" points="
			1166.604,709.312 1164.842,701.827 1163.823,694.392 1163.604,686.631 1163.991,678.395 1165.032,669.953 1166.54,661.585 
			1167.349,653.298 1167.02,645.059 		"/>
		<polyline fill="none" stroke="#42210B" stroke-width="2.7438" stroke-linecap="square" stroke-miterlimit="10" points="
			1169.659,713.334 1169.1,708.741 1169.198,704.208 1170.232,699.407 1171.967,694.212 1174.414,688.706 1177.579,683.104 
			1180.196,677.557 1181.472,672.236 		"/>
		<polyline fill="none" stroke="#42210B" stroke-width="8.9762" stroke-linecap="square" stroke-miterlimit="10" points="
			1163.099,720.646 1158.04,711.669 1144.366,694.655 1122.023,648.377 		"/>
		
			<rect id="constraint_2_" x="1144.534" y="691.126" transform="matrix(-0.9475 0.3199 -0.3199 -0.9475 2503.541 1010.0431)" opacity="0.4" fill="#006837" enable-background="new    " width="48.568" height="39.011"/>
	</g>
	<g id="rope_1_">
		
			<polyline fill="none" stroke="#603813" stroke-width="3" stroke-linecap="round" stroke-linejoin="round" stroke-miterlimit="10" points="
			458.554,547.295 467.258,564.247 474.764,579.278 482.268,594.306 489.771,609.335 497.276,624.362 504.782,639.392 
			512.286,654.421 519.791,669.45 		"/>
		
			<rect id="constraint-tree_1_" x="453.532" y="540.962" opacity="0.1" fill="#E9AB00" enable-background="new    " width="10.043" height="10.377"/>
	</g>
	<g>
		<rect id="metal-plank" x="659" y="460.834" fill="#262626" width="92.167" height="6.333"/>
		<g>
			
				<line id="constraint-plank-wire_1_" fill="none" stroke="#2A2300" stroke-width="1.5298" stroke-miterlimit="10" x1="746.12" y1="464.583" x2="767.396" y2="307.5"/>
			
				<circle id="balloon_1_" fill="#F2EEE2" stroke="#E5E4DF" stroke-width="1.9964" stroke-miterlimit="10" cx="767.396" cy="307.5" r="31.276"/>
		</g>
		<g>
			
				<circle id="balloon" fill="#F2EEE2" stroke="#E5E4DF" stroke-width="1.9355" stroke-miterlimit="10" cx="659" cy="323.412" r="30.319"/>
			
				<line id="constraint-plank-wire" fill="none" stroke="#2A2300" stroke-width="1.384" stroke-miterlimit="10" x1="662.806" y1="464" x2="659" y2="323.412"/>
		</g>
	</g>
	<g id="rubber_3_">
		<rect id="constraint_4_" x="-4" y="334.345" fill="#FF5815" width="12.654" height="35.531"/>
		<polygon id="rubber_1_" fill="#2A1F00" points="269.049,337.266 239.36,337.266 209.67,337.266 179.98,337.266 150.29,337.266 
			120.6,337.266 120.6,337.264 90.91,337.264 61.22,337.264 31.53,337.264 1.841,337.264 1.841,366.956 31.53,366.956 
			61.22,366.956 90.91,366.956 120.6,366.956 120.6,366.956 150.29,366.956 179.98,366.956 209.67,366.956 239.36,366.956 
			269.049,366.956 		"/>
	</g>
	<rect id="jelly" x="1018" y="733.5" opacity="0.5" fill="#43BF00" enable-background="new    " width="100.47" height="55.914"/>
</g>
<g id="foreground">
	<polygon id="static-toto" fill="#66301D" points="1119,733.5 1119,789 1018,789 1018,733.5 1019,733.5 847,707 689,705 485,733.5 
		379,715 299,709 193,733.5 75,719 0,667 0,800 1200,800 1200,681 	"/>
	<g>
		<g>
			<polyline fill="none" stroke="#2C1B11" stroke-width="9.791" stroke-linecap="round" stroke-miterlimit="10" points="12.492,847 
				67.319,521.412 156.119,535.479 148.87,819.165 			"/>
			
				<line fill="none" stroke="#2C1B11" stroke-width="9.791" stroke-linecap="round" stroke-miterlimit="10" x1="59.599" y1="571.577" x2="153.436" y2="584.348"/>
			
				<line fill="none" stroke="#2C1B11" stroke-width="9.791" stroke-linecap="round" stroke-miterlimit="10" x1="50.811" y1="628.68" x2="153.436" y2="640.456"/>
			
				<line fill="none" stroke="#2C1B11" stroke-width="9.791" stroke-linecap="round" stroke-miterlimit="10" x1="43.865" y1="673.811" x2="151.94" y2="698.985"/>
			
				<line fill="none" stroke="#2C1B11" stroke-width="9.791" stroke-linecap="round" stroke-miterlimit="10" x1="34.909" y1="732.002" x2="150.518" y2="754.665"/>
			
				<line fill="none" stroke="#2C1B11" stroke-width="9.791" stroke-linecap="round" stroke-miterlimit="10" x1="67.319" y1="518.48" x2="151.94" y2="521.412"/>
			
				<line fill="none" stroke="#2C1B11" stroke-width="9.791" stroke-linecap="round" stroke-miterlimit="10" x1="151.94" y1="521.412" x2="156.119" y2="535.479"/>
			
				<line fill="none" stroke="#2C1B11" stroke-width="6.1838" stroke-linecap="round" stroke-miterlimit="10" x1="161.603" y1="528.445" x2="177.912" y2="811"/>
			
				<line fill="none" stroke="#2C1B11" stroke-width="6.1838" stroke-linecap="round" stroke-miterlimit="10" x1="67.319" y1="521.412" x2="156.119" y2="581.196"/>
			
				<line fill="none" stroke="#2C1B11" stroke-width="6.1838" stroke-linecap="round" stroke-miterlimit="10" x1="59.599" y1="571.577" x2="156.119" y2="640.456"/>
			
				<line fill="none" stroke="#2C1B11" stroke-width="6.1838" stroke-linecap="round" stroke-miterlimit="10" x1="50.811" y1="634.567" x2="151.94" y2="698.985"/>
			
				<line fill="none" stroke="#2C1B11" stroke-width="6.1838" stroke-linecap="round" stroke-miterlimit="10" x1="43.865" y1="673.811" x2="151.94" y2="754.047"/>
			
				<line fill="none" stroke="#2C1B11" stroke-width="6.1838" stroke-linecap="round" stroke-miterlimit="10" x1="34.475" y1="734.821" x2="148.87" y2="819.165"/>
			
				<line fill="none" stroke="#2C1B11" stroke-width="3.0919" stroke-linecap="round" stroke-miterlimit="10" x1="44.633" y1="668.823" x2="136.984" y2="640.456"/>
			
				<line fill="none" stroke="#2C1B11" stroke-width="3.0919" stroke-linecap="round" stroke-miterlimit="10" x1="51.374" y1="625.017" x2="143.169" y2="584.713"/>
			
				<line fill="none" stroke="#2C1B11" stroke-width="3.0919" stroke-linecap="round" stroke-miterlimit="10" x1="59.599" y1="571.577" x2="150.518" y2="534.592"/>
			
				<line fill="none" stroke="#2C1B11" stroke-width="3.0919" stroke-linecap="round" stroke-miterlimit="10" x1="37.033" y1="732.419" x2="148.87" y2="705.456"/>
			
				<line fill="none" stroke="#2C1B11" stroke-width="3.0919" stroke-linecap="round" stroke-miterlimit="10" x1="18.389" y1="797.479" x2="150.518" y2="754.665"/>
			
				<line fill="none" stroke="#2C1B11" stroke-width="6.1838" stroke-linecap="round" stroke-miterlimit="10" x1="69.425" y1="520.457" x2="59.599" y2="823.308"/>
			
				<line fill="none" stroke="#2C1B11" stroke-width="6.1838" stroke-linecap="round" stroke-miterlimit="10" x1="156.119" y1="640.456" x2="167.896" y2="637.465"/>
			
				<line fill="none" stroke="#2C1B11" stroke-width="6.1838" stroke-linecap="round" stroke-miterlimit="10" x1="151.94" y1="698.985" x2="171.163" y2="694.072"/>
			
				<line fill="none" stroke="#2C1B11" stroke-width="6.1838" stroke-linecap="round" stroke-miterlimit="10" x1="150.518" y1="754.665" x2="174.07" y2="744.434"/>
			
				<line fill="none" stroke="#2C1B11" stroke-width="6.1838" stroke-linecap="round" stroke-miterlimit="10" x1="151.94" y1="521.412" x2="161.603" y2="528.445"/>
			
				<line fill="none" stroke="#2C1B11" stroke-width="6.1838" stroke-linecap="round" stroke-miterlimit="10" x1="156.119" y1="654.639" x2="169.757" y2="673.811"/>
			
				<line fill="none" stroke="#2C1B11" stroke-width="6.1838" stroke-linecap="round" stroke-miterlimit="10" x1="156.119" y1="595.607" x2="166.081" y2="606.017"/>
			
				<line fill="none" stroke="#2C1B11" stroke-width="6.1838" stroke-linecap="round" stroke-miterlimit="10" x1="153.436" y1="776.994" x2="176.995" y2="795.108"/>
		</g>
		<polygon fill="#2C1B11" points="139.697,523.151 156.543,453.34 146.43,521.788 		"/>
		<polygon fill="#2C1B11" points="171.163,692.438 223.99,718.474 171.802,701.217 		"/>
		<polygon fill="#2C1B11" points="169.757,664.757 193.196,668.795 171.1,668.722 		"/>
		<polygon fill="#2C1B11" points="132.785,522.114 138.939,479.797 137.616,519.141 		"/>
		<polygon fill="#2C1B11" points="68.672,524.928 66.11,481.995 72.739,520.43 		"/>
		<polygon fill="#2C1B11" points="81.509,522.14 92.825,493.863 86.237,516.912 		"/>
	</g>
	<rect id="static_3_" x="1200" width="137.395" height="800"/>
	<rect id="static_4_" x="-137.394" y="1.261" width="137.394" height="798.739"/>
	<rect id="static_5_" x="-137.395" y="-137.394" width="1474.788" height="137.394"/>
</g>
</svg>
