<?xml version="1.0" encoding="utf-8"?>
<!-- Generator: Adobe Illustrator 16.0.0, SVG Export Plug-In . SVG Version: 6.00 Build 0)  -->
<!DOCTYPE svg PUBLIC "-//W3C//DTD SVG 1.1//EN" "http://www.w3.org/Graphics/SVG/1.1/DTD/svg11.dtd">
<svg version="1.1" id="Layer_1" xmlns="http://www.w3.org/2000/svg" xmlns:xlink="http://www.w3.org/1999/xlink" x="0px" y="0px"
	 width="800px" height="800px" viewBox="0 0 800 800" enable-background="new 0 0 800 800" xml:space="preserve">
<g id="sponge">
	<g id="decoration">
		<polygon fill="#FFFFFF" stroke="#000000" stroke-miterlimit="10" points="379.537,540.385 312.871,487.82 317.999,460.897 
			301.332,400 334.666,439.103 267.999,309.616 323.768,366.026 309.024,267.308 364.153,298.077 323.768,146.795 393.64,241.667 
			447.486,73.718 469.281,218.59 514.152,137.821 514.152,244.231 594.922,205.77 550.05,307.052 633.384,260.897 547.486,400 
			652.614,375 584.666,455.77 646.204,460.897 460.307,548.077 		"/>
	</g>
	<polygon opacity="0" fill="#FFFFFF" stroke="#000000" stroke-miterlimit="10" points="356.46,548.077 294.922,290.385 
		344.922,107.052 646.204,146.795 659.024,375 576.974,540.385 	"/>
	
		<rect id="constraint" x="280.819" y="504.487" fill="#FFFFFF" stroke="#000000" stroke-miterlimit="10" width="342.308" height="62.82"/>
</g>
</svg>
