<?xml version="1.0" encoding="utf-8"?>
<!-- Generator: Adobe Illustrator 16.0.0, SVG Export Plug-In . SVG Version: 6.00 Build 0)  -->
<!DOCTYPE svg PUBLIC "-//W3C//DTD SVG 1.1//EN" "http://www.w3.org/Graphics/SVG/1.1/DTD/svg11.dtd">
<svg version="1.1" id="Layer_1" xmlns="http://www.w3.org/2000/svg" xmlns:xlink="http://www.w3.org/1999/xlink" x="0px" y="0px"
	 width="2000px" height="1320px" viewBox="0 0 2000 1320" enable-background="new 0 0 2000 1320" xml:space="preserve">
<g id="back">
	
		<radialGradient id="SVGID_1_" cx="152.6016" cy="-243.7744" r="1817.1667" fx="316.1393" fy="-512.4691" gradientTransform="matrix(0.9714 0 0 0.9489 1306.8335 546.0425)" gradientUnits="userSpaceOnUse">
		<stop  offset="0" style="stop-color:#E9F2BF"/>
		<stop  offset="1" style="stop-color:#415C5C"/>
	</radialGradient>
	<rect x="-3.427" y="-5.128" fill="url(#SVGID_1_)" width="2007.069" height="1338.045"/>
	<polygon id="ghost-mountains" opacity="0.5" fill="#6D5A44" enable-background="new    " points="-3.427,905.544 115.323,886.411 
		232.405,802.941 453.183,677.073 528.45,622.218 724.136,765.921 1061.99,802.715 1201.629,876.424 1322.908,844.015 
		1439.994,706.221 1543.69,637.322 1640.698,555.181 1911.653,780.418 1968.519,838.713 2003.643,846.541 2003.643,1332.917 
		-3.427,1332.917 	"/>
	<polygon fill="#706550" points="-3.427,1046.908 239.092,933.172 483.29,879.658 734.17,916.451 1038.578,976.661 
		1329.601,916.451 1523.617,822.783 1854.785,663.892 1955.138,785.993 2003.643,817.098 2003.643,1332.917 -3.427,1332.917 	"/>
	<polygon fill="#6B5340" points="-3.427,1003.363 175.537,1051.648 356.174,1114.422 500.013,1148.225 757.587,1087.87 
		1000.107,1061.311 1145.622,1116.838 1383.128,1148.225 1593.868,1116.838 1684.186,1041.993 1858.129,969.562 1951.795,969.562 
		2003.643,916.451 2003.643,1332.917 -3.427,1332.917 	"/>
	<path opacity="0.5" fill="#FFFFFF" enable-background="new    " d="M1717.758-102.135c67.885,0,122.924,55.036,122.924,122.929
		c0,67.894-55.039,122.924-122.924,122.924c-67.896,0-122.932-55.03-122.932-122.924
		C1594.826-47.099,1649.861-102.135,1717.758-102.135z"/>
	<g id="static_2_">
		<polygon fill="#381F07" points="1098.789,784.877 1273.714,806.639 1273.714,827.824 1098.789,799.928 		"/>
		<g>
			<polygon fill="#381F07" points="1147.295,797.418 1183.256,797.418 1273.714,918.7 1273.714,939.05 			"/>
		</g>
		<g>
			<polygon id="static_1_" fill="#260706" points="1299.446,799.557 1566.232,854.775 1611.368,874.098 1605.139,892.768 
				1560.437,873.684 1299.446,820.476 			"/>
			
				<line id="static-concon" fill="none" stroke="#0A0A0A" stroke-width="11.4826" stroke-miterlimit="10" x1="1273.714" y1="1089.793" x2="1509.758" y2="846.907"/>
		</g>
		<polygon fill="#381F07" points="1273.714,753.108 1210.501,1163.963 1186.252,1223.901 1261.167,1223.901 1299.446,761.478 		"/>
	</g>
</g>
<g id="moving">
	<g>
		<circle id="stone" fill="#262626" cx="995.19" cy="875.13" r="35.125"/>
		
			<line id="constraint-world-wire" fill="none" stroke="#262626" stroke-width="6.6902" stroke-miterlimit="10" x1="995.19" y1="875.128" x2="1118.113" y2="795.523"/>
	</g>
	<g>
		<polygon id="metal-big" fill="#262626" points="1371.683,806.207 1356.734,784.061 1356.734,743.464 1375.457,721.318 
			1419.166,721.318 1448.275,739.774 1450.981,772.991 1437.625,798.401 1403.858,806.207 		"/>
		<polygon id="metal_1_" fill="#262626" points="1459.353,818.609 1454.985,812.14 1454.985,800.272 1460.461,793.802 
			1473.234,793.802 1481.74,799.193 1482.535,808.904 1478.626,816.329 1468.762,818.609 		"/>
		<polygon id="metal_2_" fill="#262626" points="1314.153,788.57 1309.791,782.101 1309.791,770.235 1315.262,763.767 
			1328.034,763.767 1336.54,769.154 1337.333,778.864 1333.432,786.29 1323.559,788.57 		"/>
	</g>
	<g id="tree-tree">
		<polygon fill="#42210B" points="589.654,1189.528 591.255,1155.295 568.029,1108.108 528.536,1058.509 414.193,974.767 
			400.049,943.516 391.134,938.397 328.665,953.151 377.153,930.382 362.117,922.226 405.286,927.855 407.276,891.292 
			417.313,859.358 414.802,892.775 421.995,935.7 452.307,966.406 492.577,987.31 550.28,1022.433 547.771,984.803 490.906,910.255 
			490.906,840.006 497.595,851.832 517.009,823.17 499.268,864.34 501.956,892.775 517.452,910.251 573.696,875.128 
			560.487,892.775 618.853,886.118 547.399,910.255 533.688,928.566 549.442,946.33 570.35,963.833 600.458,941.333 688.266,906.19 
			735.934,864.34 743.065,840.006 745.133,851.832 758.515,840.006 740.114,872.156 710.009,902.01 764.228,896.453 
			802.837,905.351 837.123,892.775 813.707,910.255 837.958,932.115 817.051,918.734 763.53,910.255 699.974,922.226 
			638.089,946.33 589.583,993.346 612.165,1068.354 666.361,1115.612 696.163,1203.463 		"/>
		
			<rect id="constraint_1_" x="480.033" y="1162.144" opacity="0.2" fill="#39B54A" enable-background="new    " width="280.152" height="64.046"/>
	</g>
	<g id="flora-weed">
		<polyline fill="none" stroke="#42210B" stroke-width="10.2558" stroke-linecap="square" stroke-miterlimit="10" points="
			1938.196,1190.496 1928.073,1160.285 1924.919,1144.824 1923.438,1128.391 1923.606,1077.748 1921.025,1061.49 		"/>
		<polyline fill="none" stroke="#42210B" stroke-width="9.7349" stroke-linecap="square" stroke-miterlimit="10" points="
			1948.003,1188.052 1938.049,1152.616 1935.132,1134.723 1933.72,1115.808 1934.77,1057.321 1932.594,1038.311 		"/>
		<polyline fill="none" stroke="#42210B" stroke-width="9.1074" stroke-linecap="square" stroke-miterlimit="10" points="
			1944.137,1190.648 1923.19,1136.16 1896.029,1041.813 		"/>
		<polyline fill="none" stroke="#42210B" stroke-width="6.685" stroke-linecap="square" stroke-miterlimit="10" points="
			1947.784,1181.231 1944.842,1168.72 1943.135,1156.283 1942.764,1143.302 1943.415,1129.523 1945.158,1115.41 1947.68,1101.412 
			1949.029,1087.549 1948.482,1073.77 		"/>
		<polyline fill="none" stroke="#42210B" stroke-width="4.5891" stroke-linecap="square" stroke-miterlimit="10" points="
			1952.897,1187.967 1951.965,1180.283 1952.125,1172.702 1953.856,1164.673 1956.757,1155.982 1960.848,1146.771 
			1966.145,1137.401 1970.522,1128.125 1972.659,1119.223 		"/>
		<polyline fill="none" stroke="#42210B" stroke-width="15.0132" stroke-linecap="square" stroke-miterlimit="10" points="
			1941.929,1200.193 1933.462,1185.183 1910.593,1156.724 1873.225,1079.318 		"/>
		
			<rect id="constraint_2_" x="1910.869" y="1150.836" transform="matrix(-0.9475 0.3199 -0.3199 -0.9475 4179.0054 1680.5112)" opacity="0.4" fill="#006837" enable-background="new    " width="81.239" height="65.25"/>
	</g>
	<g id="rope_1_">
		
			<polyline fill="none" stroke="#603813" stroke-width="5.0177" stroke-linecap="round" stroke-linejoin="round" stroke-miterlimit="10" points="
			763.53,910.255 778.089,938.607 790.642,963.747 803.193,988.88 815.745,1014.02 828.297,1039.154 840.852,1064.291 
			853.404,1089.431 865.954,1114.562 		"/>
		
			<rect id="constraint-tree_1_" x="755.133" y="899.658" opacity="0.1" fill="#E9AB00" enable-background="new    " width="16.796" height="17.359"/>
	</g>
	<g>
		<rect id="metal-plank" x="1098.789" y="765.641" fill="#262626" width="154.15" height="10.592"/>
		<g>
			
				<line id="constraint-plank-wire_1_" fill="none" stroke="#2A2300" stroke-width="2.5587" stroke-miterlimit="10" x1="1244.505" y1="771.91" x2="1280.089" y2="509.183"/>
			
				<circle id="balloon_1_" fill="#F2EEE2" stroke="#E5E4DF" stroke-width="3.3391" stroke-miterlimit="10" cx="1280.089" cy="509.179" r="52.31"/>
		</g>
		<g>
			
				<circle id="balloon" fill="#F2EEE2" stroke="#E5E4DF" stroke-width="3.2372" stroke-miterlimit="10" cx="1098.789" cy="535.793" r="50.711"/>
			
				<line id="constraint-plank-wire" fill="none" stroke="#2A2300" stroke-width="2.3148" stroke-miterlimit="10" x1="1105.154" y1="770.935" x2="1098.789" y2="535.797"/>
		</g>
	</g>
	<g id="rubber_3_">
		<rect id="constraint_4_" x="-10.118" y="554.08" fill="#FF5815" width="21.164" height="59.425"/>
		<polygon id="rubber_1_" fill="#2A1F00" points="446.572,558.97 396.917,558.97 347.258,558.97 297.599,558.97 247.942,558.97 
			198.283,558.97 198.283,558.966 148.627,558.966 98.968,558.966 49.307,558.966 -0.348,558.966 -0.348,608.622 49.307,608.622 
			98.968,608.622 148.627,608.622 198.283,608.622 198.283,608.622 247.942,608.622 297.599,608.622 347.258,608.622 
			396.917,608.622 446.572,608.622 		"/>
	</g>
	
		<rect id="jelly" x="1699.238" y="1221.691" opacity="0.5" fill="#43BF00" enable-background="new    " width="168.04" height="93.521"/>
</g>
<g id="foreground">
	<polygon id="static-toto" fill="#66301D" points="1868.166,1221.691 1868.166,1314.519 1699.238,1314.519 1699.238,1221.691 
		1700.906,1221.691 1413.233,1177.37 1148.965,1174.023 807.764,1221.691 630.473,1190.75 496.667,1180.715 319.376,1221.691 
		122.014,1197.441 -3.427,1110.466 -3.427,1332.917 2003.643,1332.917 2003.643,1133.885 	"/>
	<g>
		<g>
			<polyline fill="none" stroke="#2C1B11" stroke-width="16.3759" stroke-linecap="round" stroke-miterlimit="10" points="
				17.467,1411.529 109.169,866.96 257.692,890.487 245.566,1364.971 			"/>
			
				<line fill="none" stroke="#2C1B11" stroke-width="16.3759" stroke-linecap="round" stroke-miterlimit="10" x1="96.254" y1="950.864" x2="253.201" y2="972.225"/>
			
				<line fill="none" stroke="#2C1B11" stroke-width="16.3759" stroke-linecap="round" stroke-miterlimit="10" x1="81.557" y1="1046.377" x2="253.201" y2="1066.071"/>
			
				<line fill="none" stroke="#2C1B11" stroke-width="16.3759" stroke-linecap="round" stroke-miterlimit="10" x1="69.941" y1="1121.854" x2="250.701" y2="1163.963"/>
			
				<line fill="none" stroke="#2C1B11" stroke-width="16.3759" stroke-linecap="round" stroke-miterlimit="10" x1="54.96" y1="1219.188" x2="248.322" y2="1257.092"/>
			
				<line fill="none" stroke="#2C1B11" stroke-width="16.3759" stroke-linecap="round" stroke-miterlimit="10" x1="109.169" y1="862.061" x2="250.701" y2="866.96"/>
			
				<line fill="none" stroke="#2C1B11" stroke-width="16.3759" stroke-linecap="round" stroke-miterlimit="10" x1="250.701" y1="866.96" x2="257.692" y2="890.487"/>
			
				<line fill="none" stroke="#2C1B11" stroke-width="10.3428" stroke-linecap="round" stroke-miterlimit="10" x1="266.863" y1="878.725" x2="294.141" y2="1351.314"/>
			
				<line fill="none" stroke="#2C1B11" stroke-width="10.3428" stroke-linecap="round" stroke-miterlimit="10" x1="109.169" y1="866.96" x2="257.692" y2="966.953"/>
			
				<line fill="none" stroke="#2C1B11" stroke-width="10.3428" stroke-linecap="round" stroke-miterlimit="10" x1="96.254" y1="950.864" x2="257.692" y2="1066.071"/>
			
				<line fill="none" stroke="#2C1B11" stroke-width="10.3428" stroke-linecap="round" stroke-miterlimit="10" x1="81.557" y1="1056.221" x2="250.701" y2="1163.963"/>
			
				<line fill="none" stroke="#2C1B11" stroke-width="10.3428" stroke-linecap="round" stroke-miterlimit="10" x1="69.941" y1="1121.854" x2="250.701" y2="1256.061"/>
			
				<line fill="none" stroke="#2C1B11" stroke-width="10.3428" stroke-linecap="round" stroke-miterlimit="10" x1="54.233" y1="1223.901" x2="245.566" y2="1364.971"/>
			
				<line fill="none" stroke="#2C1B11" stroke-width="5.1714" stroke-linecap="round" stroke-miterlimit="10" x1="71.224" y1="1113.52" x2="225.685" y2="1066.071"/>
			
				<line fill="none" stroke="#2C1B11" stroke-width="5.1714" stroke-linecap="round" stroke-miterlimit="10" x1="82.498" y1="1040.248" x2="236.03" y2="972.834"/>
			
				<line fill="none" stroke="#2C1B11" stroke-width="5.1714" stroke-linecap="round" stroke-miterlimit="10" x1="96.254" y1="950.864" x2="248.322" y2="889.008"/>
			
				<line fill="none" stroke="#2C1B11" stroke-width="5.1714" stroke-linecap="round" stroke-miterlimit="10" x1="58.512" y1="1219.884" x2="245.566" y2="1174.789"/>
			
				<line fill="none" stroke="#2C1B11" stroke-width="5.1714" stroke-linecap="round" stroke-miterlimit="10" x1="27.33" y1="1328.699" x2="248.322" y2="1257.092"/>
			
				<line fill="none" stroke="#2C1B11" stroke-width="10.3428" stroke-linecap="round" stroke-miterlimit="10" x1="112.688" y1="865.362" x2="96.254" y2="1371.896"/>
			
				<line fill="none" stroke="#2C1B11" stroke-width="10.3428" stroke-linecap="round" stroke-miterlimit="10" x1="257.692" y1="1066.071" x2="277.389" y2="1061.064"/>
			
				<line fill="none" stroke="#2C1B11" stroke-width="10.3428" stroke-linecap="round" stroke-miterlimit="10" x1="250.701" y1="1163.963" x2="282.853" y2="1155.748"/>
			
				<line fill="none" stroke="#2C1B11" stroke-width="10.3428" stroke-linecap="round" stroke-miterlimit="10" x1="248.322" y1="1257.092" x2="287.717" y2="1239.979"/>
			
				<line fill="none" stroke="#2C1B11" stroke-width="10.3428" stroke-linecap="round" stroke-miterlimit="10" x1="250.701" y1="866.96" x2="266.863" y2="878.725"/>
			
				<line fill="none" stroke="#2C1B11" stroke-width="10.3428" stroke-linecap="round" stroke-miterlimit="10" x1="257.692" y1="1089.793" x2="280.502" y2="1121.854"/>
			
				<line fill="none" stroke="#2C1B11" stroke-width="10.3428" stroke-linecap="round" stroke-miterlimit="10" x1="257.692" y1="991.059" x2="274.355" y2="1008.467"/>
			
				<line fill="none" stroke="#2C1B11" stroke-width="10.3428" stroke-linecap="round" stroke-miterlimit="10" x1="253.201" y1="1294.438" x2="292.607" y2="1324.733"/>
		</g>
		<polygon fill="#2C1B11" points="230.223,869.869 258.401,753.108 241.486,867.594 		"/>
		<polygon fill="#2C1B11" points="282.853,1153.016 371.21,1196.56 283.922,1167.699 		"/>
		<polygon fill="#2C1B11" points="280.502,1106.714 319.706,1113.468 282.747,1113.349 		"/>
		<polygon fill="#2C1B11" points="218.663,868.136 228.956,797.358 226.745,863.166 		"/>
		<polygon fill="#2C1B11" points="111.43,872.84 107.146,801.032 118.231,865.316 		"/>
		<polygon fill="#2C1B11" points="132.898,868.183 151.829,820.886 140.808,859.438 		"/>
	</g>
	<rect id="static_3_" x="2003.643" y="-5.128" width="229.803" height="1338.045"/>
	<rect id="static_4_" x="-233.227" y="-3.021" width="229.8" height="1335.938"/>
	<rect id="static_5_" x="-233.229" y="-234.931" width="2466.67" height="229.8"/>
</g>
<polygon id="wood" fill="#352F2D" points="934.946,1023.746 936.019,1018.514 936.322,1017.722 939.068,1014.142 939.711,1013.633 
	942.367,1012.891 942.262,1013.633 948.247,1013.633 948.839,1014.716 953.872,1020.438 954.273,1021.521 953.651,1022.416 
	953.39,1026.373 953.699,1027.537 953.872,1029.73 951.534,1032.016 950.813,1032.52 950.212,1037.68 952.306,1040.387 
	961.822,1046.131 966.472,1049.279 966.905,1050.135 967.965,1067.653 968.678,1076.434 966.783,1082.332 960.034,1084.517 
	957.259,1086.73 957.518,1094.342 957.972,1097.948 958.972,1107.834 959.504,1114.538 959.003,1114.658 955.976,1117.185 
	955.194,1124.935 954.653,1141.564 954.399,1148.793 953.872,1161.586 952.809,1173.502 950.412,1186.004 950.073,1190.196 
	947.993,1192.294 942.634,1192.294 940.448,1188.761 941.395,1187.076 940.489,1186.676 938.481,1184.111 939.516,1173.554 
	940.86,1165.022 942.367,1154.486 942.446,1142.175 941.923,1136.022 939.644,1123.502 939.054,1122.339 937.58,1127.822 
	936.019,1137.322 934.798,1144.724 934.229,1150.607 932.699,1164.219 931.747,1170.396 932.14,1177.623 932.949,1184.864 
	933.132,1187.576 933.33,1192.432 932.271,1192.529 926.519,1192.521 925.482,1192.294 921.582,1191.376 913.606,1192.251 
	908.396,1190.165 908.229,1187.389 909.581,1186.676 916.45,1183.197 920.529,1174.305 919.938,1170.818 919.728,1164.624 
	919.921,1163.649 920.217,1152.71 921.165,1145.135 921.973,1138.538 922.453,1135.059 922.474,1125.846 922.217,1119.25 
	921.964,1116.232 919.478,1113.567 922.414,1105.978 923.224,1100.557 923.505,1094.992 924.253,1083.782 922.395,1081.758 
	917.834,1075.944 921.165,1061.097 923.202,1049.92 927.104,1045.47 934.868,1042.051 936.702,1040.286 937.208,1039.595 
	938.544,1035.887 938.238,1033.663 936.952,1031.635 935.212,1027.244 935.464,1024.999 "/>
</svg>
