<?xml version="1.0" encoding="utf-8"?>
<!-- Generator: Adobe Illustrator 16.0.0, SVG Export Plug-In . SVG Version: 6.00 Build 0)  -->
<!DOCTYPE svg PUBLIC "-//W3C//DTD SVG 1.1//EN" "http://www.w3.org/Graphics/SVG/1.1/DTD/svg11.dtd">
<svg version="1.1" id="Layer_1" xmlns="http://www.w3.org/2000/svg" xmlns:xlink="http://www.w3.org/1999/xlink" x="0px" y="0px"
	 width="1200px" height="800px" viewBox="0 0 1200 800" enable-background="new 0 0 1200 800" xml:space="preserve">
<rect fill="#C1272D" stroke="#FFFFFF" stroke-miterlimit="10" width="1200" height="800"/>
<g id="tree">
	<polygon fill="#F7931E" stroke="#FFFFFF" stroke-miterlimit="10" points="425.077,643.462 452.77,643.462 480.461,643.462 
		508.153,643.462 535.846,643.462 538.923,624.615 542,605.77 545.077,586.924 548.154,568.077 562.77,559.23 577.385,550.385 
		592,541.539 606.615,532.692 623.154,512.692 639.692,492.692 656.23,472.692 672.77,452.692 677.385,433.461 682,414.23 
		686.615,395 691.23,375.769 730.461,334.23 769.692,292.692 808.924,251.153 848.154,209.615 885.847,193.077 923.539,176.538 
		961.23,160 998.923,143.461 954.308,148.846 909.692,154.23 865.077,159.615 820.462,165 805.077,175 789.692,185 774.308,195 
		758.923,205 741.23,234.23 723.539,263.461 705.847,292.692 688.154,321.923 673.539,332.308 658.924,342.692 644.309,353.076 
		629.692,363.461 622.27,379.615 614.846,395.769 607.423,411.923 600,428.077 584.73,441.924 569.461,455.77 554.192,469.615 
		538.923,483.462 519.308,460.962 499.692,438.462 480.076,415.962 460.461,393.462 484.307,367.116 508.153,340.77 532,314.423 
		555.846,288.077 577.384,256.539 598.923,225 620.461,193.461 642,161.923 603.923,141.154 565.846,120.385 527.77,99.615 
		489.692,78.846 430.077,78.846 370.462,78.846 310.847,78.846 251.231,78.846 296.23,90.385 341.23,101.923 386.23,113.461 
		431.23,125 457.769,142.692 484.308,160.385 510.846,178.077 537.385,195.77 517.77,213.077 498.154,230.385 478.538,247.692 
		458.923,265 435.461,286.539 412,308.077 388.539,329.616 365.077,351.154 368.923,380 372.769,408.847 376.615,437.693 
		380.461,466.539 350.076,446.539 319.692,426.539 289.308,406.539 258.923,386.539 257,354.616 255.077,322.692 253.154,290.77 
		251.231,258.846 210.846,235.77 170.461,212.692 130.077,189.616 89.692,166.539 114.308,191.154 138.923,215.77 163.538,240.385 
		188.154,265 192,301.923 195.847,338.846 199.693,375.77 203.539,412.692 219.693,440 235.847,467.309 252,494.616 
		268.154,521.924 296.23,525.77 324.308,529.615 352.384,533.461 380.461,537.308 391.615,563.846 402.769,590.385 413.923,616.924 
			"/>
	
		<rect id="constraint" x="352.769" y="611.154" fill="#C1272D" stroke="#FFFFFF" stroke-miterlimit="10" width="269.231" height="86.152"/>
</g>
<rect id="static_2_" x="-33" y="759" stroke="#FFFFFF" stroke-width="1.0183" stroke-miterlimit="10" width="1233" height="41"/>
<rect id="static_1_" x="1159" stroke="#FFFFFF" stroke-width="1.0067" stroke-miterlimit="10" width="41" height="759"/>
<rect id="static" stroke="#FFFFFF" stroke-width="1.0121" stroke-miterlimit="10" width="29" height="759"/>
<circle id="hard" stroke="#FFFFFF" stroke-width="1.0067" stroke-miterlimit="10" cx="989" cy="661" r="46"/>
</svg>
