<?xml version="1.0" encoding="utf-8"?>
<!-- Generator: Adobe Illustrator 16.0.0, SVG Export Plug-In . SVG Version: 6.00 Build 0)  -->
<!DOCTYPE svg PUBLIC "-//W3C//DTD SVG 1.1//EN" "http://www.w3.org/Graphics/SVG/1.1/DTD/svg11.dtd">
<svg version="1.1" id="Layer_1" xmlns="http://www.w3.org/2000/svg" xmlns:xlink="http://www.w3.org/1999/xlink" x="0px" y="0px"
	 width="1000px" height="500px" viewBox="0 0 1000 500" enable-background="new 0 0 1000 500" xml:space="preserve">
<g id="tree-tree">
	<polygon fill="#42210B" points="495.596,349.27 496.554,328.804 482.665,300.591 459.054,270.934 390.689,220.864 382.234,202.182 
		376.902,199.123 339.554,207.943 368.544,194.329 359.554,189.45 385.365,192.819 386.554,170.958 392.554,151.866 
		391.054,171.845 395.354,197.511 413.477,215.87 437.554,228.366 472.054,249.366 470.554,226.866 436.554,182.295 
		436.554,140.295 440.554,147.366 452.161,130.229 441.554,154.847 443.161,171.845 452.427,182.294 486.054,161.295 
		478.156,171.845 513.055,167.866 470.331,182.295 462.135,193.243 471.554,203.866 484.054,214.329 502.055,200.878 
		554.555,179.866 583.054,154.847 587.316,140.295 588.554,147.366 596.554,140.295 585.554,159.518 567.554,177.366 
		599.97,174.045 623.054,179.366 643.554,171.845 629.554,182.295 644.054,195.366 631.554,187.366 599.554,182.295 561.555,189.45 
		524.555,203.866 495.554,231.974 509.055,276.822 541.458,305.075 559.275,357.601 	"/>
	
		<rect id="constraint_1_" x="430.054" y="332.896" opacity="0.2" fill="#39B54A" enable-background="new    " width="167.5" height="38.291"/>
</g>
<g id="rope_1_">
	
		<polyline fill="none" stroke="#603813" stroke-width="3" stroke-linecap="round" stroke-linejoin="round" stroke-miterlimit="10" points="
		599.554,182.295 608.258,199.247 615.764,214.278 623.268,229.306 630.771,244.335 638.276,259.362 645.782,274.392 
		653.286,289.421 660.791,304.45 	"/>
	
		<rect id="constraint-tree_1_" x="594.532" y="175.962" opacity="0.1" fill="#E9AB00" enable-background="new    " width="10.043" height="10.377"/>
</g>
</svg>
