<?xml version="1.0" encoding="utf-8"?>
<!-- Generator: Adobe Illustrator 16.0.0, SVG Export Plug-In . SVG Version: 6.00 Build 0)  -->
<!DOCTYPE svg PUBLIC "-//W3C//DTD SVG 1.1//EN" "http://www.w3.org/Graphics/SVG/1.1/DTD/svg11.dtd">
<svg version="1.1" id="Layer_1" xmlns="http://www.w3.org/2000/svg" xmlns:xlink="http://www.w3.org/1999/xlink" x="0px" y="0px"
	 width="1000px" height="500px" viewBox="0 0 1000 500" enable-background="new 0 0 1000 500" xml:space="preserve">
<rect id="ghost_4_" fill="#246786" width="1000" height="500"/>
<path id="ghost_3_" fill="#20556E" d="M1000,193c0,95,0,190,0,285c-3.333,7.333-6.667,14.667-10,22c-330,0-660,0-990,0
	c0-99.41,0-198.705,0-298c7.178,3.433,14.298,6.997,21.566,10.229c2.594,1.153,5.583,2.237,8.328,2.099
	c16.713-0.846,31.595,3.72,44.74,14.072c3.138,2.471,6.714,4.452,9.576,7.195c6.205,5.946,12.113,12.206,18.056,18.418
	c1.193,1.248,2.005,2.858,3.22,4.637c9.426-7.904,19.752-12.334,31.149-15.144c13.165-3.242,25.573-9.5,39.516-9.719
	c1.239-0.02,2.458-0.968,3.695-1.462c12.279-4.908,25.271-6.837,37.698-2.802c16.341,5.305,32.029,12.628,47.975,19.139
	c1.211,0.495,2.373,1.289,3.338,2.183c9.055,8.36,19.688,14.692,29.137,22.422c5.937,4.854,11.087,5.532,17.603,3.912
	c1.777-0.443,3.513-1.248,5.307-1.394c9.062-0.726,18.133-1.341,27.208-1.871c3.963-0.231,7.981,0.153,11.908-0.312
	c20.036-2.361,37.393,3.082,52.579,16.521c8.141,7.203,17.144,13.433,26.17,20.422c6.368-9.697,14.434-16.76,23.699-22.543
	c1.212-0.756,2.038-2.175,2.951-3.357c10.228-13.258,23.607-21.227,40.045-24.332c3.525-0.666,7.059-1.901,10.273-3.502
	c17.581-8.747,36.02-10.673,53.518-2.047c15.36,7.572,29.231,18.172,43.752,27.443c0.413,0.266,0.783,0.639,1.087,1.025
	c10.386,13.334,20.827,26.621,31.062,40.063c1.774,2.336,2.507,5.439,4.009,8.021c1.407,2.416,3.016,4.779,4.917,6.81
	c0.641,0.686,3.009,0.854,3.646,0.257c4.688-4.41,9.209-9.01,13.639-13.686c2.282-2.41,3.877-5.621,6.462-7.568
	c8.083-6.086,16.396-11.881,24.795-17.527c10.235-6.887,21.688-9.987,33.986-10.229c2.473-0.049,5.118-0.053,7.373-0.902
	c10.178-3.854,20.622-5.104,31.427-4.303c1.861,0.141,4.121-0.27,5.652-1.26c7.97-5.157,16.591-8.411,25.904-10.084
	c2.236-0.402,4.333-1.619,6.477-2.512c5.671-2.358,11.195-5.181,17.042-6.976c4.07-1.252,4.967-3.312,4.062-6.938
	c-0.322-1.293-0.687-2.574-1.075-3.851c-14.096-46.107,22.642-88.574,70.436-81.58c2.729,0.4,6.058-0.135,8.507-1.399
	c27.882-14.385,59.823-7.768,79.802,16.589C994.374,188.802,997.384,190.739,1000,193z"/>
<path id="ghost_2_" fill="#1B464F" d="M1000,243.043c0,85.639,0,171.276,0,256.957c-333.333,0-666.667,0-1000,0
	c0-79.678,0-159.317,0-238.957c11.672,2.01,21.582,7.465,30.389,15.247c2.455,2.169,5.194,4.235,8.154,5.571
	c12.214,5.514,21.873,13.801,29.042,25.131c1.567,2.476,3.636,4.789,5.915,6.634c8.873,7.185,15.486,15.95,19.928,26.472
	c1.206,2.855,3.268,5.343,4.827,8.06c4.526,7.883,9.047,15.771,13.45,23.723c1.036,1.871,1.479,4.062,2.412,6
	c1.534,3.191,3.512,4.077,7.161,2.32c11.743-5.652,24.243-7.396,37.028-4.883c5.986,1.178,11.777,3.485,17.545,5.588
	c5.372,1.955,7.223,1.039,8.49-4.4c0.98-4.206,1.505-8.851,3.706-12.383c9.543-15.317,19.527-30.365,29.571-45.363
	c3.297-4.924,7.154-9.491,10.943-14.062c4.548-5.491,9.294-10.816,13.959-16.21c2.16-2.496,4.697-4.754,6.426-7.521
	c5.588-8.931,12.755-16.136,21.658-21.771c2.892-1.83,5.54-4.252,7.802-6.838c13.975-15.979,31.429-23.562,52.672-22.57
	c7.606,0.355,15.256-0.021,22.841,0.539c7.258,0.537,14.441,2.012,21.689,2.762c3.321,0.344,6.993,0.754,10.039-0.262
	c17.319-5.777,34.05-4.846,50.505,3.048c2.955,1.417,6.206,2.458,9.434,3.023c20.544,3.593,35.772,14.475,46.117,32.566
	c1.311,2.292,4.021,4.46,6.542,5.27c10.703,3.436,20.033,8.854,27.976,16.836c2.309,2.315,5.028,4.423,7.924,5.919
	c14.04,7.251,24.162,18.024,30.481,32.499c1.044,2.391,2.492,4.756,4.271,6.646c10.959,11.672,16.821,25.427,17.521,41.411
	c0.075,1.74,0.308,3.474,0.463,5.155c7.084,0,13.623-0.574,20.012,0.159c6.399,0.734,12.645,2.812,18.974,4.22
	c1.279,0.285,2.643,0.209,3.966,0.312c16.021,1.244,32.151,1.754,48.032,4.008c10.119,1.438,20.026,4.146,30.354,5.064
	c7.959,0.709,15.707,3.766,24.029,5.9c0.655-2.058,1.336-4.24,2.048-6.418c8.127-24.823,31.027-42.033,56.935-43.123
	c8.095-0.344,16.144-1.688,24.233-2.072c6.784-0.322,13.612-0.102,20.405,0.211c11.375,0.52,22.734,1.299,34.84,2.014
	c-0.438-2.284-0.686-4.02-1.107-5.711c-6.565-26.207-0.482-49.021,20.454-66.183c21.067-17.265,44.778-19.005,69.288-7.044
	c2.72,1.326,4.24,1.18,6.388-1.049c8.159-8.473,16.5-16.775,24.943-24.965C993.518,247.754,996.875,245.519,1000,243.043z"/>
<path id="ghost_1_" fill="#273639" d="M1000,125.055c0,124.959,0,249.917,0,374.938c-333.333,0-666.667,0-1000,0.007
	c0-49.312,0-98.628,0-147.945c5.964,1.491,11.893,3.163,17.917,4.354c1.643,0.324,3.929-0.318,5.311-1.342
	c7.732-5.725,15.417-11.526,22.838-17.646c4.999-4.12,9.919-4.995,16.166-2.906c12.962,4.334,25.764,2.188,37.867-3.306
	c4.575-2.077,8.389-5.463,13.338-1.305c2.77-8.858,2.77-8.858,5.68-9.57c0.289,3.534-0.089,7.231,1.057,10.374
	c0.959,2.631,3.536,4.806,5.795,6.707c0.427,0.359,3.134-1.191,4.11-2.406c14.709-18.326,33.769-26.356,57.127-24.688
	c2.927,0.209,5.996-0.151,8.868-0.817c13.731-3.186,27.078-2.299,40.235,2.852c3.343,1.311,7.014,2.146,10.593,2.415
	c9.478,0.722,18.252,3.428,26.649,7.808c3.04,1.585,6.413,2.837,9.778,3.446c25.495,4.61,45.174,23.362,50.839,48.479
	c0.44,1.952,2.193,5.207,3.198,5.155c4.32-0.222,8.833,3.878,13.072-1.857c16.904-22.866,46.993-31.147,73.322-20.56
	c2.542,1.021,5.134,3.207,6.546,5.549c10.979,18.197,33.279,23.012,50.654,10.707c2.435-1.724,4.961-3.318,7.334-4.9
	c4.51,3.11,13.701,4.705,19.817,3.75c14.253-2.228,28.521-4.334,42.769-6.617c1.888-0.304,4.161-0.861,5.396-2.14
	c7.921-8.174,14.74-17.394,18.716-27.963c1.705-4.535,4.286-6.284,7.663-8.597c4.11-2.816,8.722-5.813,11.188-9.896
	c3.034-5.021,11.392-8.79,17.029-5.51c0.367-0.463,0.871-0.938,1.181-1.512c3.864-7.214,9.65-9.916,17.799-8.354
	c3.188,0.61,6.728,0.417,9.909-0.287c4.143-0.915,8.021-2.962,12.146-4.016c2.396-0.612,6.771-1.122,7.272-0.146
	c1.818,3.526,4.882,3.081,7.618,3.699c8.189,1.854,15.354,4.53,21.432,11.391c15.596,17.597,44.036,12.862,54.207-8.492
	c1.541-3.234,3.729-4.548,6.803-5.816c8.055-3.322,15.909-7.135,24.752-11.164c-2.412-1.871-3.941-2.848-5.218-4.084
	c-12.605-12.227-25.534-24.335-19.721-44.702c0.137-0.469,0.085-0.994,0.104-1.493c0.333-8.695-1.727-16.925-7.915-22.992
	c-5.122-5.02-7.726-10.401-8.052-17.393c-0.146-3.082-2.377-6.332-1.808-9.125c1.155-5.643,3.319-11.138,5.624-16.452
	c0.787-1.816,3.242-2.909,4.938-4.332c0.299,0.286,0.599,0.572,0.896,0.858c0.24-0.431,0.569-0.835,0.708-1.296
	c5.107-16.913,15.314-29.709,30.681-38.487c2.097-1.197,3.83-3.182,5.436-5.057c9.534-11.15,21.372-18.343,35.729-21.526
	c2.854-0.632,5.693-1.902,8.191-3.442c10.338-6.376,21.521-10.207,33.628-9.561c9.696,0.517,19.214,0.089,28.796-1.149
	c2.895-0.374,4.695-0.97,6.104-3.86c5.567-11.424,16.364-12.792,25.918-3.103c2.696,2.736,4.626,3.098,7.313-0.014
	c5.271-6.095,12.103-8.56,20.163-9.581c6.915-0.876,12.643,1.918,18.908,3.076c9.524,1.758,16.315,7.072,17.412,16.691
	c0.966,8.459,3.298,16.393,5.386,24.52C989.83,124.572,989.428,124.675,1000,125.055z"/>
<g>
	
		<linearGradient id="SVGID_1_" gradientUnits="userSpaceOnUse" x1="-1585.1567" y1="-647.9243" x2="-1585.1567" y2="-534.4888" gradientTransform="matrix(1 0 0 1 1974 968)">
		<stop  offset="0" style="stop-color:#D7FFBF"/>
		<stop  offset="0.0196" style="stop-color:#CEFBBF"/>
		<stop  offset="0.0523" style="stop-color:#B4F0BF"/>
		<stop  offset="0.094" style="stop-color:#8BDEBF"/>
		<stop  offset="0.1431" style="stop-color:#51C4BF"/>
		<stop  offset="0.1978" style="stop-color:#08A5BF"/>
		<stop  offset="0.2037" style="stop-color:#00A1BF"/>
		<stop  offset="0.9944" style="stop-color:#004C54"/>
	</linearGradient>
	
		<path fill="none" stroke="url(#SVGID_1_)" stroke-width="16" stroke-linecap="round" stroke-linejoin="round" stroke-miterlimit="10" d="
		M378.361,425.511v-44.982c0,0,4.838-20.879,9.421-23.428c4.583-2.547,7.639-11.883,11.543-29.025"/>
	
		<linearGradient id="SVGID_2_" gradientUnits="userSpaceOnUse" x1="-444.0356" y1="-240.228" x2="-444.0356" y2="-128.4888" gradientTransform="matrix(1 0 0 1 816 562)">
		<stop  offset="0" style="stop-color:#D7FFBF"/>
		<stop  offset="0.0196" style="stop-color:#CEFBBF"/>
		<stop  offset="0.0523" style="stop-color:#B4F0BF"/>
		<stop  offset="0.094" style="stop-color:#8BDEBF"/>
		<stop  offset="0.1431" style="stop-color:#51C4BF"/>
		<stop  offset="0.1978" style="stop-color:#08A5BF"/>
		<stop  offset="0.2037" style="stop-color:#00A1BF"/>
		<stop  offset="0.9944" style="stop-color:#004C54"/>
	</linearGradient>
	
		<polyline fill="none" stroke="url(#SVGID_2_)" stroke-width="16" stroke-linecap="round" stroke-linejoin="round" stroke-miterlimit="10" points="
		378.361,425.511 368.018,402.085 364.198,383.243 369.036,348.868 379.73,329.771 	"/>
	
		<linearGradient id="SVGID_3_" gradientUnits="userSpaceOnUse" x1="-450.2437" y1="-237.3091" x2="-450.2437" y2="-128.4888" gradientTransform="matrix(1 0 0 1 816 562)">
		<stop  offset="0" style="stop-color:#D7FFBF"/>
		<stop  offset="0.0196" style="stop-color:#CEFBBF"/>
		<stop  offset="0.0523" style="stop-color:#B4F0BF"/>
		<stop  offset="0.094" style="stop-color:#8BDEBF"/>
		<stop  offset="0.1431" style="stop-color:#51C4BF"/>
		<stop  offset="0.1978" style="stop-color:#08A5BF"/>
		<stop  offset="0.2037" style="stop-color:#00A1BF"/>
		<stop  offset="0.9944" style="stop-color:#004C54"/>
	</linearGradient>
	
		<polyline fill="none" stroke="url(#SVGID_3_)" stroke-width="16" stroke-linecap="round" stroke-linejoin="round" stroke-miterlimit="10" points="
		378.361,425.511 356.972,405.005 353.152,386.163 357.991,351.788 368.685,332.69 	"/>
	
		<linearGradient id="SVGID_4_" gradientUnits="userSpaceOnUse" x1="-420.3188" y1="-235.4771" x2="-420.319" y2="-128.4888" gradientTransform="matrix(1 0 0 1 816 562)">
		<stop  offset="0" style="stop-color:#D7FFBF"/>
		<stop  offset="0.0196" style="stop-color:#CEFBBF"/>
		<stop  offset="0.0523" style="stop-color:#B4F0BF"/>
		<stop  offset="0.094" style="stop-color:#8BDEBF"/>
		<stop  offset="0.1431" style="stop-color:#51C4BF"/>
		<stop  offset="0.1978" style="stop-color:#08A5BF"/>
		<stop  offset="0.2037" style="stop-color:#00A1BF"/>
		<stop  offset="0.9944" style="stop-color:#004C54"/>
	</linearGradient>
	
		<polyline fill="none" stroke="url(#SVGID_4_)" stroke-width="16" stroke-linecap="round" stroke-linejoin="round" stroke-miterlimit="10" points="
		378.361,425.511 401.288,406.837 397.469,387.995 402.307,353.62 413.001,334.522 	"/>
	
		<linearGradient id="SVGID_5_" gradientUnits="userSpaceOnUse" x1="-427.1567" y1="-238.9927" x2="-427.1567" y2="-128.4888" gradientTransform="matrix(1 0 0 1 816 562)">
		<stop  offset="0" style="stop-color:#D7FFBF"/>
		<stop  offset="0.0196" style="stop-color:#CEFBBF"/>
		<stop  offset="0.0523" style="stop-color:#B4F0BF"/>
		<stop  offset="0.094" style="stop-color:#8BDEBF"/>
		<stop  offset="0.1431" style="stop-color:#51C4BF"/>
		<stop  offset="0.1978" style="stop-color:#08A5BF"/>
		<stop  offset="0.2037" style="stop-color:#00A1BF"/>
		<stop  offset="0.9944" style="stop-color:#004C54"/>
	</linearGradient>
	
		<polyline fill="none" stroke="url(#SVGID_5_)" stroke-width="16" stroke-linecap="round" stroke-linejoin="round" stroke-miterlimit="10" points="
		378.361,425.511 387.613,403.323 383.793,384.479 388.632,350.104 399.326,331.007 	"/>
	
		<linearGradient id="SVGID_6_" gradientUnits="userSpaceOnUse" x1="-454.1265" y1="-246.8228" x2="-454.1265" y2="-128.4888" gradientTransform="matrix(1 0 0 1 816 562)">
		<stop  offset="0" style="stop-color:#D7FFBF"/>
		<stop  offset="0.0196" style="stop-color:#CEFBBF"/>
		<stop  offset="0.0523" style="stop-color:#B4F0BF"/>
		<stop  offset="0.094" style="stop-color:#8BDEBF"/>
		<stop  offset="0.1431" style="stop-color:#51C4BF"/>
		<stop  offset="0.1978" style="stop-color:#08A5BF"/>
		<stop  offset="0.2037" style="stop-color:#00A1BF"/>
		<stop  offset="0.9944" style="stop-color:#004C54"/>
	</linearGradient>
	
		<polyline fill="none" stroke="url(#SVGID_6_)" stroke-width="16" stroke-linecap="round" stroke-linejoin="round" stroke-miterlimit="10" points="
		378.361,425.511 349.206,395.491 345.386,376.649 350.224,342.273 360.919,323.177 	"/>
	
		<linearGradient id="SVGID_7_" gradientUnits="userSpaceOnUse" x1="-413.3916" y1="-244.812" x2="-413.3917" y2="-128.4888" gradientTransform="matrix(1 0 0 1 816 562)">
		<stop  offset="0" style="stop-color:#D7FFBF"/>
		<stop  offset="0.0196" style="stop-color:#CEFBBF"/>
		<stop  offset="0.0523" style="stop-color:#B4F0BF"/>
		<stop  offset="0.094" style="stop-color:#8BDEBF"/>
		<stop  offset="0.1431" style="stop-color:#51C4BF"/>
		<stop  offset="0.1978" style="stop-color:#08A5BF"/>
		<stop  offset="0.2037" style="stop-color:#00A1BF"/>
		<stop  offset="0.9944" style="stop-color:#004C54"/>
	</linearGradient>
	
		<polyline fill="none" stroke="url(#SVGID_7_)" stroke-width="16" stroke-linecap="round" stroke-linejoin="round" stroke-miterlimit="10" points="
		378.361,425.511 415.144,397.503 411.324,378.659 416.162,344.284 426.856,325.188 	"/>
	
		<linearGradient id="SVGID_8_" gradientUnits="userSpaceOnUse" x1="-432.2065" y1="-249.6528" x2="-432.2065" y2="-128.4888" gradientTransform="matrix(1 0 0 1 816 562)">
		<stop  offset="0" style="stop-color:#D7FFBF"/>
		<stop  offset="0.0196" style="stop-color:#CEFBBF"/>
		<stop  offset="0.0523" style="stop-color:#B4F0BF"/>
		<stop  offset="0.094" style="stop-color:#8BDEBF"/>
		<stop  offset="0.1431" style="stop-color:#51C4BF"/>
		<stop  offset="0.1978" style="stop-color:#08A5BF"/>
		<stop  offset="0.2037" style="stop-color:#00A1BF"/>
		<stop  offset="0.9944" style="stop-color:#004C54"/>
	</linearGradient>
	
		<polyline fill="none" stroke="url(#SVGID_8_)" stroke-width="16" stroke-linecap="round" stroke-linejoin="round" stroke-miterlimit="10" points="
		378.361,425.511 379.847,392.661 376.027,373.819 380.865,339.444 391.56,320.347 	"/>
	
		<linearGradient id="SVGID_9_" gradientUnits="userSpaceOnUse" x1="-460.332" y1="-249.6528" x2="-460.332" y2="-128.4888" gradientTransform="matrix(1 0 0 1 816 562)">
		<stop  offset="0" style="stop-color:#D7FFBF"/>
		<stop  offset="0.0196" style="stop-color:#CEFBBF"/>
		<stop  offset="0.0523" style="stop-color:#B4F0BF"/>
		<stop  offset="0.094" style="stop-color:#8BDEBF"/>
		<stop  offset="0.1431" style="stop-color:#51C4BF"/>
		<stop  offset="0.1978" style="stop-color:#08A5BF"/>
		<stop  offset="0.2037" style="stop-color:#00A1BF"/>
		<stop  offset="0.9944" style="stop-color:#004C54"/>
	</linearGradient>
	
		<polyline fill="none" stroke="url(#SVGID_9_)" stroke-width="16" stroke-linecap="round" stroke-linejoin="round" stroke-miterlimit="10" points="
		378.361,425.511 336.794,392.661 332.975,373.819 337.813,339.444 348.508,320.347 	"/>
	
		<linearGradient id="SVGID_10_" gradientUnits="userSpaceOnUse" x1="-406.228" y1="-259.8364" x2="-406.228" y2="-128.4888" gradientTransform="matrix(1 0 0 1 816 562)">
		<stop  offset="0" style="stop-color:#D7FFBF"/>
		<stop  offset="0.0196" style="stop-color:#CEFBBF"/>
		<stop  offset="0.0523" style="stop-color:#B4F0BF"/>
		<stop  offset="0.094" style="stop-color:#8BDEBF"/>
		<stop  offset="0.1431" style="stop-color:#51C4BF"/>
		<stop  offset="0.1978" style="stop-color:#08A5BF"/>
		<stop  offset="0.2037" style="stop-color:#00A1BF"/>
		<stop  offset="0.9944" style="stop-color:#004C54"/>
	</linearGradient>
	
		<polyline fill="none" stroke="url(#SVGID_10_)" stroke-width="16" stroke-linecap="round" stroke-linejoin="round" stroke-miterlimit="10" points="
		378.361,425.511 429.469,382.478 425.649,363.636 430.487,329.261 441.183,310.163 	"/>
	
		<linearGradient id="SVGID_11_" gradientUnits="userSpaceOnUse" x1="-445.4048" y1="-256.231" x2="-445.4048" y2="-128.4888" gradientTransform="matrix(1 0 0 1 816 562)">
		<stop  offset="0" style="stop-color:#D7FFBF"/>
		<stop  offset="0.0196" style="stop-color:#CEFBBF"/>
		<stop  offset="0.0523" style="stop-color:#B4F0BF"/>
		<stop  offset="0.094" style="stop-color:#8BDEBF"/>
		<stop  offset="0.1431" style="stop-color:#51C4BF"/>
		<stop  offset="0.1978" style="stop-color:#08A5BF"/>
		<stop  offset="0.2037" style="stop-color:#00A1BF"/>
		<stop  offset="0.9944" style="stop-color:#004C54"/>
	</linearGradient>
	
		<polyline fill="none" stroke="url(#SVGID_11_)" stroke-width="16" stroke-linecap="round" stroke-linejoin="round" stroke-miterlimit="10" points="
		378.361,425.511 366.648,386.083 362.829,367.24 367.667,332.865 378.361,313.769 	"/>
	
		<linearGradient id="SVGID_12_" gradientUnits="userSpaceOnUse" x1="-419.3906" y1="-272.937" x2="-419.3906" y2="-128.4888" gradientTransform="matrix(1 0 0 1 816 562)">
		<stop  offset="0" style="stop-color:#D7FFBF"/>
		<stop  offset="0.0196" style="stop-color:#CEFBBF"/>
		<stop  offset="0.0523" style="stop-color:#B4F0BF"/>
		<stop  offset="0.094" style="stop-color:#8BDEBF"/>
		<stop  offset="0.1431" style="stop-color:#51C4BF"/>
		<stop  offset="0.1978" style="stop-color:#08A5BF"/>
		<stop  offset="0.2037" style="stop-color:#00A1BF"/>
		<stop  offset="0.9944" style="stop-color:#004C54"/>
	</linearGradient>
	
		<polyline fill="none" stroke="url(#SVGID_12_)" stroke-width="16" stroke-linecap="round" stroke-linejoin="round" stroke-miterlimit="10" points="
		378.361,425.511 403.146,369.379 399.326,350.536 404.164,316.161 414.858,297.062 	"/>
	
		<linearGradient id="SVGID_13_" gradientUnits="userSpaceOnUse" x1="-454.8208" y1="-262.2261" x2="-454.8208" y2="-128.4888" gradientTransform="matrix(1 0 0 1 816 562)">
		<stop  offset="0" style="stop-color:#D7FFBF"/>
		<stop  offset="0.0196" style="stop-color:#CEFBBF"/>
		<stop  offset="0.0523" style="stop-color:#B4F0BF"/>
		<stop  offset="0.094" style="stop-color:#8BDEBF"/>
		<stop  offset="0.1431" style="stop-color:#51C4BF"/>
		<stop  offset="0.1978" style="stop-color:#08A5BF"/>
		<stop  offset="0.2037" style="stop-color:#00A1BF"/>
		<stop  offset="0.9944" style="stop-color:#004C54"/>
	</linearGradient>
	
		<polyline fill="none" stroke="url(#SVGID_13_)" stroke-width="16" stroke-linecap="round" stroke-linejoin="round" stroke-miterlimit="10" points="
		378.361,425.511 347.816,380.089 343.997,361.245 348.834,326.87 359.529,307.773 	"/>
	<polygon id="anchor" opacity="0" fill="#A90027" points="401.253,319.656 388.843,280.656 477.368,274.656 465.639,319.656 	"/>
</g>
<g id="con-line">
	
		<linearGradient id="SVGID_14_" gradientUnits="userSpaceOnUse" x1="-1368.2354" y1="-901.7593" x2="-1368.2354" y2="-788.3179" gradientTransform="matrix(0.5633 -0.8262 0.8262 0.5633 2125.9963 -345.0825)">
		<stop  offset="0" style="stop-color:#D7FFBF"/>
		<stop  offset="0.0196" style="stop-color:#CEFBBF"/>
		<stop  offset="0.0523" style="stop-color:#B4F0BF"/>
		<stop  offset="0.094" style="stop-color:#8BDEBF"/>
		<stop  offset="0.1431" style="stop-color:#51C4BF"/>
		<stop  offset="0.1978" style="stop-color:#08A5BF"/>
		<stop  offset="0.2037" style="stop-color:#00A1BF"/>
		<stop  offset="0.9944" style="stop-color:#004C54"/>
	</linearGradient>
	
		<path fill="none" stroke="url(#SVGID_14_)" stroke-width="16" stroke-linecap="round" stroke-linejoin="round" stroke-miterlimit="10" d="
		M691.448,345.448l-37.168-25.341c0,0-14.525-15.761-14.048-20.98c0.479-5.223-5.517-13.006-17.481-25.889"/>
	
		<linearGradient id="SVGID_15_" gradientUnits="userSpaceOnUse" x1="-227.062" y1="-494.0518" x2="-227.062" y2="-382.3076" gradientTransform="matrix(0.5633 -0.8262 0.8262 0.5633 1138.219 382.9956)">
		<stop  offset="0" style="stop-color:#D7FFBF"/>
		<stop  offset="0.0196" style="stop-color:#CEFBBF"/>
		<stop  offset="0.0523" style="stop-color:#B4F0BF"/>
		<stop  offset="0.094" style="stop-color:#8BDEBF"/>
		<stop  offset="0.1431" style="stop-color:#51C4BF"/>
		<stop  offset="0.1978" style="stop-color:#08A5BF"/>
		<stop  offset="0.2037" style="stop-color:#00A1BF"/>
		<stop  offset="0.9944" style="stop-color:#004C54"/>
	</linearGradient>
	
		<polyline fill="none" stroke="url(#SVGID_15_)" stroke-width="16" stroke-linecap="round" stroke-linejoin="round" stroke-miterlimit="10" points="
		691.448,345.448 666.267,340.798 648.547,333.34 622.87,309.979 613.115,290.384 	"/>
	
		<linearGradient id="SVGID_16_" gradientUnits="userSpaceOnUse" x1="-233.27" y1="-491.1318" x2="-233.27" y2="-382.3076" gradientTransform="matrix(0.5633 -0.8262 0.8262 0.5633 1138.219 382.9956)">
		<stop  offset="0" style="stop-color:#D7FFBF"/>
		<stop  offset="0.0196" style="stop-color:#CEFBBF"/>
		<stop  offset="0.0523" style="stop-color:#B4F0BF"/>
		<stop  offset="0.094" style="stop-color:#8BDEBF"/>
		<stop  offset="0.1431" style="stop-color:#51C4BF"/>
		<stop  offset="0.1978" style="stop-color:#08A5BF"/>
		<stop  offset="0.2037" style="stop-color:#00A1BF"/>
		<stop  offset="0.9944" style="stop-color:#004C54"/>
	</linearGradient>
	
		<polyline fill="none" stroke="url(#SVGID_16_)" stroke-width="16" stroke-linecap="round" stroke-linejoin="round" stroke-miterlimit="10" points="
		691.448,345.448 662.457,351.569 644.737,344.111 619.061,320.749 609.306,301.155 	"/>
	
		<linearGradient id="SVGID_17_" gradientUnits="userSpaceOnUse" x1="-203.3418" y1="-489.3003" x2="-203.3419" y2="-382.3062" gradientTransform="matrix(0.5633 -0.8262 0.8262 0.5633 1138.219 382.9956)">
		<stop  offset="0" style="stop-color:#D7FFBF"/>
		<stop  offset="0.0196" style="stop-color:#CEFBBF"/>
		<stop  offset="0.0523" style="stop-color:#B4F0BF"/>
		<stop  offset="0.094" style="stop-color:#8BDEBF"/>
		<stop  offset="0.1431" style="stop-color:#51C4BF"/>
		<stop  offset="0.1978" style="stop-color:#08A5BF"/>
		<stop  offset="0.2037" style="stop-color:#00A1BF"/>
		<stop  offset="0.9944" style="stop-color:#004C54"/>
	</linearGradient>
	
		<polyline fill="none" stroke="url(#SVGID_17_)" stroke-width="16" stroke-linecap="round" stroke-linejoin="round" stroke-miterlimit="10" points="
		691.448,345.448 688.935,315.985 671.215,308.527 645.538,285.166 635.784,265.57 	"/>
	
		<linearGradient id="SVGID_18_" gradientUnits="userSpaceOnUse" x1="-210.1826" y1="-492.8154" x2="-210.1826" y2="-382.3076" gradientTransform="matrix(0.5633 -0.8262 0.8262 0.5633 1138.219 382.9956)">
		<stop  offset="0" style="stop-color:#D7FFBF"/>
		<stop  offset="0.0196" style="stop-color:#CEFBBF"/>
		<stop  offset="0.0523" style="stop-color:#B4F0BF"/>
		<stop  offset="0.094" style="stop-color:#8BDEBF"/>
		<stop  offset="0.1431" style="stop-color:#51C4BF"/>
		<stop  offset="0.1978" style="stop-color:#08A5BF"/>
		<stop  offset="0.2037" style="stop-color:#00A1BF"/>
		<stop  offset="0.9944" style="stop-color:#004C54"/>
	</linearGradient>
	
		<polyline fill="none" stroke="url(#SVGID_18_)" stroke-width="16" stroke-linecap="round" stroke-linejoin="round" stroke-miterlimit="10" points="
		691.448,345.448 678.328,325.305 660.606,317.846 634.931,294.482 625.175,274.891 	"/>
	
		<linearGradient id="SVGID_19_" gradientUnits="userSpaceOnUse" x1="-237.1528" y1="-500.6455" x2="-237.1528" y2="-382.3076" gradientTransform="matrix(0.5633 -0.8262 0.8262 0.5633 1138.219 382.9956)">
		<stop  offset="0" style="stop-color:#D7FFBF"/>
		<stop  offset="0.0196" style="stop-color:#CEFBBF"/>
		<stop  offset="0.0523" style="stop-color:#B4F0BF"/>
		<stop  offset="0.094" style="stop-color:#8BDEBF"/>
		<stop  offset="0.1431" style="stop-color:#51C4BF"/>
		<stop  offset="0.1978" style="stop-color:#08A5BF"/>
		<stop  offset="0.2037" style="stop-color:#00A1BF"/>
		<stop  offset="0.9944" style="stop-color:#004C54"/>
	</linearGradient>
	
		<polyline fill="none" stroke="url(#SVGID_19_)" stroke-width="16" stroke-linecap="round" stroke-linejoin="round" stroke-miterlimit="10" points="
		691.448,345.448 650.222,352.626 632.502,345.168 606.824,321.807 597.071,302.212 	"/>
	
		<linearGradient id="SVGID_20_" gradientUnits="userSpaceOnUse" x1="-196.4165" y1="-498.6357" x2="-196.4165" y2="-382.3076" gradientTransform="matrix(0.5633 -0.8262 0.8262 0.5633 1138.219 382.9956)">
		<stop  offset="0" style="stop-color:#D7FFBF"/>
		<stop  offset="0.0196" style="stop-color:#CEFBBF"/>
		<stop  offset="0.0523" style="stop-color:#B4F0BF"/>
		<stop  offset="0.094" style="stop-color:#8BDEBF"/>
		<stop  offset="0.1431" style="stop-color:#51C4BF"/>
		<stop  offset="0.1978" style="stop-color:#08A5BF"/>
		<stop  offset="0.2037" style="stop-color:#00A1BF"/>
		<stop  offset="0.9944" style="stop-color:#004C54"/>
	</linearGradient>
	
		<polyline fill="none" stroke="url(#SVGID_20_)" stroke-width="16" stroke-linecap="round" stroke-linejoin="round" stroke-miterlimit="10" points="
		691.448,345.448 689.027,299.279 671.307,291.82 645.63,268.459 635.875,248.864 	"/>
	
		<linearGradient id="SVGID_21_" gradientUnits="userSpaceOnUse" x1="-215.2319" y1="-503.4756" x2="-215.2319" y2="-382.3076" gradientTransform="matrix(0.5633 -0.8262 0.8262 0.5633 1138.219 382.9956)">
		<stop  offset="0" style="stop-color:#D7FFBF"/>
		<stop  offset="0.0196" style="stop-color:#CEFBBF"/>
		<stop  offset="0.0523" style="stop-color:#B4F0BF"/>
		<stop  offset="0.094" style="stop-color:#8BDEBF"/>
		<stop  offset="0.1431" style="stop-color:#51C4BF"/>
		<stop  offset="0.1978" style="stop-color:#08A5BF"/>
		<stop  offset="0.2037" style="stop-color:#00A1BF"/>
		<stop  offset="0.9944" style="stop-color:#004C54"/>
	</linearGradient>
	
		<polyline fill="none" stroke="url(#SVGID_21_)" stroke-width="16" stroke-linecap="round" stroke-linejoin="round" stroke-miterlimit="10" points="
		691.448,345.448 665.144,325.715 647.424,318.258 621.747,294.896 611.993,275.301 	"/>
	
		<linearGradient id="SVGID_22_" gradientUnits="userSpaceOnUse" x1="-243.3589" y1="-503.4756" x2="-243.3589" y2="-382.3076" gradientTransform="matrix(0.5633 -0.8262 0.8262 0.5633 1138.219 382.9956)">
		<stop  offset="0" style="stop-color:#D7FFBF"/>
		<stop  offset="0.0196" style="stop-color:#CEFBBF"/>
		<stop  offset="0.0523" style="stop-color:#B4F0BF"/>
		<stop  offset="0.094" style="stop-color:#8BDEBF"/>
		<stop  offset="0.1431" style="stop-color:#51C4BF"/>
		<stop  offset="0.1978" style="stop-color:#08A5BF"/>
		<stop  offset="0.2037" style="stop-color:#00A1BF"/>
		<stop  offset="0.9944" style="stop-color:#004C54"/>
	</linearGradient>
	
		<polyline fill="none" stroke="url(#SVGID_22_)" stroke-width="16" stroke-linecap="round" stroke-linejoin="round" stroke-miterlimit="10" points="
		691.448,345.448 640.892,361.287 623.172,353.829 597.495,330.468 587.74,310.873 	"/>
	
		<linearGradient id="SVGID_23_" gradientUnits="userSpaceOnUse" x1="-189.2524" y1="-513.6602" x2="-189.2524" y2="-382.3076" gradientTransform="matrix(0.5633 -0.8262 0.8262 0.5633 1138.219 382.9956)">
		<stop  offset="0" style="stop-color:#D7FFBF"/>
		<stop  offset="0.0196" style="stop-color:#CEFBBF"/>
		<stop  offset="0.0523" style="stop-color:#B4F0BF"/>
		<stop  offset="0.094" style="stop-color:#8BDEBF"/>
		<stop  offset="0.1431" style="stop-color:#51C4BF"/>
		<stop  offset="0.1978" style="stop-color:#08A5BF"/>
		<stop  offset="0.2037" style="stop-color:#00A1BF"/>
		<stop  offset="0.9944" style="stop-color:#004C54"/>
	</linearGradient>
	
		<polyline fill="none" stroke="url(#SVGID_23_)" stroke-width="16" stroke-linecap="round" stroke-linejoin="round" stroke-miterlimit="10" points="
		691.448,345.448 684.683,278.979 666.964,271.521 641.287,248.159 631.532,228.564 	"/>
	
		<linearGradient id="SVGID_24_" gradientUnits="userSpaceOnUse" x1="-228.4312" y1="-510.0537" x2="-228.4312" y2="-382.3076" gradientTransform="matrix(0.5633 -0.8262 0.8262 0.5633 1138.219 382.9956)">
		<stop  offset="0" style="stop-color:#D7FFBF"/>
		<stop  offset="0.0196" style="stop-color:#CEFBBF"/>
		<stop  offset="0.0523" style="stop-color:#B4F0BF"/>
		<stop  offset="0.094" style="stop-color:#8BDEBF"/>
		<stop  offset="0.1431" style="stop-color:#51C4BF"/>
		<stop  offset="0.1978" style="stop-color:#08A5BF"/>
		<stop  offset="0.2037" style="stop-color:#00A1BF"/>
		<stop  offset="0.9944" style="stop-color:#004C54"/>
	</linearGradient>
	
		<polyline fill="none" stroke="url(#SVGID_24_)" stroke-width="16" stroke-linecap="round" stroke-linejoin="round" stroke-miterlimit="10" points="
		691.448,345.448 652.273,332.915 634.554,325.456 608.877,302.095 599.122,282.501 	"/>
	
		<linearGradient id="SVGID_25_" gradientUnits="userSpaceOnUse" x1="-202.4155" y1="-526.7607" x2="-202.4155" y2="-382.3076" gradientTransform="matrix(0.5633 -0.8262 0.8262 0.5633 1138.219 382.9956)">
		<stop  offset="0" style="stop-color:#D7FFBF"/>
		<stop  offset="0.0196" style="stop-color:#CEFBBF"/>
		<stop  offset="0.0523" style="stop-color:#B4F0BF"/>
		<stop  offset="0.094" style="stop-color:#8BDEBF"/>
		<stop  offset="0.1431" style="stop-color:#51C4BF"/>
		<stop  offset="0.1978" style="stop-color:#08A5BF"/>
		<stop  offset="0.2037" style="stop-color:#00A1BF"/>
		<stop  offset="0.9944" style="stop-color:#004C54"/>
	</linearGradient>
	
		<polyline fill="none" stroke="url(#SVGID_25_)" stroke-width="16" stroke-linecap="round" stroke-linejoin="round" stroke-miterlimit="10" points="
		691.448,345.448 659.032,293.35 641.312,285.893 615.635,262.529 605.88,242.935 	"/>
	
		<linearGradient id="SVGID_26_" gradientUnits="userSpaceOnUse" x1="-237.8477" y1="-516.0479" x2="-237.8477" y2="-382.3076" gradientTransform="matrix(0.5633 -0.8262 0.8262 0.5633 1138.219 382.9956)">
		<stop  offset="0" style="stop-color:#D7FFBF"/>
		<stop  offset="0.0196" style="stop-color:#CEFBBF"/>
		<stop  offset="0.0523" style="stop-color:#B4F0BF"/>
		<stop  offset="0.094" style="stop-color:#8BDEBF"/>
		<stop  offset="0.1431" style="stop-color:#51C4BF"/>
		<stop  offset="0.1978" style="stop-color:#08A5BF"/>
		<stop  offset="0.2037" style="stop-color:#00A1BF"/>
		<stop  offset="0.9944" style="stop-color:#004C54"/>
	</linearGradient>
	
		<polyline fill="none" stroke="url(#SVGID_26_)" stroke-width="16" stroke-linecap="round" stroke-linejoin="round" stroke-miterlimit="10" points="
		691.448,345.448 636.712,345.099 618.991,337.639 593.314,314.277 583.561,294.686 	"/>
</g>
<g>
	
		<linearGradient id="SVGID_27_" gradientUnits="userSpaceOnUse" x1="-1134.4497" y1="-799.0654" x2="-1134.4497" y2="-688.627" gradientTransform="matrix(0.9509 -0.3094 0.3094 0.9509 2080.6865 474.2585)">
		<stop  offset="0" style="stop-color:#D7FFBF"/>
		<stop  offset="0.0196" style="stop-color:#CEFBBF"/>
		<stop  offset="0.0523" style="stop-color:#B4F0BF"/>
		<stop  offset="0.094" style="stop-color:#8BDEBF"/>
		<stop  offset="0.1431" style="stop-color:#51C4BF"/>
		<stop  offset="0.1978" style="stop-color:#08A5BF"/>
		<stop  offset="0.2037" style="stop-color:#00A1BF"/>
		<stop  offset="0.9944" style="stop-color:#004C54"/>
	</linearGradient>
	
		<path fill="none" stroke="url(#SVGID_27_)" stroke-width="13" stroke-linecap="round" stroke-linejoin="round" stroke-miterlimit="10" d="
		M776.896,167.505l-13.919-42.778c0,0-1.855-21.352,1.715-25.191c3.57-3.84,3.589-13.663,1.997-31.174"/>
	
		<linearGradient id="SVGID_28_" gradientUnits="userSpaceOnUse" x1="6.6851" y1="-391.2944" x2="6.6851" y2="-282.5513" gradientTransform="matrix(0.9509 -0.3094 0.3094 0.9509 853.8915 446.4109)">
		<stop  offset="0" style="stop-color:#D7FFBF"/>
		<stop  offset="0.0196" style="stop-color:#CEFBBF"/>
		<stop  offset="0.0523" style="stop-color:#B4F0BF"/>
		<stop  offset="0.094" style="stop-color:#8BDEBF"/>
		<stop  offset="0.1431" style="stop-color:#51C4BF"/>
		<stop  offset="0.1978" style="stop-color:#08A5BF"/>
		<stop  offset="0.2037" style="stop-color:#00A1BF"/>
		<stop  offset="0.9944" style="stop-color:#004C54"/>
	</linearGradient>
	
		<polyline fill="none" stroke="url(#SVGID_28_)" stroke-width="13" stroke-linecap="round" stroke-linejoin="round" stroke-miterlimit="10" points="
		776.896,167.505 759.812,148.428 750.352,131.692 744.317,97.506 748.58,76.037 	"/>
	
		<linearGradient id="SVGID_29_" gradientUnits="userSpaceOnUse" x1="0.4751" y1="-388.3755" x2="0.4751" y2="-282.5513" gradientTransform="matrix(0.9509 -0.3094 0.3094 0.9509 853.8915 446.4109)">
		<stop  offset="0" style="stop-color:#D7FFBF"/>
		<stop  offset="0.0196" style="stop-color:#CEFBBF"/>
		<stop  offset="0.0523" style="stop-color:#B4F0BF"/>
		<stop  offset="0.094" style="stop-color:#8BDEBF"/>
		<stop  offset="0.1431" style="stop-color:#51C4BF"/>
		<stop  offset="0.1978" style="stop-color:#08A5BF"/>
		<stop  offset="0.2037" style="stop-color:#00A1BF"/>
		<stop  offset="0.9944" style="stop-color:#004C54"/>
	</linearGradient>
	
		<polyline fill="none" stroke="url(#SVGID_29_)" stroke-width="13" stroke-linecap="round" stroke-linejoin="round" stroke-miterlimit="10" points="
		776.896,167.505 750.212,154.622 740.751,137.886 734.718,103.7 738.979,82.231 	"/>
	
		<linearGradient id="SVGID_30_" gradientUnits="userSpaceOnUse" x1="30.4009" y1="-386.541" x2="30.4008" y2="-282.5518" gradientTransform="matrix(0.9509 -0.3094 0.3094 0.9509 853.8915 446.4109)">
		<stop  offset="0" style="stop-color:#D7FFBF"/>
		<stop  offset="0.0196" style="stop-color:#CEFBBF"/>
		<stop  offset="0.0523" style="stop-color:#B4F0BF"/>
		<stop  offset="0.094" style="stop-color:#8BDEBF"/>
		<stop  offset="0.1431" style="stop-color:#51C4BF"/>
		<stop  offset="0.1978" style="stop-color:#08A5BF"/>
		<stop  offset="0.2037" style="stop-color:#00A1BF"/>
		<stop  offset="0.9944" style="stop-color:#004C54"/>
	</linearGradient>
	
		<polyline fill="none" stroke="url(#SVGID_30_)" stroke-width="13" stroke-linecap="round" stroke-linejoin="round" stroke-miterlimit="10" points="
		776.896,167.505 792.921,142.654 783.46,125.918 777.426,91.733 781.688,70.264 	"/>
	
		<linearGradient id="SVGID_31_" gradientUnits="userSpaceOnUse" x1="23.564" y1="-390.0581" x2="23.564" y2="-282.5513" gradientTransform="matrix(0.9509 -0.3094 0.3094 0.9509 853.8915 446.4109)">
		<stop  offset="0" style="stop-color:#D7FFBF"/>
		<stop  offset="0.0196" style="stop-color:#CEFBBF"/>
		<stop  offset="0.0523" style="stop-color:#B4F0BF"/>
		<stop  offset="0.094" style="stop-color:#8BDEBF"/>
		<stop  offset="0.1431" style="stop-color:#51C4BF"/>
		<stop  offset="0.1978" style="stop-color:#08A5BF"/>
		<stop  offset="0.2037" style="stop-color:#00A1BF"/>
		<stop  offset="0.9944" style="stop-color:#004C54"/>
	</linearGradient>
	
		<polyline fill="none" stroke="url(#SVGID_31_)" stroke-width="13" stroke-linecap="round" stroke-linejoin="round" stroke-miterlimit="10" points="
		776.896,167.505 778.83,143.543 769.367,126.805 763.335,92.62 767.596,71.15 	"/>
	
		<linearGradient id="SVGID_32_" gradientUnits="userSpaceOnUse" x1="-3.4077" y1="-397.8901" x2="-3.4077" y2="-282.5513" gradientTransform="matrix(0.9509 -0.3094 0.3094 0.9509 853.8915 446.4109)">
		<stop  offset="0" style="stop-color:#D7FFBF"/>
		<stop  offset="0.0196" style="stop-color:#CEFBBF"/>
		<stop  offset="0.0523" style="stop-color:#B4F0BF"/>
		<stop  offset="0.094" style="stop-color:#8BDEBF"/>
		<stop  offset="0.1431" style="stop-color:#51C4BF"/>
		<stop  offset="0.1978" style="stop-color:#08A5BF"/>
		<stop  offset="0.2037" style="stop-color:#00A1BF"/>
		<stop  offset="0.9944" style="stop-color:#004C54"/>
	</linearGradient>
	
		<polyline fill="none" stroke="url(#SVGID_32_)" stroke-width="13" stroke-linecap="round" stroke-linejoin="round" stroke-miterlimit="10" points="
		776.896,167.505 739.885,147.977 730.423,131.241 724.389,97.055 728.652,75.586 	"/>
	
		<linearGradient id="SVGID_33_" gradientUnits="userSpaceOnUse" x1="37.3301" y1="-395.8765" x2="37.3301" y2="-282.5513" gradientTransform="matrix(0.9509 -0.3094 0.3094 0.9509 853.8915 446.4109)">
		<stop  offset="0" style="stop-color:#D7FFBF"/>
		<stop  offset="0.0196" style="stop-color:#CEFBBF"/>
		<stop  offset="0.0523" style="stop-color:#B4F0BF"/>
		<stop  offset="0.094" style="stop-color:#8BDEBF"/>
		<stop  offset="0.1431" style="stop-color:#51C4BF"/>
		<stop  offset="0.1978" style="stop-color:#08A5BF"/>
		<stop  offset="0.2037" style="stop-color:#00A1BF"/>
		<stop  offset="0.9944" style="stop-color:#004C54"/>
	</linearGradient>
	
		<polyline fill="none" stroke="url(#SVGID_33_)" stroke-width="13" stroke-linecap="round" stroke-linejoin="round" stroke-miterlimit="10" points="
		776.896,167.505 803.209,129.492 793.748,112.754 787.714,78.569 791.977,57.099 	"/>
	
		<linearGradient id="SVGID_34_" gradientUnits="userSpaceOnUse" x1="18.5151" y1="-400.7183" x2="18.5151" y2="-282.5513" gradientTransform="matrix(0.9509 -0.3094 0.3094 0.9509 853.8915 446.4109)">
		<stop  offset="0" style="stop-color:#D7FFBF"/>
		<stop  offset="0.0196" style="stop-color:#CEFBBF"/>
		<stop  offset="0.0523" style="stop-color:#B4F0BF"/>
		<stop  offset="0.094" style="stop-color:#8BDEBF"/>
		<stop  offset="0.1431" style="stop-color:#51C4BF"/>
		<stop  offset="0.1978" style="stop-color:#08A5BF"/>
		<stop  offset="0.2037" style="stop-color:#00A1BF"/>
		<stop  offset="0.9944" style="stop-color:#004C54"/>
	</linearGradient>
	
		<polyline fill="none" stroke="url(#SVGID_34_)" stroke-width="13" stroke-linecap="round" stroke-linejoin="round" stroke-miterlimit="10" points="
		776.896,167.505 768.146,135.806 758.685,119.071 752.65,84.886 756.914,63.416 	"/>
	
		<linearGradient id="SVGID_35_" gradientUnits="userSpaceOnUse" x1="-9.6143" y1="-400.7212" x2="-9.6143" y2="-282.5513" gradientTransform="matrix(0.9509 -0.3094 0.3094 0.9509 853.8915 446.4109)">
		<stop  offset="0" style="stop-color:#D7FFBF"/>
		<stop  offset="0.0196" style="stop-color:#CEFBBF"/>
		<stop  offset="0.0523" style="stop-color:#B4F0BF"/>
		<stop  offset="0.094" style="stop-color:#8BDEBF"/>
		<stop  offset="0.1431" style="stop-color:#51C4BF"/>
		<stop  offset="0.1978" style="stop-color:#08A5BF"/>
		<stop  offset="0.2037" style="stop-color:#00A1BF"/>
		<stop  offset="0.9944" style="stop-color:#004C54"/>
	</linearGradient>
	
		<polyline fill="none" stroke="url(#SVGID_35_)" stroke-width="13" stroke-linecap="round" stroke-linejoin="round" stroke-miterlimit="10" points="
		776.896,167.505 727.206,149.125 717.744,132.39 711.711,98.204 715.973,76.734 	"/>
	
		<linearGradient id="SVGID_36_" gradientUnits="userSpaceOnUse" x1="44.4937" y1="-410.8999" x2="44.4936" y2="-282.5513" gradientTransform="matrix(0.9509 -0.3094 0.3094 0.9509 853.8915 446.4109)">
		<stop  offset="0" style="stop-color:#D7FFBF"/>
		<stop  offset="0.0196" style="stop-color:#CEFBBF"/>
		<stop  offset="0.0523" style="stop-color:#B4F0BF"/>
		<stop  offset="0.094" style="stop-color:#8BDEBF"/>
		<stop  offset="0.1431" style="stop-color:#51C4BF"/>
		<stop  offset="0.1978" style="stop-color:#08A5BF"/>
		<stop  offset="0.2037" style="stop-color:#00A1BF"/>
		<stop  offset="0.9944" style="stop-color:#004C54"/>
	</linearGradient>
	
		<polyline fill="none" stroke="url(#SVGID_36_)" stroke-width="13" stroke-linecap="round" stroke-linejoin="round" stroke-miterlimit="10" points="
		776.896,167.505 812.184,110.772 802.724,94.036 796.689,59.851 800.952,38.381 	"/>
	
		<linearGradient id="SVGID_37_" gradientUnits="userSpaceOnUse" x1="5.3169" y1="-407.2983" x2="5.3169" y2="-282.5513" gradientTransform="matrix(0.9509 -0.3094 0.3094 0.9509 853.8915 446.4109)">
		<stop  offset="0" style="stop-color:#D7FFBF"/>
		<stop  offset="0.0196" style="stop-color:#CEFBBF"/>
		<stop  offset="0.0523" style="stop-color:#B4F0BF"/>
		<stop  offset="0.094" style="stop-color:#8BDEBF"/>
		<stop  offset="0.1431" style="stop-color:#51C4BF"/>
		<stop  offset="0.1978" style="stop-color:#08A5BF"/>
		<stop  offset="0.2037" style="stop-color:#00A1BF"/>
		<stop  offset="0.9944" style="stop-color:#004C54"/>
	</linearGradient>
	
		<polyline fill="none" stroke="url(#SVGID_37_)" stroke-width="13" stroke-linecap="round" stroke-linejoin="round" stroke-miterlimit="10" points="
		776.896,167.505 753.56,133.634 744.1,116.897 738.065,82.712 742.327,61.243 	"/>
	
		<linearGradient id="SVGID_38_" gradientUnits="userSpaceOnUse" x1="31.3315" y1="-424.0015" x2="31.3315" y2="-282.5513" gradientTransform="matrix(0.9509 -0.3094 0.3094 0.9509 853.8915 446.4109)">
		<stop  offset="0" style="stop-color:#D7FFBF"/>
		<stop  offset="0.0196" style="stop-color:#CEFBBF"/>
		<stop  offset="0.0523" style="stop-color:#B4F0BF"/>
		<stop  offset="0.094" style="stop-color:#8BDEBF"/>
		<stop  offset="0.1431" style="stop-color:#51C4BF"/>
		<stop  offset="0.1978" style="stop-color:#08A5BF"/>
		<stop  offset="0.2037" style="stop-color:#00A1BF"/>
		<stop  offset="0.9944" style="stop-color:#004C54"/>
	</linearGradient>
	
		<polyline fill="none" stroke="url(#SVGID_38_)" stroke-width="13" stroke-linecap="round" stroke-linejoin="round" stroke-miterlimit="10" points="
		776.896,167.505 783.1,106.459 773.638,89.723 767.604,55.537 771.866,34.067 	"/>
	
		<linearGradient id="SVGID_39_" gradientUnits="userSpaceOnUse" x1="-4.1021" y1="-413.2944" x2="-4.1021" y2="-282.5513" gradientTransform="matrix(0.9509 -0.3094 0.3094 0.9509 853.8915 446.4109)">
		<stop  offset="0" style="stop-color:#D7FFBF"/>
		<stop  offset="0.0196" style="stop-color:#CEFBBF"/>
		<stop  offset="0.0523" style="stop-color:#B4F0BF"/>
		<stop  offset="0.094" style="stop-color:#8BDEBF"/>
		<stop  offset="0.1431" style="stop-color:#51C4BF"/>
		<stop  offset="0.1978" style="stop-color:#08A5BF"/>
		<stop  offset="0.2037" style="stop-color:#00A1BF"/>
		<stop  offset="0.9944" style="stop-color:#004C54"/>
	</linearGradient>
	
		<polyline fill="none" stroke="url(#SVGID_39_)" stroke-width="13" stroke-linecap="round" stroke-linejoin="round" stroke-miterlimit="10" points="
		776.896,167.505 733.797,133.76 724.336,117.022 718.302,82.836 722.562,61.369 	"/>
</g>
<polygon id="ghost" display="none" fill="#273639" points="184.5,472.497 327.225,399.497 533.5,387.247 633.616,336.08 
	797.5,337.445 908.5,429.497 908.5,576.497 121.5,514.497 "/>
</svg>
