<?xml version="1.0" encoding="utf-8"?>
<!-- Generator: Adobe Illustrator 16.0.0, SVG Export Plug-In . SVG Version: 6.00 Build 0)  -->
<!DOCTYPE svg PUBLIC "-//W3C//DTD SVG 1.1//EN" "http://www.w3.org/Graphics/SVG/1.1/DTD/svg11.dtd">
<svg version="1.1" id="Layer_1" xmlns="http://www.w3.org/2000/svg" xmlns:xlink="http://www.w3.org/1999/xlink" x="0px" y="0px"
	 width="100px" height="100px" viewBox="0 0 100 100" enable-background="new 0 0 100 100" xml:space="preserve">
<polygon id="wood" fill-rule="evenodd" clip-rule="evenodd" fill="#FF0000" points="48.6,55.921 48.704,55.411 48.734,55.334 
	49.001,54.985 49.064,54.936 49.323,54.863 49.312,54.936 49.896,54.936 49.953,55.041 50.444,55.599 50.482,55.704 50.422,55.791 
	50.397,56.177 50.427,56.29 50.444,56.504 50.216,56.727 50.146,56.775 50.087,57.278 50.291,57.542 51.218,58.102 51.671,58.408 
	51.713,58.491 51.816,60.198 51.886,61.054 51.701,61.628 51.044,61.841 50.773,62.057 50.799,62.798 50.843,63.149 50.94,64.112 
	50.992,64.766 50.944,64.777 50.649,65.023 50.572,65.778 50.52,67.398 50.495,68.103 50.443,69.349 50.34,70.51 50.106,71.728 
	50.073,72.136 49.871,72.34 49.349,72.34 49.136,71.996 49.228,71.832 49.14,71.793 48.944,71.543 49.045,70.515 49.176,69.684 
	49.323,68.657 49.331,67.458 49.279,66.858 49.058,65.639 49,65.525 48.856,66.06 48.704,66.985 48.585,67.706 48.53,68.279 
	48.381,69.605 48.288,70.207 48.326,70.911 48.405,71.616 48.423,71.881 48.442,72.354 48.339,72.363 47.779,72.362 47.678,72.34 
	47.298,72.251 46.521,72.336 46.013,72.133 45.997,71.862 46.129,71.793 46.798,71.454 47.195,70.588 47.138,70.248 47.117,69.645 
	47.136,69.55 47.165,68.484 47.257,67.746 47.336,67.104 47.383,66.765 47.385,65.867 47.36,65.225 47.335,64.931 47.093,64.671 
	47.379,63.932 47.458,63.403 47.485,62.861 47.558,61.77 47.377,61.572 46.933,61.006 47.257,59.56 47.456,58.471 47.836,58.037 
	48.592,57.704 48.771,57.532 48.82,57.465 48.95,57.104 48.92,56.887 48.795,56.689 48.625,56.262 48.65,56.043 48.6,55.921 "/>
<rect id="static" y="100" fill-rule="evenodd" clip-rule="evenodd" width="100" height="17"/>
</svg>
